SplineFontDB: 3.2
FontName: HylianBook
FullName: Neo-Modern Hylian (Book)
FamilyName: Hylian
Weight: Book
Copyright: 2016 Kasuto of Kataan, created by Austin.
FontLog: "properly mapped some modified vowels to include lowercase variants+AAoACgAA-simplified access to stressed au digraph on # symbol"
Version: 3.5
ItalicAngle: 0
UnderlinePosition: 0
UnderlineWidth: 0
Ascent: 1638
Descent: 410
InvalidEm: 0
sfntRevision: 0x00038000
LayerCount: 2
Layer: 0 1 "Back" 1
Layer: 1 1 "Fore" 0
XUID: [1021 309 -23361534 3556]
StyleMap: 0x0000
FSType: 0
OS2Version: 4
OS2_WeightWidthSlopeOnly: 0
OS2_UseTypoMetrics: 1
CreationTime: 1454883560
ModificationTime: 1695280382
PfmFamily: 17
TTFWeight: 400
TTFWidth: 5
LineGap: 184
VLineGap: 0
Panose: 2 0 5 3 0 0 0 0 0 0
OS2TypoAscent: 1638
OS2TypoAOffset: 0
OS2TypoDescent: -410
OS2TypoDOffset: 0
OS2TypoLinegap: 184
OS2WinAscent: 2912
OS2WinAOffset: 0
OS2WinDescent: 808
OS2WinDOffset: 0
HheadAscent: 2912
HheadAOffset: 0
HheadDescent: -808
HheadDOffset: 0
OS2SubXSize: 1331
OS2SubYSize: 1433
OS2SubXOff: 0
OS2SubYOff: 286
OS2SupXSize: 1331
OS2SupYSize: 1433
OS2SupXOff: 0
OS2SupYOff: 983
OS2StrikeYSize: 102
OS2StrikeYPos: 530
OS2CapHeight: 2253
OS2XHeight: 2253
OS2Vendor: 'PfEd'
OS2CodePages: 00000001.00000000
OS2UnicodeRanges: 80000007.00000000.00000000.00000000
MarkAttachClasses: 1
DEI: 91125
ShortTable: cvt  2
  68
  1297
EndShort
ShortTable: maxp 16
  1
  0
  125
  55
  5
  0
  0
  2
  0
  1
  1
  0
  64
  46
  0
  0
EndShort
LangName: 1033 "" "" "" "Hylian Book 3.5 : 2023-Sep-21"
GaspTable: 1 65535 2 0
Encoding: UnicodeBmp
UnicodeInterp: none
NameList: AGL For New Fonts
DisplaySize: -48
AntiAlias: 1
FitToEm: 1
WidthSeparation: 307
WinInfo: 0 19 14
BeginPrivate: 0
EndPrivate
TeXData: 1 0 0 346030 173015 115343 1038182 -1048576 115343 783286 444596 497025 792723 393216 433062 380633 303038 157286 324010 404750 52429 2506097 1059062 262144
BeginChars: 65539 137

StartChar: .notdef
Encoding: 65536 -1 0
Width: 739
VWidth: 1774
GlyphClass: 1
Flags: W
LayerCount: 2
Fore
SplineSet
151 136.5 m 1,0,-1
 151 1228.5 l 1,1,-1
 586.19921875 1228.5 l 1,2,-1
 586.19921875 136.5 l 1,3,-1
 151 136.5 l 1,0,-1
205.399414062 190.900390625 m 1,4,-1
 531.799804688 190.900390625 l 1,5,-1
 531.799804688 1174.09960938 l 1,6,-1
 205.399414062 1174.09960938 l 1,7,-1
 205.399414062 190.900390625 l 1,4,-1
EndSplineSet
EndChar

StartChar: exclam
Encoding: 33 33 3
Width: 852
VWidth: 1863
GlyphClass: 1
Flags: W
LayerCount: 2
Fore
SplineSet
427.200195312 225.299804688 m 4,0,1
 304.799804688 225.299804688 304.799804688 225.299804688 218.399414062 311.700195312 c 132,-1,2
 132 398.099609375 132 398.099609375 132 520.5 c 4,3,4
 132 642.099609375 132 642.099609375 218.399414062 728.5 c 132,-1,5
 304.799804688 814.900390625 304.799804688 814.900390625 427.200195312 814.900390625 c 4,6,7
 548.799804688 814.900390625 548.799804688 814.900390625 635.200195312 728.5 c 132,-1,8
 721.599609375 642.099609375 721.599609375 642.099609375 721.599609375 520.5 c 4,9,10
 721.599609375 398.099609375 721.599609375 398.099609375 635.200195312 311.700195312 c 132,-1,11
 548.799804688 225.299804688 548.799804688 225.299804688 427.200195312 225.299804688 c 4,0,1
427.200195312 1437.29980469 m 4,12,13
 304.799804688 1437.29980469 304.799804688 1437.29980469 218.399414062 1523.70019531 c 132,-1,14
 132 1610.09960938 132 1610.09960938 132 1732.5 c 4,15,16
 132 1854.09960938 132 1854.09960938 218.399414062 1940.90039062 c 132,-1,17
 304.799804688 2027.70019531 304.799804688 2027.70019531 427.200195312 2027.70019531 c 4,18,19
 548.799804688 2027.70019531 548.799804688 2027.70019531 635.200195312 1940.90039062 c 132,-1,20
 721.599609375 1854.09960938 721.599609375 1854.09960938 721.599609375 1732.5 c 4,21,22
 721.599609375 1610.09960938 721.599609375 1610.09960938 635.200195312 1523.70019531 c 132,-1,23
 548.799804688 1437.29980469 548.799804688 1437.29980469 427.200195312 1437.29980469 c 4,12,13
427.200195312 1525.29980469 m 4,24,25
 512.799804688 1525.29980469 512.799804688 1525.29980469 573.599609375 1585.70019531 c 132,-1,26
 634.399414062 1646.09960938 634.399414062 1646.09960938 634.399414062 1732.5 c 4,27,28
 634.399414062 1818.09960938 634.399414062 1818.09960938 573.599609375 1878.90039062 c 132,-1,29
 512.799804688 1939.70019531 512.799804688 1939.70019531 427.200195312 1939.70019531 c 4,30,31
 340.799804688 1939.70019531 340.799804688 1939.70019531 280 1878.90039062 c 132,-1,32
 219.200195312 1818.09960938 219.200195312 1818.09960938 219.200195312 1732.5 c 4,33,34
 219.200195312 1646.09960938 219.200195312 1646.09960938 280 1585.70019531 c 132,-1,35
 340.799804688 1525.29980469 340.799804688 1525.29980469 427.200195312 1525.29980469 c 4,24,25
427.200195312 312.5 m 4,36,37
 512.799804688 312.5 512.799804688 312.5 573.599609375 373.299804688 c 132,-1,38
 634.399414062 434.099609375 634.399414062 434.099609375 634.399414062 520.5 c 4,39,40
 634.399414062 606.099609375 634.399414062 606.099609375 573.599609375 666.900390625 c 132,-1,41
 512.799804688 727.700195312 512.799804688 727.700195312 427.200195312 727.700195312 c 4,42,43
 340.799804688 727.700195312 340.799804688 727.700195312 280 666.900390625 c 132,-1,44
 219.200195312 606.099609375 219.200195312 606.099609375 219.200195312 520.5 c 4,45,46
 219.200195312 434.099609375 219.200195312 434.099609375 280 373.299804688 c 132,-1,47
 340.799804688 312.5 340.799804688 312.5 427.200195312 312.5 c 4,36,37
EndSplineSet
EndChar

StartChar: quotedbl
Encoding: 34 34 4
Width: 1690
VWidth: 1926
GlyphClass: 1
Flags: W
LayerCount: 2
Fore
SplineSet
845 2186.59960938 m 256,0,1
 761 2186.59960938 761 2186.59960938 701 2246.59960938 c 0,2,3
 641.80078125 2307.40039062 641.80078125 2307.40039062 641.80078125 2390.59960938 c 128,-1,4
 641.80078125 2473.79980469 641.80078125 2473.79980469 701 2534.59960938 c 0,5,6
 761.80078125 2593.79980469 761.80078125 2593.79980469 845 2593.79980469 c 128,-1,7
 928.200195312 2593.79980469 928.200195312 2593.79980469 989 2534.59960938 c 0,8,9
 1049 2474.59960938 1049 2474.59960938 1049 2390.59960938 c 256,10,11
 1049 2306.59960938 1049 2306.59960938 989 2246.59960938 c 128,-1,12
 929 2186.59960938 929 2186.59960938 845 2186.59960938 c 256,0,1
845 985.799804688 m 256,13,14
 761.80078125 985.799804688 761.80078125 985.799804688 701 1045 c 0,15,16
 641.80078125 1105.79980469 641.80078125 1105.79980469 641.80078125 1189 c 128,-1,17
 641.80078125 1272.20019531 641.80078125 1272.20019531 701 1333 c 0,18,19
 761 1393 761 1393 845 1393 c 256,20,21
 929 1393 929 1393 989 1333 c 128,-1,22
 1049 1273 1049 1273 1049 1189 c 256,23,24
 1049 1105 1049 1105 989 1045 c 0,25,26
 928.200195312 985.799804688 928.200195312 985.799804688 845 985.799804688 c 256,13,14
1262.60058594 288.200195312 m 1,27,-1
 428.200195312 288.200195312 l 1,28,-1
 149 288.200195312 l 1,29,-1
 149 567.400390625 l 1,30,-1
 149 2090.59960938 l 1,31,-1
 428.200195312 2090.59960938 l 1,32,-1
 428.200195312 567.400390625 l 1,33,-1
 1262.60058594 567.400390625 l 1,34,-1
 1262.60058594 2090.59960938 l 1,35,-1
 1541.80078125 2090.59960938 l 1,36,-1
 1541.80078125 567.400390625 l 1,37,-1
 1541.80078125 288.200195312 l 1,38,-1
 1262.60058594 288.200195312 l 1,27,-1
EndSplineSet
EndChar

StartChar: dollar
Encoding: 36 36 5
Width: 3405
VWidth: 1788
GlyphClass: 1
Flags: W
LayerCount: 2
Fore
SplineSet
2512.79980469 -17.7001953125 m 1,0,-1
 2792 -17.7001953125 l 1,1,-1
 2792 -472.900390625 l 1,2,-1
 2512.79980469 -472.900390625 l 1,3,-1
 2512.79980469 -472.099609375 l 1,4,-1
 885.599609375 -472.099609375 l 1,5,-1
 885.599609375 -472.900390625 l 1,6,-1
 606.399414062 -472.900390625 l 1,7,-1
 606.399414062 -17.7001953125 l 1,8,-1
 885.599609375 -17.7001953125 l 1,9,-1
 885.599609375 -193.700195312 l 1,10,-1
 2512.79980469 -193.700195312 l 1,11,-1
 2512.79980469 -17.7001953125 l 1,0,-1
2974.39941406 1975.90039062 m 1,12,-1
 3253.59960938 1975.90039062 l 1,13,-1
 3253.59960938 1696.70019531 l 1,14,-1
 3253.59960938 173.5 l 1,15,-1
 2974.39941406 173.5 l 1,16,-1
 2974.39941406 1696.70019531 l 1,17,-1
 2139.20019531 1696.70019531 l 1,18,-1
 2139.20019531 173.5 l 1,19,-1
 1860.79980469 173.5 l 1,20,-1
 1860.79980469 1696.70019531 l 1,21,-1
 1860.79980469 1975.90039062 l 1,22,-1
 2139.20019531 1975.90039062 l 1,23,-1
 2974.39941406 1975.90039062 l 1,12,-1
1544 1975.90039062 m 1,24,-1
 1544 1696.70019531 l 1,25,-1
 1544 452.700195312 l 1,26,-1
 1544 173.5 l 1,27,-1
 1265.59960938 173.5 l 1,28,-1
 431.200195312 173.5 l 1,29,-1
 152 173.5 l 1,30,-1
 152 452.700195312 l 1,31,-1
 152 1696.70019531 l 1,32,-1
 152 1975.90039062 l 1,33,-1
 431.200195312 1975.90039062 l 1,34,-1
 1265.59960938 1975.90039062 l 1,35,-1
 1544 1975.90039062 l 1,24,-1
431.200195312 452.700195312 m 1,36,-1
 1265.59960938 452.700195312 l 1,37,-1
 1265.59960938 1696.70019531 l 1,38,-1
 431.200195312 1696.70019531 l 1,39,-1
 431.200195312 452.700195312 l 1,36,-1
EndSplineSet
EndChar

StartChar: percent
Encoding: 37 37 6
Width: 3399
VWidth: 1782
GlyphClass: 1
Flags: W
LayerCount: 2
Fore
SplineSet
2513.79980469 -46.7001953125 m 1,0,-1
 2793 -46.7001953125 l 1,1,-1
 2793 -501.900390625 l 1,2,-1
 2513.79980469 -501.900390625 l 1,3,-1
 2513.79980469 -501.099609375 l 1,4,-1
 886.599609375 -501.099609375 l 1,5,-1
 886.599609375 -501.900390625 l 1,6,-1
 607.399414062 -501.900390625 l 1,7,-1
 607.399414062 -46.7001953125 l 1,8,-1
 886.599609375 -46.7001953125 l 1,9,-1
 886.599609375 -222.700195312 l 1,10,-1
 2513.79980469 -222.700195312 l 1,11,-1
 2513.79980469 -46.7001953125 l 1,0,-1
1266.59960938 1946.90039062 m 1,12,-1
 1545 1946.90039062 l 1,13,-1
 1545 1667.70019531 l 1,14,-1
 1545 144.5 l 1,15,-1
 1266.59960938 144.5 l 1,16,-1
 1266.59960938 1667.70019531 l 1,17,-1
 432.200195312 1667.70019531 l 1,18,-1
 432.200195312 144.5 l 1,19,-1
 153 144.5 l 1,20,-1
 153 1667.70019531 l 1,21,-1
 153 1946.90039062 l 1,22,-1
 432.200195312 1946.90039062 l 1,23,-1
 1266.59960938 1946.90039062 l 1,12,-1
2968.20019531 144.5 m 1,24,-1
 2133 144.5 l 1,25,-1
 1854.59960938 144.5 l 1,26,-1
 1854.59960938 423.700195312 l 1,27,-1
 1854.59960938 1946.90039062 l 1,28,-1
 2133 1946.90039062 l 1,29,-1
 2133 423.700195312 l 1,30,-1
 2968.20019531 423.700195312 l 1,31,-1
 2968.20019531 1946.90039062 l 1,32,-1
 3246.59960938 1946.90039062 l 1,33,-1
 3246.59960938 423.700195312 l 1,34,-1
 3246.59960938 144.5 l 1,35,-1
 2968.20019531 144.5 l 1,24,-1
EndSplineSet
EndChar

StartChar: ampersand
Encoding: 38 38 7
Width: 1690
VWidth: 1926
GlyphClass: 1
Flags: W
LayerCount: 2
Fore
SplineSet
1262.60058594 2090.59960938 m 1,0,-1
 1541.80078125 2090.59960938 l 1,1,-1
 1541.80078125 1811.40039062 l 1,2,-1
 1541.80078125 288.200195312 l 1,3,-1
 1262.60058594 288.200195312 l 1,4,-1
 1262.60058594 1811.40039062 l 1,5,-1
 428.200195312 1811.40039062 l 1,6,-1
 428.200195312 288.200195312 l 1,7,-1
 149 288.200195312 l 1,8,-1
 149 1811.40039062 l 1,9,-1
 149 2090.59960938 l 1,10,-1
 428.200195312 2090.59960938 l 1,11,-1
 1262.60058594 2090.59960938 l 1,0,-1
845 2186.59960938 m 256,12,13
 761 2186.59960938 761 2186.59960938 701 2246.59960938 c 0,14,15
 641.80078125 2307.40039062 641.80078125 2307.40039062 641.80078125 2390.59960938 c 128,-1,16
 641.80078125 2473.79980469 641.80078125 2473.79980469 701 2534.59960938 c 0,17,18
 761.80078125 2593.79980469 761.80078125 2593.79980469 845 2593.79980469 c 128,-1,19
 928.200195312 2593.79980469 928.200195312 2593.79980469 989 2534.59960938 c 0,20,21
 1049 2474.59960938 1049 2474.59960938 1049 2390.59960938 c 256,22,23
 1049 2306.59960938 1049 2306.59960938 989 2246.59960938 c 128,-1,24
 929 2186.59960938 929 2186.59960938 845 2186.59960938 c 256,12,13
EndSplineSet
EndChar

StartChar: quotesingle
Encoding: 39 39 8
Width: 882
VWidth: 2015
GlyphClass: 1
Flags: W
LayerCount: 2
Fore
SplineSet
442.200195312 1588.79980469 m 0,0,1
 319.799804688 1588.79980469 319.799804688 1588.79980469 233.399414062 1675.20019531 c 128,-1,2
 147 1761.59960938 147 1761.59960938 147 1884 c 0,3,4
 147 2005.59960938 147 2005.59960938 233.399414062 2092.40039062 c 128,-1,5
 319.799804688 2179.20019531 319.799804688 2179.20019531 442.200195312 2179.20019531 c 0,6,7
 563.799804688 2179.20019531 563.799804688 2179.20019531 650.200195312 2092.40039062 c 128,-1,8
 736.599609375 2005.59960938 736.599609375 2005.59960938 736.599609375 1884 c 0,9,10
 736.599609375 1761.59960938 736.599609375 1761.59960938 650.200195312 1675.20019531 c 128,-1,11
 563.799804688 1588.79980469 563.799804688 1588.79980469 442.200195312 1588.79980469 c 0,0,1
442.200195312 1676.79980469 m 0,12,13
 527.799804688 1676.79980469 527.799804688 1676.79980469 588.599609375 1737.20019531 c 128,-1,14
 649.399414062 1797.59960938 649.399414062 1797.59960938 649.399414062 1884 c 0,15,16
 649.399414062 1969.59960938 649.399414062 1969.59960938 588.599609375 2030.40039062 c 128,-1,17
 527.799804688 2091.20019531 527.799804688 2091.20019531 442.200195312 2091.20019531 c 0,18,19
 355.799804688 2091.20019531 355.799804688 2091.20019531 295 2030.40039062 c 128,-1,20
 234.200195312 1969.59960938 234.200195312 1969.59960938 234.200195312 1884 c 0,21,22
 234.200195312 1797.59960938 234.200195312 1797.59960938 295 1737.20019531 c 128,-1,23
 355.799804688 1676.79980469 355.799804688 1676.79980469 442.200195312 1676.79980469 c 0,12,13
EndSplineSet
EndChar

StartChar: parenleft
Encoding: 40 40 9
Width: 1680
VWidth: 1926
GlyphClass: 1
Flags: W
LayerCount: 2
Fore
SplineSet
835 2186.59960938 m 256,0,1
 751 2186.59960938 751 2186.59960938 691 2246.59960938 c 0,2,3
 631.80078125 2307.40039062 631.80078125 2307.40039062 631.80078125 2390.59960938 c 128,-1,4
 631.80078125 2473.79980469 631.80078125 2473.79980469 691 2534.59960938 c 0,5,6
 751.80078125 2593.79980469 751.80078125 2593.79980469 835 2593.79980469 c 128,-1,7
 918.200195312 2593.79980469 918.200195312 2593.79980469 979 2534.59960938 c 0,8,9
 1039 2474.59960938 1039 2474.59960938 1039 2390.59960938 c 256,10,11
 1039 2306.59960938 1039 2306.59960938 979 2246.59960938 c 128,-1,12
 919 2186.59960938 919 2186.59960938 835 2186.59960938 c 256,0,1
1531.80078125 2090.59960938 m 1,13,-1
 1531.80078125 1811.40039062 l 1,14,-1
 1531.80078125 567.400390625 l 1,15,-1
 1531.80078125 288.200195312 l 1,16,-1
 1252.60058594 288.200195312 l 1,17,-1
 139 288.200195312 l 1,18,-1
 139 567.400390625 l 1,19,-1
 1252.60058594 567.400390625 l 1,20,-1
 1252.60058594 1811.40039062 l 1,21,-1
 139 1811.40039062 l 1,22,-1
 139 2090.59960938 l 1,23,-1
 1252.60058594 2090.59960938 l 1,24,-1
 1531.80078125 2090.59960938 l 1,13,-1
EndSplineSet
EndChar

StartChar: parenright
Encoding: 41 41 10
Width: 1680
VWidth: 1926
GlyphClass: 1
Flags: W
LayerCount: 2
Fore
SplineSet
835 2186.59960938 m 256,0,1
 751 2186.59960938 751 2186.59960938 691 2246.59960938 c 0,2,3
 631.80078125 2307.40039062 631.80078125 2307.40039062 631.80078125 2390.59960938 c 128,-1,4
 631.80078125 2473.79980469 631.80078125 2473.79980469 691 2534.59960938 c 0,5,6
 751.80078125 2593.79980469 751.80078125 2593.79980469 835 2593.79980469 c 128,-1,7
 918.200195312 2593.79980469 918.200195312 2593.79980469 979 2534.59960938 c 0,8,9
 1039 2474.59960938 1039 2474.59960938 1039 2390.59960938 c 256,10,11
 1039 2306.59960938 1039 2306.59960938 979 2246.59960938 c 128,-1,12
 919 2186.59960938 919 2186.59960938 835 2186.59960938 c 256,0,1
1531.80078125 2090.59960938 m 1,13,-1
 1531.80078125 1811.40039062 l 1,14,-1
 1531.80078125 567.400390625 l 1,15,-1
 1531.80078125 288.200195312 l 1,16,-1
 1252.60058594 288.200195312 l 1,17,-1
 139 288.200195312 l 1,18,-1
 139 567.400390625 l 1,19,-1
 1252.60058594 567.400390625 l 1,20,-1
 1252.60058594 1811.40039062 l 1,21,-1
 139 1811.40039062 l 1,22,-1
 139 2090.59960938 l 1,23,-1
 1252.60058594 2090.59960938 l 1,24,-1
 1531.80078125 2090.59960938 l 1,13,-1
835 985.799804688 m 256,25,26
 751.80078125 985.799804688 751.80078125 985.799804688 691 1045 c 0,27,28
 631.80078125 1105.79980469 631.80078125 1105.79980469 631.80078125 1189 c 128,-1,29
 631.80078125 1272.20019531 631.80078125 1272.20019531 691 1333 c 0,30,31
 751 1393 751 1393 835 1393 c 256,32,33
 919 1393 919 1393 979 1333 c 128,-1,34
 1039 1273 1039 1273 1039 1189 c 256,35,36
 1039 1105 1039 1105 979 1045 c 0,37,38
 918.200195312 985.799804688 918.200195312 985.799804688 835 985.799804688 c 256,25,26
EndSplineSet
EndChar

StartChar: asterisk
Encoding: 42 42 11
Width: 1439
VWidth: 1761
GlyphClass: 1
Flags: W
LayerCount: 2
Fore
SplineSet
804.200195312 650.400390625 m 1,0,-1
 804.200195312 123.200195312 l 1,1,-1
 635.399414062 123.200195312 l 1,2,-1
 635.399414062 650.400390625 l 1,3,-1
 485 428.799804688 l 1,4,-1
 277.799804688 123.200195312 l 1,5,-1
 45 123.200195312 l 1,6,-1
 382.599609375 616 l 1,7,-1
 719.399414062 1108.79980469 l 1,8,-1
 1057 616 l 1,9,-1
 1394.59960938 123.200195312 l 1,10,-1
 1161.79980469 123.200195312 l 1,11,-1
 954.599609375 428.799804688 l 1,12,-1
 804.200195312 650.400390625 l 1,0,-1
EndSplineSet
EndChar

StartChar: plus
Encoding: 43 43 12
Width: 1439
VWidth: 1761
GlyphClass: 1
Flags: W
LayerCount: 2
Fore
SplineSet
719.399414062 1108.79980469 m 1,0,-1
 1057 616 l 1,1,-1
 1394.59960938 123.200195312 l 1,2,-1
 1161.79980469 123.200195312 l 1,3,-1
 954.599609375 428.799804688 l 1,4,-1
 719.399414062 775.200195312 l 1,5,-1
 485 428.799804688 l 1,6,-1
 277.799804688 123.200195312 l 1,7,-1
 45 123.200195312 l 1,8,-1
 382.599609375 616 l 1,9,-1
 719.399414062 1108.79980469 l 1,0,-1
EndSplineSet
EndChar

StartChar: comma
Encoding: 44 44 13
Width: 861
VWidth: 1712
GlyphClass: 1
Flags: W
LayerCount: 2
Fore
SplineSet
430.200195312 73.7001953125 m 0,0,1
 307.799804688 73.7001953125 307.799804688 73.7001953125 221.399414062 160.099609375 c 128,-1,2
 135 246.5 135 246.5 135 368.900390625 c 0,3,4
 135 490.5 135 490.5 221.399414062 576.900390625 c 128,-1,5
 307.799804688 663.299804688 307.799804688 663.299804688 430.200195312 663.299804688 c 0,6,7
 551.799804688 663.299804688 551.799804688 663.299804688 638.200195312 576.900390625 c 128,-1,8
 724.599609375 490.5 724.599609375 490.5 724.599609375 368.900390625 c 0,9,10
 724.599609375 246.5 724.599609375 246.5 638.200195312 160.099609375 c 128,-1,11
 551.799804688 73.7001953125 551.799804688 73.7001953125 430.200195312 73.7001953125 c 0,0,1
EndSplineSet
EndChar

StartChar: hyphen
Encoding: 45 45 14
Width: 1530
VWidth: 1761
GlyphClass: 1
Flags: W
LayerCount: 2
Fore
SplineSet
767.399414062 123.200195312 m 1,0,-1
 430.599609375 616 l 1,1,-1
 93 1108.79980469 l 1,2,-1
 325.799804688 1108.79980469 l 1,3,-1
 533 803.200195312 l 1,4,-1
 767.399414062 456.799804688 l 1,5,-1
 1002.59960938 803.200195312 l 1,6,-1
 1209.79980469 1108.79980469 l 1,7,-1
 1442.59960938 1108.79980469 l 1,8,-1
 1105 616 l 1,9,-1
 767.399414062 123.200195312 l 1,0,-1
EndSplineSet
EndChar

StartChar: period
Encoding: 46 46 15
Width: 861
VWidth: 1713
GlyphClass: 1
Flags: W
LayerCount: 2
Fore
SplineSet
430.200195312 78.7001953125 m 0,0,1
 307.799804688 78.7001953125 307.799804688 78.7001953125 221.399414062 165.099609375 c 128,-1,2
 135 251.5 135 251.5 135 373.900390625 c 0,3,4
 135 495.5 135 495.5 221.399414062 581.900390625 c 128,-1,5
 307.799804688 668.299804688 307.799804688 668.299804688 430.200195312 668.299804688 c 0,6,7
 551.799804688 668.299804688 551.799804688 668.299804688 638.200195312 581.900390625 c 128,-1,8
 724.599609375 495.5 724.599609375 495.5 724.599609375 373.900390625 c 0,9,10
 724.599609375 251.5 724.599609375 251.5 638.200195312 165.099609375 c 128,-1,11
 551.799804688 78.7001953125 551.799804688 78.7001953125 430.200195312 78.7001953125 c 0,0,1
432.599609375 165.099609375 m 0,12,13
 518.200195312 165.099609375 518.200195312 165.099609375 579 225.900390625 c 128,-1,14
 639.799804688 286.700195312 639.799804688 286.700195312 639.799804688 373.099609375 c 0,15,16
 639.799804688 458.700195312 639.799804688 458.700195312 579 519.5 c 128,-1,17
 518.200195312 580.299804688 518.200195312 580.299804688 432.599609375 580.299804688 c 0,18,19
 346.200195312 580.299804688 346.200195312 580.299804688 285.399414062 519.5 c 128,-1,20
 224.599609375 458.700195312 224.599609375 458.700195312 224.599609375 373.099609375 c 0,21,22
 224.599609375 286.700195312 224.599609375 286.700195312 285.399414062 225.900390625 c 128,-1,23
 346.200195312 165.099609375 346.200195312 165.099609375 432.599609375 165.099609375 c 0,12,13
EndSplineSet
EndChar

StartChar: slash
Encoding: 47 47 16
Width: 1530
VWidth: 1761
GlyphClass: 1
Flags: W
LayerCount: 2
Fore
SplineSet
852.200195312 581.599609375 m 1,0,-1
 1002.59960938 803.200195312 l 1,1,-1
 1209.79980469 1108.79980469 l 1,2,-1
 1442.59960938 1108.79980469 l 1,3,-1
 1105 616 l 1,4,-1
 767.399414062 123.200195312 l 1,5,-1
 430.599609375 616 l 1,6,-1
 93 1108.79980469 l 1,7,-1
 325.799804688 1108.79980469 l 1,8,-1
 533 803.200195312 l 1,9,-1
 683.399414062 581.599609375 l 1,10,-1
 683.399414062 1108.79980469 l 1,11,-1
 852.200195312 1108.79980469 l 1,12,-1
 852.200195312 581.599609375 l 1,0,-1
EndSplineSet
EndChar

StartChar: zero
Encoding: 48 48 17
Width: 1692
VWidth: 1863
GlyphClass: 1
Flags: W
LayerCount: 2
Fore
SplineSet
150 986.900390625 m 5,0,-1
 150 1265.29980469 l 5,1,-1
 150 1749.29980469 l 5,2,-1
 150 2027.70019531 l 5,3,-1
 428.400390625 2027.70019531 l 5,4,-1
 1264.40039062 2027.70019531 l 5,5,-1
 1542.80078125 2027.70019531 l 5,6,-1
 1542.80078125 1749.29980469 l 5,7,-1
 1542.80078125 1265.29980469 l 5,8,-1
 1542.80078125 986.900390625 l 5,9,-1
 1542.80078125 503.700195312 l 5,10,-1
 1542.80078125 225.299804688 l 5,11,-1
 1264.40039062 225.299804688 l 5,12,-1
 428.400390625 225.299804688 l 5,13,-1
 150 225.299804688 l 5,14,-1
 150 503.700195312 l 5,15,-1
 150 986.900390625 l 5,0,-1
428.400390625 1265.29980469 m 5,16,-1
 1264.40039062 1265.29980469 l 5,17,-1
 1264.40039062 1749.29980469 l 5,18,-1
 428.400390625 1749.29980469 l 5,19,-1
 428.400390625 1265.29980469 l 5,16,-1
1264.40039062 986.900390625 m 5,20,-1
 428.400390625 986.900390625 l 5,21,-1
 428.400390625 503.700195312 l 5,22,-1
 1264.40039062 503.700195312 l 5,23,-1
 1264.40039062 986.900390625 l 5,20,-1
EndSplineSet
EndChar

StartChar: one
Encoding: 49 49 18
Width: 1692
VWidth: 1863
GlyphClass: 1
Flags: W
LayerCount: 2
Fore
SplineSet
150 225.299804688 m 1,0,-1
 150 503.700195312 l 1,1,-1
 150 986.900390625 l 1,2,-1
 150 1265.29980469 l 1,3,-1
 150 2027.70019531 l 1,4,-1
 428.400390625 2027.70019531 l 1,5,-1
 428.400390625 1265.29980469 l 1,6,-1
 1264.40039062 1265.29980469 l 1,7,-1
 1264.40039062 2027.70019531 l 1,8,-1
 1542.80078125 2027.70019531 l 1,9,-1
 1542.80078125 1265.29980469 l 1,10,-1
 1542.80078125 986.900390625 l 1,11,-1
 1542.80078125 503.700195312 l 1,12,-1
 1542.80078125 225.299804688 l 1,13,-1
 1264.40039062 225.299804688 l 1,14,-1
 428.400390625 225.299804688 l 1,15,-1
 150 225.299804688 l 1,0,-1
428.400390625 503.700195312 m 1,16,-1
 1264.40039062 503.700195312 l 1,17,-1
 1264.40039062 986.900390625 l 1,18,-1
 428.400390625 986.900390625 l 1,19,-1
 428.400390625 503.700195312 l 1,16,-1
EndSplineSet
EndChar

StartChar: two
Encoding: 50 50 19
Width: 1675
VWidth: 1863
GlyphClass: 1
Flags: W
LayerCount: 2
Fore
SplineSet
133 346.900390625 m 1,0,1
 153.80078125 375.700195312 153.80078125 375.700195312 189 431.700195312 c 128,-1,2
 224.200195312 487.700195312 224.200195312 487.700195312 234.600585938 503.700195312 c 2,3,-1
 1033.80078125 1749.29980469 l 1,4,-1
 133 1749.29980469 l 1,5,-1
 133 2027.70019531 l 1,6,-1
 1525.80078125 2027.70019531 l 1,7,-1
 1525.80078125 225.299804688 l 1,8,-1
 133 225.299804688 l 1,9,-1
 133 346.900390625 l 1,0,1
529.80078125 503.700195312 m 1,10,-1
 1247.40039062 503.700195312 l 1,11,-1
 1247.40039062 1622.90039062 l 1,12,-1
 529.80078125 503.700195312 l 1,10,-1
EndSplineSet
EndChar

StartChar: three
Encoding: 51 51 20
Width: 1686
VWidth: 1863
GlyphClass: 1
Flags: W
LayerCount: 2
Fore
SplineSet
144 225.299804688 m 1,0,-1
 144 503.700195312 l 1,1,-1
 1256.80078125 503.700195312 l 1,2,-1
 1256.80078125 986.900390625 l 1,3,-1
 144 986.900390625 l 1,4,-1
 144 1265.29980469 l 1,5,-1
 1256.80078125 1265.29980469 l 1,6,-1
 1256.80078125 2027.70019531 l 1,7,-1
 1536.80078125 2027.70019531 l 1,8,-1
 1536.80078125 1265.29980469 l 1,9,-1
 1536.80078125 986.900390625 l 1,10,-1
 1536.80078125 503.700195312 l 1,11,-1
 1536.80078125 225.299804688 l 1,12,-1
 1256.80078125 225.299804688 l 1,13,-1
 144 225.299804688 l 1,0,-1
EndSplineSet
EndChar

StartChar: four
Encoding: 52 52 21
Width: 1685
VWidth: 1863
GlyphClass: 1
Flags: W
LayerCount: 2
Fore
SplineSet
143 1126.09960938 m 1,0,-1
 143 1265.29980469 l 1,1,-1
 1255.80078125 1265.29980469 l 1,2,-1
 1255.80078125 2027.70019531 l 1,3,-1
 1535.80078125 2027.70019531 l 1,4,-1
 1535.80078125 1265.29980469 l 1,5,-1
 1535.80078125 986.900390625 l 1,6,-1
 1535.80078125 225.299804688 l 1,7,-1
 1255.80078125 225.299804688 l 1,8,-1
 1255.80078125 986.900390625 l 1,9,-1
 421.400390625 986.900390625 l 1,10,-1
 421.400390625 225.299804688 l 1,11,-1
 143 225.299804688 l 1,12,-1
 143 986.900390625 l 1,13,-1
 143 1126.09960938 l 1,0,-1
EndSplineSet
EndChar

StartChar: five
Encoding: 53 53 22
Width: 1689
VWidth: 1863
GlyphClass: 1
Flags: W
LayerCount: 2
Fore
SplineSet
1542.80078125 225.299804688 m 1,0,-1
 428.400390625 225.299804688 l 1,1,-1
 150 225.299804688 l 1,2,-1
 150 503.700195312 l 1,3,-1
 150 986.900390625 l 1,4,-1
 150 1265.29980469 l 1,5,-1
 150 2027.70019531 l 1,6,-1
 428.400390625 2027.70019531 l 1,7,-1
 428.400390625 1265.29980469 l 1,8,-1
 1542.80078125 1265.29980469 l 1,9,-1
 1542.80078125 986.900390625 l 1,10,-1
 428.400390625 986.900390625 l 1,11,-1
 428.400390625 503.700195312 l 1,12,-1
 1542.80078125 503.700195312 l 1,13,-1
 1542.80078125 225.299804688 l 1,0,-1
EndSplineSet
EndChar

StartChar: six
Encoding: 54 54 23
Width: 1675
VWidth: 1863
GlyphClass: 1
Flags: W
LayerCount: 2
Fore
SplineSet
1441.20019531 503.700195312 m 2,0,1
 1455.60058594 482.099609375 1455.60058594 482.099609375 1489.20019531 428.5 c 128,-1,2
 1522.80078125 374.900390625 1522.80078125 374.900390625 1542.80078125 346.900390625 c 1,3,-1
 1542.80078125 225.299804688 l 1,4,-1
 150 225.299804688 l 1,5,-1
 150 2027.70019531 l 1,6,-1
 1542.80078125 2027.70019531 l 1,7,-1
 1542.80078125 1749.29980469 l 1,8,-1
 641.200195312 1749.29980469 l 1,9,-1
 1441.20019531 503.700195312 l 2,0,1
1146 503.700195312 m 1,10,-1
 428.400390625 1622.90039062 l 1,11,-1
 428.400390625 503.700195312 l 1,12,-1
 1146 503.700195312 l 1,10,-1
EndSplineSet
EndChar

StartChar: seven
Encoding: 55 55 24
Width: 1665
VWidth: 1863
GlyphClass: 1
Flags: W
LayerCount: 2
Fore
SplineSet
1542.80078125 2027.70019531 m 1,0,-1
 1542.80078125 1747.70019531 l 1,1,-1
 428.400390625 1747.70019531 l 1,2,-1
 428.400390625 225.299804688 l 1,3,-1
 150 225.299804688 l 1,4,-1
 150 1747.70019531 l 1,5,-1
 150 2027.70019531 l 1,6,-1
 428.400390625 2027.70019531 l 1,7,-1
 1542.80078125 2027.70019531 l 1,0,-1
EndSplineSet
EndChar

StartChar: eight
Encoding: 56 56 25
Width: 1692
VWidth: 1863
GlyphClass: 1
Flags: W
LayerCount: 2
Fore
SplineSet
150 2027.70019531 m 1,0,-1
 428.400390625 2027.70019531 l 1,1,-1
 1264.40039062 2027.70019531 l 1,2,-1
 1542.80078125 2027.70019531 l 1,3,-1
 1542.80078125 1747.70019531 l 1,4,-1
 1542.80078125 1265.29980469 l 1,5,-1
 1542.80078125 986.900390625 l 1,6,-1
 1542.80078125 225.299804688 l 1,7,-1
 1264.40039062 225.299804688 l 1,8,-1
 1264.40039062 986.900390625 l 1,9,-1
 428.400390625 986.900390625 l 1,10,-1
 428.400390625 225.299804688 l 1,11,-1
 150 225.299804688 l 1,12,-1
 150 986.900390625 l 1,13,-1
 150 1265.29980469 l 1,14,-1
 150 1747.70019531 l 1,15,-1
 150 2027.70019531 l 1,0,-1
428.400390625 1747.70019531 m 1,16,-1
 428.400390625 1265.29980469 l 1,17,-1
 1264.40039062 1265.29980469 l 1,18,-1
 1264.40039062 1747.70019531 l 1,19,-1
 428.400390625 1747.70019531 l 1,16,-1
EndSplineSet
EndChar

StartChar: nine
Encoding: 57 57 26
Width: 1688
VWidth: 1863
GlyphClass: 1
Flags: W
LayerCount: 2
Fore
SplineSet
1542.80078125 1126.09960938 m 1,0,-1
 1542.80078125 986.900390625 l 1,1,-1
 1542.80078125 225.299804688 l 1,2,-1
 1264.40039062 225.299804688 l 1,3,-1
 1264.40039062 986.900390625 l 1,4,-1
 985.200195312 986.900390625 l 1,5,-1
 985.200195312 225.299804688 l 1,6,-1
 706.80078125 225.299804688 l 1,7,-1
 706.80078125 986.900390625 l 1,8,-1
 428.400390625 986.900390625 l 1,9,-1
 428.400390625 225.299804688 l 1,10,-1
 150 225.299804688 l 1,11,-1
 150 986.900390625 l 1,12,-1
 150 1265.29980469 l 1,13,-1
 150 2027.70019531 l 1,14,-1
 428.400390625 2027.70019531 l 1,15,-1
 428.400390625 1265.29980469 l 1,16,-1
 1542.80078125 1265.29980469 l 1,17,-1
 1542.80078125 1126.09960938 l 1,0,-1
EndSplineSet
EndChar

StartChar: semicolon
Encoding: 59 59 27
Width: 1692
VWidth: 1863
GlyphClass: 1
Flags: W
LayerCount: 2
Fore
SplineSet
846 922.900390625 m 0,0,1
 761.200195312 922.900390625 761.200195312 922.900390625 702 982.099609375 c 128,-1,2
 642.80078125 1041.29980469 642.80078125 1041.29980469 642.80078125 1126.09960938 c 0,3,4
 642.80078125 1211.70019531 642.80078125 1211.70019531 702 1270.90039062 c 0,5,6
 760.400390625 1329.29980469 760.400390625 1329.29980469 846 1329.29980469 c 0,7,8
 932.400390625 1329.29980469 932.400390625 1329.29980469 990.80078125 1270.90039062 c 128,-1,9
 1049.20019531 1212.5 1049.20019531 1212.5 1049.20019531 1126.09960938 c 0,10,11
 1049.20019531 1040.5 1049.20019531 1040.5 990.80078125 982.099609375 c 0,12,13
 931.600585938 922.900390625 931.600585938 922.900390625 846 922.900390625 c 0,0,1
1264.40039062 225.299804688 m 1,14,-1
 428.400390625 225.299804688 l 1,15,-1
 150 225.299804688 l 1,16,-1
 150 503.700195312 l 1,17,-1
 150 2027.70019531 l 1,18,-1
 428.400390625 2027.70019531 l 1,19,-1
 428.400390625 503.700195312 l 1,20,-1
 1264.40039062 503.700195312 l 1,21,-1
 1264.40039062 2027.70019531 l 1,22,-1
 1542.80078125 2027.70019531 l 1,23,-1
 1542.80078125 503.700195312 l 1,24,-1
 1542.80078125 225.299804688 l 1,25,-1
 1264.40039062 225.299804688 l 1,14,-1
EndSplineSet
EndChar

StartChar: less
Encoding: 60 60 28
Width: 3393
VWidth: 1851
GlyphClass: 1
Flags: W
LayerCount: 2
Fore
SplineSet
1696.39941406 2134.79980469 m 256,0,1
 1612.39941406 2134.79980469 1612.39941406 2134.79980469 1552.39941406 2194.79980469 c 0,2,3
 1493.20019531 2255.59960938 1493.20019531 2255.59960938 1493.20019531 2338.79980469 c 0,4,5
 1493.20019531 2422.79980469 1493.20019531 2422.79980469 1552.39941406 2482 c 0,6,7
 1612.39941406 2542 1612.39941406 2542 1696.39941406 2542 c 256,8,9
 1780.39941406 2542 1780.39941406 2542 1840.39941406 2482 c 0,10,11
 1900.39941406 2422.79980469 1900.39941406 2422.79980469 1900.39941406 2338.79980469 c 128,-1,12
 1900.39941406 2254.79980469 1900.39941406 2254.79980469 1840.39941406 2194.79980469 c 128,-1,13
 1780.39941406 2134.79980469 1780.39941406 2134.79980469 1696.39941406 2134.79980469 c 256,0,1
2510.79980469 45.2001953125 m 1,14,-1
 2790 45.2001953125 l 1,15,-1
 2790 -410 l 1,16,-1
 2510.79980469 -410 l 1,17,-1
 2510.79980469 -409.200195312 l 1,18,-1
 883.599609375 -409.200195312 l 1,19,-1
 883.599609375 -410 l 1,20,-1
 604.399414062 -410 l 1,21,-1
 604.399414062 45.2001953125 l 1,22,-1
 883.599609375 45.2001953125 l 1,23,-1
 883.599609375 -130.799804688 l 1,24,-1
 2510.79980469 -130.799804688 l 1,25,-1
 2510.79980469 45.2001953125 l 1,14,-1
1263.59960938 2038.79980469 m 1,26,-1
 1542 2038.79980469 l 1,27,-1
 1542 1759.59960938 l 1,28,-1
 1542 236.400390625 l 1,29,-1
 1263.59960938 236.400390625 l 1,30,-1
 1263.59960938 1759.59960938 l 1,31,-1
 429.200195312 1759.59960938 l 1,32,-1
 429.200195312 236.400390625 l 1,33,-1
 150 236.400390625 l 1,34,-1
 150 1759.59960938 l 1,35,-1
 150 2038.79980469 l 1,36,-1
 429.200195312 2038.79980469 l 1,37,-1
 1263.59960938 2038.79980469 l 1,26,-1
3243.59960938 2038.79980469 m 1,38,-1
 3243.59960938 1759.59960938 l 1,39,-1
 3243.59960938 515.599609375 l 1,40,-1
 3243.59960938 236.400390625 l 1,41,-1
 2965.20019531 236.400390625 l 1,42,-1
 1851.59960938 236.400390625 l 1,43,-1
 1851.59960938 515.599609375 l 1,44,-1
 2965.20019531 515.599609375 l 1,45,-1
 2965.20019531 1759.59960938 l 1,46,-1
 1851.59960938 1759.59960938 l 1,47,-1
 1851.59960938 2038.79980469 l 1,48,-1
 2965.20019531 2038.79980469 l 1,49,-1
 3243.59960938 2038.79980469 l 1,38,-1
EndSplineSet
EndChar

StartChar: equal
Encoding: 61 61 29
Width: 1199
VWidth: 1859
GlyphClass: 1
Flags: W
LayerCount: 2
Fore
SplineSet
1064.59960938 954.299804688 m 1,0,-1
 143 954.299804688 l 1,1,-1
 143 1252.70019531 l 1,2,-1
 1064.59960938 1252.70019531 l 1,3,-1
 1064.59960938 954.299804688 l 1,0,-1
EndSplineSet
EndChar

StartChar: greater
Encoding: 62 62 30
Width: 3393
VWidth: 1851
GlyphClass: 1
Flags: W
LayerCount: 2
Fore
SplineSet
1696.39941406 2134.79980469 m 256,0,1
 1612.39941406 2134.79980469 1612.39941406 2134.79980469 1553.20019531 2194.79980469 c 0,2,3
 1493.20019531 2254.79980469 1493.20019531 2254.79980469 1493.20019531 2338.79980469 c 256,4,5
 1493.20019531 2422.79980469 1493.20019531 2422.79980469 1553.20019531 2482 c 0,6,7
 1612.39941406 2542 1612.39941406 2542 1696.39941406 2542 c 128,-1,8
 1780.39941406 2542 1780.39941406 2542 1840.39941406 2482 c 0,9,10
 1900.39941406 2422.79980469 1900.39941406 2422.79980469 1900.39941406 2338.79980469 c 128,-1,11
 1900.39941406 2254.79980469 1900.39941406 2254.79980469 1840.39941406 2194.79980469 c 128,-1,12
 1780.39941406 2134.79980469 1780.39941406 2134.79980469 1696.39941406 2134.79980469 c 256,0,1
2510.79980469 45.2001953125 m 1,13,-1
 2790 45.2001953125 l 1,14,-1
 2790 -410 l 1,15,-1
 2510.79980469 -410 l 1,16,-1
 2510.79980469 -409.200195312 l 1,17,-1
 883.599609375 -409.200195312 l 1,18,-1
 883.599609375 -410 l 1,19,-1
 604.399414062 -410 l 1,20,-1
 604.399414062 45.2001953125 l 1,21,-1
 883.599609375 45.2001953125 l 1,22,-1
 883.599609375 -130.799804688 l 1,23,-1
 2510.79980469 -130.799804688 l 1,24,-1
 2510.79980469 45.2001953125 l 1,13,-1
3243.59960938 2038.79980469 m 1,25,-1
 3243.59960938 1759.59960938 l 1,26,-1
 3243.59960938 515.599609375 l 1,27,-1
 3243.59960938 236.400390625 l 1,28,-1
 2965.20019531 236.400390625 l 1,29,-1
 1851.59960938 236.400390625 l 1,30,-1
 1851.59960938 515.599609375 l 1,31,-1
 2965.20019531 515.599609375 l 1,32,-1
 2965.20019531 1759.59960938 l 1,33,-1
 1851.59960938 1759.59960938 l 1,34,-1
 1851.59960938 2038.79980469 l 1,35,-1
 2965.20019531 2038.79980469 l 1,36,-1
 3243.59960938 2038.79980469 l 1,25,-1
1542 2038.79980469 m 1,37,-1
 1542 1759.59960938 l 1,38,-1
 1542 515.599609375 l 1,39,-1
 1542 236.400390625 l 1,40,-1
 1263.59960938 236.400390625 l 1,41,-1
 429.200195312 236.400390625 l 1,42,-1
 150 236.400390625 l 1,43,-1
 150 515.599609375 l 1,44,-1
 150 1759.59960938 l 1,45,-1
 150 2038.79980469 l 1,46,-1
 429.200195312 2038.79980469 l 1,47,-1
 1263.59960938 2038.79980469 l 1,48,-1
 1542 2038.79980469 l 1,37,-1
429.200195312 515.599609375 m 1,49,-1
 1263.59960938 515.599609375 l 1,50,-1
 1263.59960938 1759.59960938 l 1,51,-1
 429.200195312 1759.59960938 l 1,52,-1
 429.200195312 515.599609375 l 1,49,-1
EndSplineSet
EndChar

StartChar: question
Encoding: 63 63 31
Width: 852
VWidth: 1863
GlyphClass: 1
Flags: W
LayerCount: 2
Fore
SplineSet
427.200195312 1437.29980469 m 0,0,1
 304.799804688 1437.29980469 304.799804688 1437.29980469 218.399414062 1523.70019531 c 128,-1,2
 132 1610.09960938 132 1610.09960938 132 1732.5 c 0,3,4
 132 1854.09960938 132 1854.09960938 218.399414062 1940.90039062 c 128,-1,5
 304.799804688 2027.70019531 304.799804688 2027.70019531 427.200195312 2027.70019531 c 0,6,7
 548.799804688 2027.70019531 548.799804688 2027.70019531 635.200195312 1940.90039062 c 128,-1,8
 721.599609375 1854.09960938 721.599609375 1854.09960938 721.599609375 1732.5 c 0,9,10
 721.599609375 1610.09960938 721.599609375 1610.09960938 635.200195312 1523.70019531 c 128,-1,11
 548.799804688 1437.29980469 548.799804688 1437.29980469 427.200195312 1437.29980469 c 0,0,1
427.200195312 225.299804688 m 0,12,13
 304.799804688 225.299804688 304.799804688 225.299804688 218.399414062 311.700195312 c 128,-1,14
 132 398.099609375 132 398.099609375 132 520.5 c 0,15,16
 132 642.099609375 132 642.099609375 218.399414062 728.5 c 128,-1,17
 304.799804688 814.900390625 304.799804688 814.900390625 427.200195312 814.900390625 c 0,18,19
 548.799804688 814.900390625 548.799804688 814.900390625 635.200195312 728.5 c 128,-1,20
 721.599609375 642.099609375 721.599609375 642.099609375 721.599609375 520.5 c 0,21,22
 721.599609375 398.099609375 721.599609375 398.099609375 635.200195312 311.700195312 c 128,-1,23
 548.799804688 225.299804688 548.799804688 225.299804688 427.200195312 225.299804688 c 0,12,13
427.200195312 1525.29980469 m 0,24,25
 512.799804688 1525.29980469 512.799804688 1525.29980469 573.599609375 1585.70019531 c 128,-1,26
 634.399414062 1646.09960938 634.399414062 1646.09960938 634.399414062 1732.5 c 0,27,28
 634.399414062 1818.09960938 634.399414062 1818.09960938 573.599609375 1878.90039062 c 128,-1,29
 512.799804688 1939.70019531 512.799804688 1939.70019531 427.200195312 1939.70019531 c 0,30,31
 340.799804688 1939.70019531 340.799804688 1939.70019531 280 1878.90039062 c 128,-1,32
 219.200195312 1818.09960938 219.200195312 1818.09960938 219.200195312 1732.5 c 0,33,34
 219.200195312 1646.09960938 219.200195312 1646.09960938 280 1585.70019531 c 128,-1,35
 340.799804688 1525.29980469 340.799804688 1525.29980469 427.200195312 1525.29980469 c 0,24,25
EndSplineSet
EndChar

StartChar: at
Encoding: 64 64 32
Width: 3397
VWidth: 1788
GlyphClass: 1
Flags: W
LayerCount: 2
Fore
SplineSet
2512.79980469 -17.7001953125 m 1,0,-1
 2792 -17.7001953125 l 1,1,-1
 2792 -472.900390625 l 1,2,-1
 2512.79980469 -472.900390625 l 1,3,-1
 2512.79980469 -472.099609375 l 1,4,-1
 885.599609375 -472.099609375 l 1,5,-1
 885.599609375 -472.900390625 l 1,6,-1
 606.399414062 -472.900390625 l 1,7,-1
 606.399414062 -17.7001953125 l 1,8,-1
 885.599609375 -17.7001953125 l 1,9,-1
 885.599609375 -193.700195312 l 1,10,-1
 2512.79980469 -193.700195312 l 1,11,-1
 2512.79980469 -17.7001953125 l 1,0,-1
1265.59960938 1975.90039062 m 1,12,-1
 1544 1975.90039062 l 1,13,-1
 1544 1696.70019531 l 1,14,-1
 1544 173.5 l 1,15,-1
 1265.59960938 173.5 l 1,16,-1
 1265.59960938 1696.70019531 l 1,17,-1
 431.200195312 1696.70019531 l 1,18,-1
 431.200195312 173.5 l 1,19,-1
 152 173.5 l 1,20,-1
 152 1696.70019531 l 1,21,-1
 152 1975.90039062 l 1,22,-1
 431.200195312 1975.90039062 l 1,23,-1
 1265.59960938 1975.90039062 l 1,12,-1
3245.59960938 1975.90039062 m 1,24,-1
 3245.59960938 1696.70019531 l 1,25,-1
 3245.59960938 452.700195312 l 1,26,-1
 3245.59960938 173.5 l 1,27,-1
 2967.20019531 173.5 l 1,28,-1
 1853.59960938 173.5 l 1,29,-1
 1853.59960938 452.700195312 l 1,30,-1
 2967.20019531 452.700195312 l 1,31,-1
 2967.20019531 1696.70019531 l 1,32,-1
 1853.59960938 1696.70019531 l 1,33,-1
 1853.59960938 1975.90039062 l 1,34,-1
 2967.20019531 1975.90039062 l 1,35,-1
 3245.59960938 1975.90039062 l 1,24,-1
EndSplineSet
EndChar

StartChar: A
Encoding: 65 65 33
Width: 1700
VWidth: 1863
GlyphClass: 1
Flags: W
LayerCount: 2
Back
SplineSet
964.5 872 m 256,0,1
 859.5 872 859.5 872 785 946.5 c 128,-1,2
 710.5 1021 710.5 1021 710.5 1126 c 256,3,4
 710.5 1231 710.5 1231 785 1306 c 128,-1,5
 859.5 1381 859.5 1381 964.5 1381 c 256,6,7
 1069.5 1381 1069.5 1381 1144.5 1306 c 128,-1,8
 1219.5 1231 1219.5 1231 1219.5 1126 c 256,9,10
 1219.5 1021 1219.5 1021 1144.5 946.5 c 128,-1,11
 1069.5 872 1069.5 872 964.5 872 c 256,0,1
1486.5 2253 m 1,12,-1
 1835.5 2253 l 1,13,-1
 1835.5 1904 l 1,14,-1
 1835.5 0 l 1,15,-1
 1486.5 0 l 1,16,-1
 1486.5 1904 l 1,17,-1
 443.5 1904 l 1,18,-1
 443.5 0 l 1,19,-1
 94.5 0 l 1,20,-1
 94.5 1904 l 1,21,-1
 94.5 2253 l 1,22,-1
 443.5 2253 l 1,23,-1
 1486.5 2253 l 1,12,-1
EndSplineSet
Fore
SplineSet
850 922.900390625 m 0,0,1
 765.200195312 922.900390625 765.200195312 922.900390625 706 982.099609375 c 128,-1,2
 646.80078125 1041.29980469 646.80078125 1041.29980469 646.80078125 1126.09960938 c 0,3,4
 646.80078125 1211.70019531 646.80078125 1211.70019531 706 1270.90039062 c 0,5,6
 764.400390625 1329.29980469 764.400390625 1329.29980469 850 1329.29980469 c 0,7,8
 936.400390625 1329.29980469 936.400390625 1329.29980469 994.80078125 1270.90039062 c 128,-1,9
 1053.20019531 1212.5 1053.20019531 1212.5 1053.20019531 1126.09960938 c 0,10,11
 1053.20019531 1040.5 1053.20019531 1040.5 994.80078125 982.099609375 c 0,12,13
 935.600585938 922.900390625 935.600585938 922.900390625 850 922.900390625 c 0,0,1
1268.40039062 2027.70019531 m 1,14,-1
 1546.80078125 2027.70019531 l 1,15,-1
 1546.80078125 1749.29980469 l 1,16,-1
 1546.80078125 225.299804688 l 1,17,-1
 1268.40039062 225.299804688 l 1,18,-1
 1268.40039062 1749.29980469 l 1,19,-1
 432.400390625 1749.29980469 l 1,20,-1
 432.400390625 225.299804688 l 1,21,-1
 154 225.299804688 l 1,22,-1
 154 1749.29980469 l 1,23,-1
 154 2027.70019531 l 1,24,-1
 432.400390625 2027.70019531 l 1,25,-1
 1268.40039062 2027.70019531 l 1,14,-1
EndSplineSet
EndChar

StartChar: B
Encoding: 66 66 34
Width: 1689
VWidth: 1863
GlyphClass: 1
Flags: W
LayerCount: 2
Back
SplineSet
94.5 0 m 1,0,-1
 94.5 349 l 1,1,-1
 1486.5 349 l 1,2,-1
 1486.5 952 l 1,3,-1
 94.5 952 l 1,4,-1
 94.5 1300 l 1,5,-1
 790.5 1300 l 1,6,-1
 790.5 2253 l 1,7,-1
 1138.5 2253 l 1,8,-1
 1138.5 1300 l 1,9,-1
 1835.5 1300 l 1,10,-1
 1835.5 1007 l 1,11,-1
 1835.5 952 l 1,12,-1
 1835.5 349 l 1,13,-1
 1835.5 0 l 1,14,-1
 1486.5 0 l 1,15,-1
 94.5 0 l 1,0,-1
EndSplineSet
Fore
SplineSet
150 225.299804688 m 1,0,-1
 150 503.700195312 l 1,1,-1
 1264.40039062 503.700195312 l 1,2,-1
 1264.40039062 986.900390625 l 1,3,-1
 150 986.900390625 l 1,4,-1
 150 1265.29980469 l 1,5,-1
 706.80078125 1265.29980469 l 1,6,-1
 706.80078125 2027.70019531 l 1,7,-1
 985.200195312 2027.70019531 l 1,8,-1
 985.200195312 1265.29980469 l 1,9,-1
 1542.80078125 1265.29980469 l 1,10,-1
 1542.80078125 1031.70019531 l 1,11,-1
 1542.80078125 986.900390625 l 1,12,-1
 1542.80078125 503.700195312 l 1,13,-1
 1542.80078125 225.299804688 l 1,14,-1
 1264.40039062 225.299804688 l 1,15,-1
 150 225.299804688 l 1,0,-1
EndSplineSet
EndChar

StartChar: C
Encoding: 67 67 35
Width: 1665
VWidth: 1863
GlyphClass: 1
Flags: W
LayerCount: 2
Fore
SplineSet
1247.59960938 2027.70019531 m 1,0,-1
 1526 2027.70019531 l 1,1,-1
 1526 1126.09960938 l 1,2,-1
 1108.40039062 1126.09960938 l 1,3,-1
 1108.40039062 225.299804688 l 1,4,-1
 134 225.299804688 l 1,5,-1
 134 503.700195312 l 1,6,-1
 830 503.700195312 l 1,7,-1
 830 1404.5 l 1,8,-1
 1247.59960938 1404.5 l 1,9,-1
 1247.59960938 2027.70019531 l 1,0,-1
EndSplineSet
EndChar

StartChar: D
Encoding: 68 68 36
Width: 1676
VWidth: 1861
GlyphClass: 1
Flags: W
LayerCount: 2
Back
SplineSet
1697 0 m 1,0,-1
 305 0 l 1,1,-1
 -44 0 l 1,2,-1
 -44 349 l 1,3,-1
 -44 952 l 1,4,-1
 -44 1007 l 1,5,-1
 -44 1300 l 1,6,-1
 652 1300 l 1,7,-1
 652 2253 l 1,8,-1
 1000 2253 l 1,9,-1
 1000 1300 l 1,10,-1
 1697 1300 l 1,11,-1
 1697 952 l 1,12,-1
 305 952 l 1,13,-1
 305 349 l 1,14,-1
 1697 349 l 1,15,-1
 1697 0 l 1,0,-1
EndSplineSet
Fore
SplineSet
1524 1738.29980469 m 1,0,-1
 955.200195312 1738.29980469 l 1,1,-1
 955.200195312 1254.29980469 l 1,2,-1
 1524 1254.29980469 l 1,3,-1
 1524 975.900390625 l 1,4,-1
 955.200195312 975.900390625 l 1,5,-1
 955.200195312 492.700195312 l 1,6,-1
 1524 492.700195312 l 1,7,-1
 1524 214.299804688 l 1,8,-1
 132 214.299804688 l 1,9,-1
 132 492.700195312 l 1,10,-1
 676.799804688 492.700195312 l 1,11,-1
 676.799804688 2016.70019531 l 1,12,-1
 1524 2016.70019531 l 1,13,-1
 1524 1738.29980469 l 1,0,-1
EndSplineSet
EndChar

StartChar: E
Encoding: 69 69 37
Width: 1695
VWidth: 1863
GlyphClass: 1
Flags: W
LayerCount: 2
Back
SplineSet
964.5 872 m 256,0,1
 859.5 872 859.5 872 785 946.5 c 128,-1,2
 710.5 1021 710.5 1021 710.5 1126 c 256,3,4
 710.5 1231 710.5 1231 785 1306 c 128,-1,5
 859.5 1381 859.5 1381 964.5 1381 c 256,6,7
 1069.5 1381 1069.5 1381 1144.5 1306 c 128,-1,8
 1219.5 1231 1219.5 1231 1219.5 1126 c 256,9,10
 1219.5 1021 1219.5 1021 1144.5 946.5 c 128,-1,11
 1069.5 872 1069.5 872 964.5 872 c 256,0,1
94.5 0 m 1,12,-1
 94.5 349 l 1,13,-1
 94.5 1904 l 1,14,-1
 94.5 2253 l 1,15,-1
 443.5 2253 l 1,16,-1
 1835.5 2253 l 1,17,-1
 1835.5 1904 l 1,18,-1
 443.5 1904 l 1,19,-1
 443.5 349 l 1,20,-1
 1835.5 349 l 1,21,-1
 1835.5 0 l 1,22,-1
 443.5 0 l 1,23,-1
 94.5 0 l 1,12,-1
EndSplineSet
Fore
SplineSet
850 922.900390625 m 0,0,1
 765.200195312 922.900390625 765.200195312 922.900390625 706 982.099609375 c 128,-1,2
 646.80078125 1041.29980469 646.80078125 1041.29980469 646.80078125 1126.09960938 c 0,3,4
 646.80078125 1211.70019531 646.80078125 1211.70019531 706 1270.90039062 c 0,5,6
 764.400390625 1329.29980469 764.400390625 1329.29980469 850 1329.29980469 c 0,7,8
 936.400390625 1329.29980469 936.400390625 1329.29980469 994.80078125 1270.90039062 c 128,-1,9
 1053.20019531 1212.5 1053.20019531 1212.5 1053.20019531 1126.09960938 c 0,10,11
 1053.20019531 1040.5 1053.20019531 1040.5 994.80078125 982.099609375 c 0,12,13
 935.600585938 922.900390625 935.600585938 922.900390625 850 922.900390625 c 0,0,1
154 225.299804688 m 1,14,-1
 154 503.700195312 l 1,15,-1
 154 1749.29980469 l 1,16,-1
 154 2027.70019531 l 1,17,-1
 432.400390625 2027.70019531 l 1,18,-1
 1546.80078125 2027.70019531 l 1,19,-1
 1546.80078125 1749.29980469 l 1,20,-1
 432.400390625 1749.29980469 l 1,21,-1
 432.400390625 503.700195312 l 1,22,-1
 1546.80078125 503.700195312 l 1,23,-1
 1546.80078125 225.299804688 l 1,24,-1
 432.400390625 225.299804688 l 1,25,-1
 154 225.299804688 l 1,14,-1
EndSplineSet
EndChar

StartChar: F
Encoding: 70 70 38
Width: 1687
VWidth: 1863
GlyphClass: 1
Flags: W
LayerCount: 2
Fore
SplineSet
1533.80078125 1126.09960938 m 1,0,-1
 1533.80078125 986.900390625 l 1,1,-1
 1533.80078125 225.299804688 l 1,2,-1
 1255.40039062 225.299804688 l 1,3,-1
 1255.40039062 986.900390625 l 1,4,-1
 141 986.900390625 l 1,5,-1
 141 1265.29980469 l 1,6,-1
 1533.80078125 1265.29980469 l 1,7,-1
 1533.80078125 1126.09960938 l 1,0,-1
141 1749.29980469 m 1,8,-1
 141 2027.70019531 l 1,9,-1
 1533.80078125 2027.70019531 l 1,10,-1
 1533.80078125 1749.29980469 l 1,11,-1
 141 1749.29980469 l 1,8,-1
EndSplineSet
EndChar

StartChar: G
Encoding: 71 71 39
Width: 1700
VWidth: 1863
GlyphClass: 1
Flags: W
LayerCount: 2
Back
SplineSet
1835.5 1904 m 1,0,-1
 94.5 1904 l 1,1,-1
 94.5 2253 l 1,2,-1
 1835.5 2253 l 1,3,-1
 1835.5 1904 l 1,0,-1
1835.5 1126 m 1,4,-1
 1835.5 952 l 1,5,-1
 1835.5 349 l 1,6,-1
 1835.5 0 l 1,7,-1
 1486.5 0 l 1,8,-1
 443.5 0 l 1,9,-1
 94.5 0 l 1,10,-1
 94.5 349 l 1,11,-1
 94.5 952 l 1,12,-1
 94.5 1126 l 1,13,-1
 94.5 1300 l 1,14,-1
 1835.5 1300 l 1,15,-1
 1835.5 1126 l 1,4,-1
1486.5 349 m 1,16,-1
 1486.5 952 l 1,17,-1
 443.5 952 l 1,18,-1
 443.5 349 l 1,19,-1
 1486.5 349 l 1,16,-1
EndSplineSet
Fore
SplineSet
1546.80078125 1749.29980469 m 1,0,-1
 154 1749.29980469 l 1,1,-1
 154 2027.70019531 l 1,2,-1
 1546.80078125 2027.70019531 l 1,3,-1
 1546.80078125 1749.29980469 l 1,0,-1
1546.80078125 1126.09960938 m 1,4,-1
 1546.80078125 986.900390625 l 1,5,-1
 1546.80078125 503.700195312 l 1,6,-1
 1546.80078125 225.299804688 l 1,7,-1
 1268.40039062 225.299804688 l 1,8,-1
 432.400390625 225.299804688 l 1,9,-1
 154 225.299804688 l 1,10,-1
 154 503.700195312 l 1,11,-1
 154 986.900390625 l 1,12,-1
 154 1126.09960938 l 1,13,-1
 154 1265.29980469 l 1,14,-1
 1546.80078125 1265.29980469 l 1,15,-1
 1546.80078125 1126.09960938 l 1,4,-1
1268.40039062 503.700195312 m 1,16,-1
 1268.40039062 986.900390625 l 1,17,-1
 432.400390625 986.900390625 l 1,18,-1
 432.400390625 503.700195312 l 1,19,-1
 1268.40039062 503.700195312 l 1,16,-1
EndSplineSet
EndChar

StartChar: H
Encoding: 72 72 40
Width: 1664
VWidth: 1863
GlyphClass: 1
Flags: W
LayerCount: 2
Fore
SplineSet
1232.40039062 2027.70019531 m 1,0,-1
 1510.80078125 2027.70019531 l 1,1,-1
 1510.80078125 1265.29980469 l 1,2,-1
 1510.80078125 986.900390625 l 1,3,-1
 1510.80078125 225.299804688 l 1,4,-1
 1232.40039062 225.299804688 l 1,5,-1
 1232.40039062 986.900390625 l 1,6,-1
 118 986.900390625 l 1,7,-1
 118 1265.29980469 l 1,8,-1
 1232.40039062 1265.29980469 l 1,9,-1
 1232.40039062 2027.70019531 l 1,0,-1
EndSplineSet
EndChar

StartChar: I
Encoding: 73 73 41
Width: 1695
VWidth: 1863
GlyphClass: 1
Flags: W
LayerCount: 2
Back
SplineSet
1835.5 2253 m 1,0,-1
 1835.5 1904 l 1,1,-1
 1835.5 349 l 1,2,-1
 1835.5 0 l 1,3,-1
 1486.5 0 l 1,4,-1
 94.5 0 l 1,5,-1
 94.5 349 l 1,6,-1
 1486.5 349 l 1,7,-1
 1486.5 1904 l 1,8,-1
 94.5 1904 l 1,9,-1
 94.5 2253 l 1,10,-1
 1486.5 2253 l 1,11,-1
 1835.5 2253 l 1,0,-1
964.5 872 m 256,12,13
 859.5 872 859.5 872 785 946.5 c 128,-1,14
 710.5 1021 710.5 1021 710.5 1126 c 256,15,16
 710.5 1231 710.5 1231 785 1306 c 128,-1,17
 859.5 1381 859.5 1381 964.5 1381 c 256,18,19
 1069.5 1381 1069.5 1381 1144.5 1306 c 128,-1,20
 1219.5 1231 1219.5 1231 1219.5 1126 c 256,21,22
 1219.5 1021 1219.5 1021 1144.5 946.5 c 128,-1,23
 1069.5 872 1069.5 872 964.5 872 c 256,12,13
EndSplineSet
Fore
SplineSet
1541.80078125 2027.70019531 m 1,0,-1
 1541.80078125 1749.29980469 l 1,1,-1
 1541.80078125 503.700195312 l 1,2,-1
 1541.80078125 225.299804688 l 1,3,-1
 1263.40039062 225.299804688 l 1,4,-1
 149 225.299804688 l 1,5,-1
 149 503.700195312 l 1,6,-1
 1263.40039062 503.700195312 l 1,7,-1
 1263.40039062 1749.29980469 l 1,8,-1
 149 1749.29980469 l 1,9,-1
 149 2027.70019531 l 1,10,-1
 1263.40039062 2027.70019531 l 1,11,-1
 1541.80078125 2027.70019531 l 1,0,-1
845 922.900390625 m 0,12,13
 760.200195312 922.900390625 760.200195312 922.900390625 701 982.099609375 c 128,-1,14
 641.80078125 1041.29980469 641.80078125 1041.29980469 641.80078125 1126.09960938 c 0,15,16
 641.80078125 1211.70019531 641.80078125 1211.70019531 701 1270.90039062 c 0,17,18
 759.400390625 1329.29980469 759.400390625 1329.29980469 845 1329.29980469 c 0,19,20
 931.400390625 1329.29980469 931.400390625 1329.29980469 989.80078125 1270.90039062 c 128,-1,21
 1048.20019531 1212.5 1048.20019531 1212.5 1048.20019531 1126.09960938 c 0,22,23
 1048.20019531 1040.5 1048.20019531 1040.5 989.80078125 982.099609375 c 0,24,25
 930.600585938 922.900390625 930.600585938 922.900390625 845 922.900390625 c 0,12,13
EndSplineSet
EndChar

StartChar: J
Encoding: 74 74 42
Width: 1681
VWidth: 1863
GlyphClass: 1
Flags: W
LayerCount: 2
Back
SplineSet
94.5 0 m 1,0,-1
 94.5 349 l 1,1,-1
 1486.5 349 l 1,2,-1
 1486.5 2253 l 1,3,-1
 1835.5 2253 l 1,4,-1
 1835.5 349 l 1,5,-1
 1835.5 0 l 1,6,-1
 1486.5 0 l 1,7,-1
 94.5 0 l 1,0,-1
964.5 872 m 256,8,9
 859.5 872 859.5 872 785 946.5 c 128,-1,10
 710.5 1021 710.5 1021 710.5 1126 c 256,11,12
 710.5 1231 710.5 1231 785 1306 c 128,-1,13
 859.5 1381 859.5 1381 964.5 1381 c 256,14,15
 1069.5 1381 1069.5 1381 1144.5 1306 c 128,-1,16
 1219.5 1231 1219.5 1231 1219.5 1126 c 256,17,18
 1219.5 1021 1219.5 1021 1144.5 946.5 c 128,-1,19
 1069.5 872 1069.5 872 964.5 872 c 256,8,9
EndSplineSet
Fore
SplineSet
135 225.299804688 m 1,0,-1
 135 503.700195312 l 1,1,-1
 1249.40039062 503.700195312 l 1,2,-1
 1249.40039062 2027.70019531 l 1,3,-1
 1527.80078125 2027.70019531 l 1,4,-1
 1527.80078125 503.700195312 l 1,5,-1
 1527.80078125 225.299804688 l 1,6,-1
 1249.40039062 225.299804688 l 1,7,-1
 135 225.299804688 l 1,0,-1
831 922.900390625 m 0,8,9
 746.200195312 922.900390625 746.200195312 922.900390625 687 982.099609375 c 128,-1,10
 627.80078125 1041.29980469 627.80078125 1041.29980469 627.80078125 1126.09960938 c 0,11,12
 627.80078125 1211.70019531 627.80078125 1211.70019531 687 1270.90039062 c 0,13,14
 745.400390625 1329.29980469 745.400390625 1329.29980469 831 1329.29980469 c 0,15,16
 917.400390625 1329.29980469 917.400390625 1329.29980469 975.80078125 1270.90039062 c 128,-1,17
 1034.20019531 1212.5 1034.20019531 1212.5 1034.20019531 1126.09960938 c 0,18,19
 1034.20019531 1040.5 1034.20019531 1040.5 975.80078125 982.099609375 c 0,20,21
 916.600585938 922.900390625 916.600585938 922.900390625 831 922.900390625 c 0,8,9
EndSplineSet
EndChar

StartChar: K
Encoding: 75 75 43
Width: 1685
VWidth: 1863
GlyphClass: 1
Flags: W
LayerCount: 2
Back
SplineSet
-102.5 1904 m 1,0,-1
 -102.5 2253 l 1,1,-1
 593.5 2253 l 1,2,-1
 904.5 2253 l 1,3,-1
 941.5 2253 l 1,4,-1
 941.5 349 l 1,5,-1
 1638.5 349 l 1,6,-1
 1638.5 0 l 1,7,-1
 941.5 0 l 1,8,-1
 631.5 0 l 1,9,-1
 593.5 0 l 1,10,-1
 593.5 1904 l 1,11,-1
 -102.5 1904 l 1,0,-1
EndSplineSet
Fore
SplineSet
1540 1401.29980469 m 1,0,-1
 983.200195312 1401.29980469 l 1,1,-1
 983.200195312 1053.29980469 l 1,2,-1
 1540 1053.29980469 l 1,3,-1
 1540 225.299804688 l 1,4,-1
 1261.59960938 225.299804688 l 1,5,-1
 1261.59960938 774.900390625 l 1,6,-1
 426.400390625 774.900390625 l 1,7,-1
 426.400390625 225.299804688 l 1,8,-1
 148 225.299804688 l 1,9,-1
 148 1053.29980469 l 1,10,-1
 704.799804688 1053.29980469 l 1,11,-1
 704.799804688 1401.29980469 l 1,12,-1
 148 1401.29980469 l 1,13,-1
 148 1679.70019531 l 1,14,-1
 704.799804688 1679.70019531 l 1,15,-1
 704.799804688 2027.70019531 l 1,16,-1
 983.200195312 2027.70019531 l 1,17,-1
 983.200195312 1679.70019531 l 1,18,-1
 1540 1679.70019531 l 1,19,-1
 1540 1401.29980469 l 1,0,-1
EndSplineSet
EndChar

StartChar: L
Encoding: 76 76 44
Width: 1671
VWidth: 1863
GlyphClass: 1
Flags: W
LayerCount: 2
Back
SplineSet
1835.5 0 m 1,0,-1
 443.5 0 l 1,1,-1
 94.5 0 l 1,2,-1
 94.5 349 l 1,3,-1
 94.5 2253 l 1,4,-1
 443.5 2253 l 1,5,-1
 443.5 349 l 1,6,-1
 1835.5 349 l 1,7,-1
 1835.5 0 l 1,0,-1
EndSplineSet
Fore
SplineSet
1546.80078125 225.299804688 m 1,0,-1
 432.400390625 225.299804688 l 1,1,-1
 154 225.299804688 l 1,2,-1
 154 503.700195312 l 1,3,-1
 154 2027.70019531 l 1,4,-1
 432.400390625 2027.70019531 l 1,5,-1
 432.400390625 503.700195312 l 1,6,-1
 1546.80078125 503.700195312 l 1,7,-1
 1546.80078125 225.299804688 l 1,0,-1
EndSplineSet
EndChar

StartChar: M
Encoding: 77 77 45
Width: 1629
VWidth: 1863
GlyphClass: 1
Flags: W
LayerCount: 2
Fore
SplineSet
117 1749.29980469 m 1,0,-1
 117 2027.70019531 l 1,1,-1
 673.80078125 2027.70019531 l 1,2,-1
 923.400390625 2027.70019531 l 1,3,-1
 952.200195312 2027.70019531 l 1,4,-1
 952.200195312 1265.29980469 l 1,5,-1
 1242.60058594 1265.29980469 l 1,6,-1
 1242.60058594 986.900390625 l 1,7,-1
 952.200195312 986.900390625 l 1,8,-1
 952.200195312 503.700195312 l 1,9,-1
 1509.80078125 503.700195312 l 1,10,-1
 1509.80078125 225.299804688 l 1,11,-1
 952.200195312 225.299804688 l 1,12,-1
 703.400390625 225.299804688 l 1,13,-1
 673.80078125 225.299804688 l 1,14,-1
 673.80078125 986.900390625 l 1,15,-1
 384.200195312 986.900390625 l 1,16,-1
 384.200195312 1265.29980469 l 1,17,-1
 673.80078125 1265.29980469 l 1,18,-1
 673.80078125 1749.29980469 l 1,19,-1
 117 1749.29980469 l 1,0,-1
EndSplineSet
EndChar

StartChar: N
Encoding: 78 78 46
Width: 1689
VWidth: 1863
GlyphClass: 1
Flags: W
LayerCount: 2
Back
SplineSet
1697 1904 m 1,0,-1
 1000 1904 l 1,1,-1
 1000 1300 l 1,2,-1
 1363 1300 l 1,3,-1
 1363 952 l 1,4,-1
 1000 952 l 1,5,-1
 1000 0 l 1,6,-1
 963 0 l 1,7,-1
 652 0 l 1,8,-1
 -44 0 l 1,9,-1
 -44 349 l 1,10,-1
 652 349 l 1,11,-1
 652 952 l 1,12,-1
 290 952 l 1,13,-1
 290 1300 l 1,14,-1
 652 1300 l 1,15,-1
 652 2253 l 1,16,-1
 690 2253 l 1,17,-1
 1000 2253 l 1,18,-1
 1697 2253 l 1,19,-1
 1697 1904 l 1,0,-1
EndSplineSet
Fore
SplineSet
149 2027.70019531 m 1,0,-1
 1541 2027.70019531 l 1,1,-1
 1541 1749.29980469 l 1,2,-1
 984.200195312 1749.29980469 l 1,3,-1
 984.200195312 1265.29980469 l 1,4,-1
 705.799804688 1265.29980469 l 1,5,-1
 705.799804688 1749.29980469 l 1,6,-1
 149 1749.29980469 l 1,7,-1
 149 2027.70019531 l 1,0,-1
984.200195312 503.700195312 m 1,8,-1
 1541 503.700195312 l 1,9,-1
 1541 225.299804688 l 1,10,-1
 149 225.299804688 l 1,11,-1
 149 503.700195312 l 1,12,-1
 705.799804688 503.700195312 l 1,13,-1
 705.799804688 986.900390625 l 1,14,-1
 984.200195312 986.900390625 l 1,15,-1
 984.200195312 503.700195312 l 1,8,-1
EndSplineSet
EndChar

StartChar: O
Encoding: 79 79 47
Width: 3402
VWidth: 1791
GlyphClass: 1
Flags: W
LayerCount: 2
Back
SplineSet
834.5 2373 m 256,0,1
 729.5 2373 729.5 2373 655 2448 c 128,-1,2
 580.5 2523 580.5 2523 580.5 2628 c 256,3,4
 580.5 2733 580.5 2733 655 2807.5 c 128,-1,5
 729.5 2882 729.5 2882 834.5 2882 c 256,6,7
 939.5 2882 939.5 2882 1014.5 2807.5 c 128,-1,8
 1089.5 2733 1089.5 2733 1089.5 2628 c 256,9,10
 1089.5 2523 1089.5 2523 1014.5 2448 c 128,-1,11
 939.5 2373 939.5 2373 834.5 2373 c 256,0,1
1705.5 2253 m 1,12,-1
 1705.5 1904 l 1,13,-1
 1705.5 349 l 1,14,-1
 1705.5 0 l 1,15,-1
 1356.5 0 l 1,16,-1
 313.5 0 l 1,17,-1
 -35.5 0 l 1,18,-1
 -35.5 349 l 1,19,-1
 -35.5 1904 l 1,20,-1
 -35.5 2253 l 1,21,-1
 313.5 2253 l 1,22,-1
 1356.5 2253 l 1,23,-1
 1705.5 2253 l 1,12,-1
313.5 349 m 1,24,-1
 1356.5 349 l 1,25,-1
 1356.5 1904 l 1,26,-1
 313.5 1904 l 1,27,-1
 313.5 349 l 1,24,-1
EndSplineSet
Fore
SplineSet
2514.79980469 -4.599609375 m 1,0,-1
 2794.79980469 -4.599609375 l 1,1,-1
 2794.79980469 -459.799804688 l 1,2,-1
 2514.79980469 -459.799804688 l 1,3,-1
 2514.79980469 -458.200195312 l 1,4,-1
 888.399414062 -458.200195312 l 1,5,-1
 888.399414062 -459.799804688 l 1,6,-1
 609.19921875 -459.799804688 l 1,7,-1
 609.19921875 -4.599609375 l 1,8,-1
 888.399414062 -4.599609375 l 1,9,-1
 888.399414062 -179.799804688 l 1,10,-1
 2514.79980469 -179.799804688 l 1,11,-1
 2514.79980469 -4.599609375 l 1,0,-1
3249.19921875 1989.79980469 m 1,12,-1
 3249.19921875 1711.40039062 l 1,13,-1
 3249.19921875 465.799804688 l 1,14,-1
 3249.19921875 187.400390625 l 1,15,-1
 2970.79980469 187.400390625 l 1,16,-1
 1856.39941406 187.400390625 l 1,17,-1
 1856.39941406 465.799804688 l 1,18,-1
 2970.79980469 465.799804688 l 1,19,-1
 2970.79980469 1711.40039062 l 1,20,-1
 1856.39941406 1711.40039062 l 1,21,-1
 1856.39941406 1989.79980469 l 1,22,-1
 2970.79980469 1989.79980469 l 1,23,-1
 3249.19921875 1989.79980469 l 1,12,-1
1546.79980469 1989.79980469 m 1,24,-1
 1546.79980469 1711.40039062 l 1,25,-1
 1546.79980469 465.799804688 l 1,26,-1
 1546.79980469 187.400390625 l 1,27,-1
 1268.39941406 187.400390625 l 1,28,-1
 434 187.400390625 l 1,29,-1
 154 187.400390625 l 1,30,-1
 154 465.799804688 l 1,31,-1
 154 1711.40039062 l 1,32,-1
 154 1989.79980469 l 1,33,-1
 434 1989.79980469 l 1,34,-1
 1268.39941406 1989.79980469 l 1,35,-1
 1546.79980469 1989.79980469 l 1,24,-1
434 465.799804688 m 1,36,-1
 1268.39941406 465.799804688 l 1,37,-1
 1268.39941406 1711.40039062 l 1,38,-1
 434 1711.40039062 l 1,39,-1
 434 465.799804688 l 1,36,-1
EndSplineSet
EndChar

StartChar: P
Encoding: 80 80 48
Width: 1673
VWidth: 1863
GlyphClass: 1
Flags: W
LayerCount: 2
Back
SplineSet
1835.5 2253 m 1,0,-1
 1835.5 1904 l 1,1,-1
 443.5 1904 l 1,2,-1
 443.5 1300 l 1,3,-1
 1835.5 1300 l 1,4,-1
 1835.5 952 l 1,5,-1
 1138.5 952 l 1,6,-1
 1138.5 0 l 1,7,-1
 790.5 0 l 1,8,-1
 790.5 952 l 1,9,-1
 94.5 952 l 1,10,-1
 94.5 1246 l 1,11,-1
 94.5 1300 l 1,12,-1
 94.5 1904 l 1,13,-1
 94.5 2253 l 1,14,-1
 443.5 2253 l 1,15,-1
 1835.5 2253 l 1,0,-1
EndSplineSet
Fore
SplineSet
1532.80078125 2027.70019531 m 1,0,-1
 1532.80078125 1749.29980469 l 1,1,-1
 418.400390625 1749.29980469 l 1,2,-1
 418.400390625 1265.29980469 l 1,3,-1
 1532.80078125 1265.29980469 l 1,4,-1
 1532.80078125 986.900390625 l 1,5,-1
 975.200195312 986.900390625 l 1,6,-1
 975.200195312 225.299804688 l 1,7,-1
 696.80078125 225.299804688 l 1,8,-1
 696.80078125 986.900390625 l 1,9,-1
 140 986.900390625 l 1,10,-1
 140 1221.29980469 l 1,11,-1
 140 1265.29980469 l 1,12,-1
 140 1749.29980469 l 1,13,-1
 140 2027.70019531 l 1,14,-1
 418.400390625 2027.70019531 l 1,15,-1
 1532.80078125 2027.70019531 l 1,0,-1
EndSplineSet
EndChar

StartChar: R
Encoding: 82 82 49
Width: 1672
VWidth: 1863
GlyphClass: 1
Flags: W
LayerCount: 2
Back
SplineSet
94.5 2253 m 1,0,-1
 1486.5 2253 l 1,1,-1
 1835.5 2253 l 1,2,-1
 1835.5 1904 l 1,3,-1
 1835.5 1300 l 1,4,-1
 1835.5 1246 l 1,5,-1
 1835.5 952 l 1,6,-1
 1138.5 952 l 1,7,-1
 1138.5 0 l 1,8,-1
 790.5 0 l 1,9,-1
 790.5 952 l 1,10,-1
 94.5 952 l 1,11,-1
 94.5 1300 l 1,12,-1
 1486.5 1300 l 1,13,-1
 1486.5 1904 l 1,14,-1
 94.5 1904 l 1,15,-1
 94.5 2253 l 1,0,-1
EndSplineSet
Fore
SplineSet
138 2027.70019531 m 1,0,-1
 1252.40039062 2027.70019531 l 1,1,-1
 1530.80078125 2027.70019531 l 1,2,-1
 1530.80078125 1749.29980469 l 1,3,-1
 1530.80078125 1265.29980469 l 1,4,-1
 1530.80078125 1221.29980469 l 1,5,-1
 1530.80078125 986.900390625 l 1,6,-1
 973.200195312 986.900390625 l 1,7,-1
 973.200195312 225.299804688 l 1,8,-1
 694.80078125 225.299804688 l 1,9,-1
 694.80078125 986.900390625 l 1,10,-1
 138 986.900390625 l 1,11,-1
 138 1265.29980469 l 1,12,-1
 1252.40039062 1265.29980469 l 1,13,-1
 1252.40039062 1749.29980469 l 1,14,-1
 138 1749.29980469 l 1,15,-1
 138 2027.70019531 l 1,0,-1
EndSplineSet
EndChar

StartChar: S
Encoding: 83 83 50
Width: 1700
VWidth: 1863
GlyphClass: 1
Flags: W
LayerCount: 2
Back
SplineSet
94.5 1904 m 1,0,-1
 94.5 2253 l 1,1,-1
 1835.5 2253 l 1,2,-1
 1835.5 1904 l 1,3,-1
 94.5 1904 l 1,0,-1
94.5 0 m 1,4,-1
 94.5 349 l 1,5,-1
 1486.5 349 l 1,6,-1
 1486.5 952 l 1,7,-1
 94.5 952 l 1,8,-1
 94.5 1300 l 1,9,-1
 1835.5 1300 l 1,10,-1
 1835.5 1126 l 1,11,-1
 1835.5 952 l 1,12,-1
 1835.5 349 l 1,13,-1
 1835.5 0 l 1,14,-1
 1486.5 0 l 1,15,-1
 94.5 0 l 1,4,-1
EndSplineSet
Fore
SplineSet
154 1749.29980469 m 1,0,-1
 154 2027.70019531 l 1,1,-1
 1546.80078125 2027.70019531 l 1,2,-1
 1546.80078125 1749.29980469 l 1,3,-1
 154 1749.29980469 l 1,0,-1
154 225.299804688 m 1,4,-1
 154 503.700195312 l 1,5,-1
 1268.40039062 503.700195312 l 1,6,-1
 1268.40039062 986.900390625 l 1,7,-1
 154 986.900390625 l 1,8,-1
 154 1265.29980469 l 1,9,-1
 1546.80078125 1265.29980469 l 1,10,-1
 1546.80078125 1126.09960938 l 1,11,-1
 1546.80078125 986.900390625 l 1,12,-1
 1546.80078125 503.700195312 l 1,13,-1
 1546.80078125 225.299804688 l 1,14,-1
 1268.40039062 225.299804688 l 1,15,-1
 154 225.299804688 l 1,4,-1
EndSplineSet
EndChar

StartChar: T
Encoding: 84 84 51
Width: 1643
VWidth: 1863
GlyphClass: 1
Flags: W
LayerCount: 2
Fore
SplineSet
129 225.299804688 m 1,0,-1
 129 503.700195312 l 1,1,-1
 685.80078125 503.700195312 l 1,2,-1
 685.80078125 2027.70019531 l 1,3,-1
 964.200195312 2027.70019531 l 1,4,-1
 964.200195312 503.700195312 l 1,5,-1
 1521.80078125 503.700195312 l 1,6,-1
 1521.80078125 225.299804688 l 1,7,-1
 964.200195312 225.299804688 l 1,8,-1
 685.80078125 225.299804688 l 1,9,-1
 129 225.299804688 l 1,0,-1
413.80078125 710.099609375 m 0,10,11
 330.600585938 710.099609375 330.600585938 710.099609375 271.400390625 769.299804688 c 0,12,13
 210.600585938 830.099609375 210.600585938 830.099609375 210.600585938 913.299804688 c 128,-1,14
 210.600585938 996.5 210.600585938 996.5 271.400390625 1057.29980469 c 0,15,16
 330.600585938 1116.5 330.600585938 1116.5 413.80078125 1116.5 c 0,17,18
 499.400390625 1116.5 499.400390625 1116.5 558.600585938 1057.29980469 c 0,19,20
 618.600585938 997.299804688 618.600585938 997.299804688 618.600585938 913.299804688 c 128,-1,21
 618.600585938 829.299804688 618.600585938 829.299804688 558.600585938 769.299804688 c 0,22,23
 499.400390625 710.099609375 499.400390625 710.099609375 413.80078125 710.099609375 c 0,10,11
EndSplineSet
EndChar

StartChar: U
Encoding: 85 85 52
Width: 1700
VWidth: 1863
GlyphClass: 1
Flags: W
LayerCount: 2
Back
SplineSet
964.5 872 m 256,0,1
 859.5 872 859.5 872 785 946.5 c 128,-1,2
 710.5 1021 710.5 1021 710.5 1126 c 256,3,4
 710.5 1231 710.5 1231 785 1306 c 128,-1,5
 859.5 1381 859.5 1381 964.5 1381 c 256,6,7
 1069.5 1381 1069.5 1381 1144.5 1306 c 128,-1,8
 1219.5 1231 1219.5 1231 1219.5 1126 c 256,9,10
 1219.5 1021 1219.5 1021 1144.5 946.5 c 128,-1,11
 1069.5 872 1069.5 872 964.5 872 c 256,0,1
1486.5 0 m 1,12,-1
 443.5 0 l 1,13,-1
 94.5 0 l 1,14,-1
 94.5 349 l 1,15,-1
 94.5 2253 l 1,16,-1
 443.5 2253 l 1,17,-1
 443.5 349 l 1,18,-1
 1486.5 349 l 1,19,-1
 1486.5 2253 l 1,20,-1
 1835.5 2253 l 1,21,-1
 1835.5 349 l 1,22,-1
 1835.5 0 l 1,23,-1
 1486.5 0 l 1,12,-1
EndSplineSet
Fore
SplineSet
850 922.900390625 m 0,0,1
 765.200195312 922.900390625 765.200195312 922.900390625 706 982.099609375 c 128,-1,2
 646.80078125 1041.29980469 646.80078125 1041.29980469 646.80078125 1126.09960938 c 0,3,4
 646.80078125 1211.70019531 646.80078125 1211.70019531 706 1270.90039062 c 0,5,6
 764.400390625 1329.29980469 764.400390625 1329.29980469 850 1329.29980469 c 0,7,8
 936.400390625 1329.29980469 936.400390625 1329.29980469 994.80078125 1270.90039062 c 128,-1,9
 1053.20019531 1212.5 1053.20019531 1212.5 1053.20019531 1126.09960938 c 0,10,11
 1053.20019531 1040.5 1053.20019531 1040.5 994.80078125 982.099609375 c 0,12,13
 935.600585938 922.900390625 935.600585938 922.900390625 850 922.900390625 c 0,0,1
1268.40039062 225.299804688 m 1,14,-1
 432.400390625 225.299804688 l 1,15,-1
 154 225.299804688 l 1,16,-1
 154 503.700195312 l 1,17,-1
 154 2027.70019531 l 1,18,-1
 432.400390625 2027.70019531 l 1,19,-1
 432.400390625 503.700195312 l 1,20,-1
 1268.40039062 503.700195312 l 1,21,-1
 1268.40039062 2027.70019531 l 1,22,-1
 1546.80078125 2027.70019531 l 1,23,-1
 1546.80078125 503.700195312 l 1,24,-1
 1546.80078125 225.299804688 l 1,25,-1
 1268.40039062 225.299804688 l 1,14,-1
EndSplineSet
EndChar

StartChar: V
Encoding: 86 86 53
Width: 1688
VWidth: 1863
GlyphClass: 1
Flags: W
LayerCount: 2
Back
SplineSet
1835.5 1126 m 1,0,-1
 1835.5 888 l 1,1,-1
 1835.5 349 l 1,2,-1
 1835.5 0 l 1,3,-1
 1486.5 0 l 1,4,-1
 443.5 0 l 1,5,-1
 94.5 0 l 1,6,-1
 94.5 349 l 1,7,-1
 94.5 888 l 1,8,-1
 94.5 1126 l 1,9,-1
 94.5 1236 l 1,10,-1
 790.5 1236 l 1,11,-1
 790.5 2253 l 1,12,-1
 1138.5 2253 l 1,13,-1
 1138.5 1236 l 1,14,-1
 1835.5 1236 l 1,15,-1
 1835.5 1126 l 1,0,-1
1486.5 349 m 1,16,-1
 1486.5 888 l 1,17,-1
 443.5 888 l 1,18,-1
 443.5 349 l 1,19,-1
 1486.5 349 l 1,16,-1
EndSplineSet
Fore
SplineSet
1542.80078125 1126.09960938 m 1,0,-1
 1542.80078125 936.5 l 1,1,-1
 1542.80078125 503.700195312 l 1,2,-1
 1542.80078125 225.299804688 l 1,3,-1
 1264.40039062 225.299804688 l 1,4,-1
 428.400390625 225.299804688 l 1,5,-1
 150 225.299804688 l 1,6,-1
 150 503.700195312 l 1,7,-1
 150 936.5 l 1,8,-1
 150 1126.09960938 l 1,9,-1
 150 1214.90039062 l 1,10,-1
 706.80078125 1214.90039062 l 1,11,-1
 706.80078125 2027.70019531 l 1,12,-1
 985.200195312 2027.70019531 l 1,13,-1
 985.200195312 1214.90039062 l 1,14,-1
 1542.80078125 1214.90039062 l 1,15,-1
 1542.80078125 1126.09960938 l 1,0,-1
1264.40039062 503.700195312 m 1,16,-1
 1264.40039062 936.5 l 1,17,-1
 428.400390625 936.5 l 1,18,-1
 428.400390625 503.700195312 l 1,19,-1
 1264.40039062 503.700195312 l 1,16,-1
EndSplineSet
EndChar

StartChar: W
Encoding: 87 87 54
Width: 1674
VWidth: 1863
GlyphClass: 1
Flags: W
LayerCount: 2
Back
SplineSet
1835.5 1126 m 1,0,-1
 1835.5 1016 l 1,1,-1
 1138.5 1016 l 1,2,-1
 1138.5 0 l 1,3,-1
 790.5 0 l 1,4,-1
 790.5 1016 l 1,5,-1
 94.5 1016 l 1,6,-1
 94.5 1126 l 1,7,-1
 94.5 1365 l 1,8,-1
 94.5 1904 l 1,9,-1
 94.5 2253 l 1,10,-1
 443.5 2253 l 1,11,-1
 1486.5 2253 l 1,12,-1
 1835.5 2253 l 1,13,-1
 1835.5 1904 l 1,14,-1
 1835.5 1365 l 1,15,-1
 1835.5 1126 l 1,0,-1
1486.5 1904 m 1,16,-1
 443.5 1904 l 1,17,-1
 443.5 1365 l 1,18,-1
 1486.5 1365 l 1,19,-1
 1486.5 1904 l 1,16,-1
EndSplineSet
Fore
SplineSet
1532.80078125 1126.09960938 m 1,0,-1
 1532.80078125 1038.09960938 l 1,1,-1
 975.200195312 1038.09960938 l 1,2,-1
 975.200195312 225.299804688 l 1,3,-1
 696.80078125 225.299804688 l 1,4,-1
 696.80078125 1038.09960938 l 1,5,-1
 140 1038.09960938 l 1,6,-1
 140 1126.09960938 l 1,7,-1
 140 1318.09960938 l 1,8,-1
 140 1749.29980469 l 1,9,-1
 140 2027.70019531 l 1,10,-1
 418.400390625 2027.70019531 l 1,11,-1
 1254.40039062 2027.70019531 l 1,12,-1
 1532.80078125 2027.70019531 l 1,13,-1
 1532.80078125 1749.29980469 l 1,14,-1
 1532.80078125 1318.09960938 l 1,15,-1
 1532.80078125 1126.09960938 l 1,0,-1
1254.40039062 1749.29980469 m 1,16,-1
 418.400390625 1749.29980469 l 1,17,-1
 418.400390625 1318.09960938 l 1,18,-1
 1254.40039062 1318.09960938 l 1,19,-1
 1254.40039062 1749.29980469 l 1,16,-1
EndSplineSet
EndChar

StartChar: X
Encoding: 88 88 55
Width: 1685
VWidth: 1863
GlyphClass: 1
Flags: W
LayerCount: 2
Fore
SplineSet
1540 1401.29980469 m 1,0,-1
 983.200195312 1401.29980469 l 1,1,-1
 983.200195312 1053.29980469 l 1,2,-1
 1540 1053.29980469 l 1,3,-1
 1540 225.299804688 l 1,4,-1
 1261.59960938 225.299804688 l 1,5,-1
 1261.59960938 774.900390625 l 1,6,-1
 426.400390625 774.900390625 l 1,7,-1
 426.400390625 225.299804688 l 1,8,-1
 148 225.299804688 l 1,9,-1
 148 1053.29980469 l 1,10,-1
 704.799804688 1053.29980469 l 1,11,-1
 704.799804688 1401.29980469 l 1,12,-1
 148 1401.29980469 l 1,13,-1
 148 1679.70019531 l 1,14,-1
 704.799804688 1679.70019531 l 1,15,-1
 704.799804688 2027.70019531 l 1,16,-1
 983.200195312 2027.70019531 l 1,17,-1
 983.200195312 1679.70019531 l 1,18,-1
 1540 1679.70019531 l 1,19,-1
 1540 1401.29980469 l 1,0,-1
EndSplineSet
EndChar

StartChar: Y
Encoding: 89 89 56
Width: 1687
VWidth: 1863
GlyphClass: 1
Flags: W
LayerCount: 2
Fore
SplineSet
1533.80078125 1126.09960938 m 1,0,-1
 1533.80078125 986.900390625 l 1,1,-1
 1533.80078125 225.299804688 l 1,2,-1
 1255.40039062 225.299804688 l 1,3,-1
 1255.40039062 986.900390625 l 1,4,-1
 141 986.900390625 l 1,5,-1
 141 1126.09960938 l 1,6,-1
 141 1265.29980469 l 1,7,-1
 141 2027.70019531 l 1,8,-1
 419.400390625 2027.70019531 l 1,9,-1
 419.400390625 1265.29980469 l 1,10,-1
 1255.40039062 1265.29980469 l 1,11,-1
 1255.40039062 2027.70019531 l 1,12,-1
 1533.80078125 2027.70019531 l 1,13,-1
 1533.80078125 1265.29980469 l 1,14,-1
 1533.80078125 1221.29980469 l 1,15,-1
 1533.80078125 1126.09960938 l 1,0,-1
EndSplineSet
EndChar

StartChar: Z
Encoding: 90 90 57
Width: 1681
VWidth: 1863
GlyphClass: 1
Flags: W
LayerCount: 2
Fore
SplineSet
1533.80078125 1126.09960938 m 1,0,-1
 1533.80078125 986.900390625 l 1,1,-1
 1533.80078125 225.299804688 l 1,2,-1
 1255.40039062 225.299804688 l 1,3,-1
 1255.40039062 986.900390625 l 1,4,-1
 141 986.900390625 l 1,5,-1
 141 1126.09960938 l 1,6,-1
 141 1265.29980469 l 1,7,-1
 141 2027.70019531 l 1,8,-1
 419.400390625 2027.70019531 l 1,9,-1
 419.400390625 1265.29980469 l 1,10,-1
 1533.80078125 1265.29980469 l 1,11,-1
 1533.80078125 1126.09960938 l 1,0,-1
EndSplineSet
EndChar

StartChar: bracketleft
Encoding: 91 91 58
Width: 1680
VWidth: 1926
GlyphClass: 1
Flags: W
LayerCount: 2
Fore
SplineSet
835 2186.59960938 m 256,0,1
 751 2186.59960938 751 2186.59960938 691 2246.59960938 c 0,2,3
 631.80078125 2307.40039062 631.80078125 2307.40039062 631.80078125 2390.59960938 c 128,-1,4
 631.80078125 2473.79980469 631.80078125 2473.79980469 691 2534.59960938 c 0,5,6
 751.80078125 2593.79980469 751.80078125 2593.79980469 835 2593.79980469 c 128,-1,7
 918.200195312 2593.79980469 918.200195312 2593.79980469 979 2534.59960938 c 0,8,9
 1039 2474.59960938 1039 2474.59960938 1039 2390.59960938 c 256,10,11
 1039 2306.59960938 1039 2306.59960938 979 2246.59960938 c 128,-1,12
 919 2186.59960938 919 2186.59960938 835 2186.59960938 c 256,0,1
1531.80078125 2090.59960938 m 1,13,-1
 1531.80078125 1811.40039062 l 1,14,-1
 1531.80078125 567.400390625 l 1,15,-1
 1531.80078125 288.200195312 l 1,16,-1
 1252.60058594 288.200195312 l 1,17,-1
 139 288.200195312 l 1,18,-1
 139 567.400390625 l 1,19,-1
 1252.60058594 567.400390625 l 1,20,-1
 1252.60058594 1811.40039062 l 1,21,-1
 139 1811.40039062 l 1,22,-1
 139 2090.59960938 l 1,23,-1
 1252.60058594 2090.59960938 l 1,24,-1
 1531.80078125 2090.59960938 l 1,13,-1
EndSplineSet
EndChar

StartChar: backslash
Encoding: 92 92 59
Width: 1690
VWidth: 1926
GlyphClass: 1
Flags: W
LayerCount: 2
Fore
SplineSet
845 2186.59960938 m 256,0,1
 761 2186.59960938 761 2186.59960938 701 2246.59960938 c 0,2,3
 641.80078125 2307.40039062 641.80078125 2307.40039062 641.80078125 2390.59960938 c 128,-1,4
 641.80078125 2473.79980469 641.80078125 2473.79980469 701 2534.59960938 c 0,5,6
 761.80078125 2593.79980469 761.80078125 2593.79980469 845 2593.79980469 c 128,-1,7
 928.200195312 2593.79980469 928.200195312 2593.79980469 989 2534.59960938 c 0,8,9
 1049 2474.59960938 1049 2474.59960938 1049 2390.59960938 c 256,10,11
 1049 2306.59960938 1049 2306.59960938 989 2246.59960938 c 128,-1,12
 929 2186.59960938 929 2186.59960938 845 2186.59960938 c 256,0,1
1541.80078125 2090.59960938 m 1,13,-1
 1541.80078125 1811.40039062 l 1,14,-1
 1541.80078125 567.400390625 l 1,15,-1
 1541.80078125 288.200195312 l 1,16,-1
 1262.60058594 288.200195312 l 1,17,-1
 428.200195312 288.200195312 l 1,18,-1
 149 288.200195312 l 1,19,-1
 149 567.400390625 l 1,20,-1
 149 1811.40039062 l 1,21,-1
 149 2090.59960938 l 1,22,-1
 428.200195312 2090.59960938 l 1,23,-1
 1262.60058594 2090.59960938 l 1,24,-1
 1541.80078125 2090.59960938 l 1,13,-1
428.200195312 567.400390625 m 1,25,-1
 1262.60058594 567.400390625 l 1,26,-1
 1262.60058594 1811.40039062 l 1,27,-1
 428.200195312 1811.40039062 l 1,28,-1
 428.200195312 567.400390625 l 1,25,-1
EndSplineSet
EndChar

StartChar: bracketright
Encoding: 93 93 60
Width: 1680
VWidth: 1926
GlyphClass: 1
Flags: W
LayerCount: 2
Fore
SplineSet
835 2186.59960938 m 256,0,1
 751 2186.59960938 751 2186.59960938 691 2246.59960938 c 0,2,3
 631.80078125 2307.40039062 631.80078125 2307.40039062 631.80078125 2390.59960938 c 128,-1,4
 631.80078125 2473.79980469 631.80078125 2473.79980469 691 2534.59960938 c 0,5,6
 751.80078125 2593.79980469 751.80078125 2593.79980469 835 2593.79980469 c 128,-1,7
 918.200195312 2593.79980469 918.200195312 2593.79980469 979 2534.59960938 c 0,8,9
 1039 2474.59960938 1039 2474.59960938 1039 2390.59960938 c 256,10,11
 1039 2306.59960938 1039 2306.59960938 979 2246.59960938 c 128,-1,12
 919 2186.59960938 919 2186.59960938 835 2186.59960938 c 256,0,1
1531.80078125 2090.59960938 m 1,13,-1
 1531.80078125 1811.40039062 l 1,14,-1
 1531.80078125 567.400390625 l 1,15,-1
 1531.80078125 288.200195312 l 1,16,-1
 1252.60058594 288.200195312 l 1,17,-1
 139 288.200195312 l 1,18,-1
 139 567.400390625 l 1,19,-1
 1252.60058594 567.400390625 l 1,20,-1
 1252.60058594 1811.40039062 l 1,21,-1
 139 1811.40039062 l 1,22,-1
 139 2090.59960938 l 1,23,-1
 1252.60058594 2090.59960938 l 1,24,-1
 1531.80078125 2090.59960938 l 1,13,-1
835 985.799804688 m 256,25,26
 751.80078125 985.799804688 751.80078125 985.799804688 691 1045 c 0,27,28
 631.80078125 1105.79980469 631.80078125 1105.79980469 631.80078125 1189 c 128,-1,29
 631.80078125 1272.20019531 631.80078125 1272.20019531 691 1333 c 0,30,31
 751 1393 751 1393 835 1393 c 256,32,33
 919 1393 919 1393 979 1333 c 128,-1,34
 1039 1273 1039 1273 1039 1189 c 256,35,36
 1039 1105 1039 1105 979 1045 c 0,37,38
 918.200195312 985.799804688 918.200195312 985.799804688 835 985.799804688 c 256,25,26
EndSplineSet
EndChar

StartChar: asciicircum
Encoding: 94 94 61
Width: 3388
VWidth: 1788
GlyphClass: 1
Flags: W
LayerCount: 2
Fore
SplineSet
2503.79980469 -17.7001953125 m 1,0,-1
 2783 -17.7001953125 l 1,1,-1
 2783 -472.900390625 l 1,2,-1
 2503.79980469 -472.900390625 l 1,3,-1
 2503.79980469 -472.099609375 l 1,4,-1
 876.600585938 -472.099609375 l 1,5,-1
 876.600585938 -472.900390625 l 1,6,-1
 597.400390625 -472.900390625 l 1,7,-1
 597.400390625 -17.7001953125 l 1,8,-1
 876.600585938 -17.7001953125 l 1,9,-1
 876.600585938 -193.700195312 l 1,10,-1
 2503.79980469 -193.700195312 l 1,11,-1
 2503.79980469 -17.7001953125 l 1,0,-1
2958.20019531 173.5 m 1,12,-1
 2123 173.5 l 1,13,-1
 1844.60058594 173.5 l 1,14,-1
 1844.60058594 452.700195312 l 1,15,-1
 1844.60058594 1975.90039062 l 1,16,-1
 2123 1975.90039062 l 1,17,-1
 2123 452.700195312 l 1,18,-1
 2958.20019531 452.700195312 l 1,19,-1
 2958.20019531 1975.90039062 l 1,20,-1
 3237.40039062 1975.90039062 l 1,21,-1
 3237.40039062 452.700195312 l 1,22,-1
 3237.40039062 173.5 l 1,23,-1
 2958.20019531 173.5 l 1,12,-1
1535 1975.90039062 m 1,24,-1
 1535 1696.70019531 l 1,25,-1
 1535 452.700195312 l 1,26,-1
 1535 173.5 l 1,27,-1
 1256.60058594 173.5 l 1,28,-1
 143 173.5 l 1,29,-1
 143 452.700195312 l 1,30,-1
 1256.60058594 452.700195312 l 1,31,-1
 1256.60058594 1696.70019531 l 1,32,-1
 143 1696.70019531 l 1,33,-1
 143 1975.90039062 l 1,34,-1
 1256.60058594 1975.90039062 l 1,35,-1
 1535 1975.90039062 l 1,24,-1
EndSplineSet
EndChar

StartChar: underscore
Encoding: 95 95 62
Width: 1680
VWidth: 1926
GlyphClass: 1
Flags: W
LayerCount: 2
Fore
SplineSet
845 2186.59960938 m 256,0,1
 761 2186.59960938 761 2186.59960938 701 2246.59960938 c 0,2,3
 641.80078125 2307.40039062 641.80078125 2307.40039062 641.80078125 2390.59960938 c 128,-1,4
 641.80078125 2473.79980469 641.80078125 2473.79980469 701 2534.59960938 c 0,5,6
 761.80078125 2593.79980469 761.80078125 2593.79980469 845 2593.79980469 c 128,-1,7
 928.200195312 2593.79980469 928.200195312 2593.79980469 989 2534.59960938 c 0,8,9
 1049 2474.59960938 1049 2474.59960938 1049 2390.59960938 c 256,10,11
 1049 2306.59960938 1049 2306.59960938 989 2246.59960938 c 128,-1,12
 929 2186.59960938 929 2186.59960938 845 2186.59960938 c 256,0,1
845 985.799804688 m 256,13,14
 761.80078125 985.799804688 761.80078125 985.799804688 701 1045 c 0,15,16
 641.80078125 1105.79980469 641.80078125 1105.79980469 641.80078125 1189 c 128,-1,17
 641.80078125 1272.20019531 641.80078125 1272.20019531 701 1333 c 0,18,19
 761 1393 761 1393 845 1393 c 256,20,21
 929 1393 929 1393 989 1333 c 128,-1,22
 1049 1273 1049 1273 1049 1189 c 256,23,24
 1049 1105 1049 1105 989 1045 c 0,25,26
 928.200195312 985.799804688 928.200195312 985.799804688 845 985.799804688 c 256,13,14
149 288.200195312 m 1,27,-1
 149 567.400390625 l 1,28,-1
 149 1811.40039062 l 1,29,-1
 149 2090.59960938 l 1,30,-1
 428.200195312 2090.59960938 l 1,31,-1
 1541.80078125 2090.59960938 l 1,32,-1
 1541.80078125 1811.40039062 l 1,33,-1
 428.200195312 1811.40039062 l 1,34,-1
 428.200195312 567.400390625 l 1,35,-1
 1541.80078125 567.400390625 l 1,36,-1
 1541.80078125 288.200195312 l 1,37,-1
 428.200195312 288.200195312 l 1,38,-1
 149 288.200195312 l 1,27,-1
EndSplineSet
EndChar

StartChar: a
Encoding: 97 97 63
Width: 1700
VWidth: 1863
GlyphClass: 1
Flags: WO
LayerCount: 2
Back
SplineSet
1486.5 2253 m 1,0,-1
 1835.5 2253 l 1,1,-1
 1835.5 1904 l 1,2,-1
 1835.5 0 l 1,3,-1
 1486.5 0 l 1,4,-1
 1486.5 1904 l 1,5,-1
 443.5 1904 l 1,6,-1
 443.5 0 l 1,7,-1
 94.5 0 l 1,8,-1
 94.5 1904 l 1,9,-1
 94.5 2253 l 1,10,-1
 443.5 2253 l 1,11,-1
 1486.5 2253 l 1,0,-1
EndSplineSet
Fore
SplineSet
1268.40039062 1802.40039062 m 1,0,-1
 1546.80078125 1802.40039062 l 1,1,-1
 1546.80078125 1524 l 1,2,-1
 1546.80078125 0 l 1,3,-1
 1268.40039062 0 l 1,4,-1
 1268.40039062 1524 l 1,5,-1
 432.400390625 1524 l 1,6,-1
 432.400390625 0 l 1,7,-1
 154 0 l 1,8,-1
 154 1524 l 1,9,-1
 154 1802.40039062 l 1,10,-1
 432.400390625 1802.40039062 l 1,11,-1
 1268.40039062 1802.40039062 l 1,0,-1
EndSplineSet
EndChar

StartChar: b
Encoding: 98 98 64
Width: 1689
VWidth: 1863
GlyphClass: 1
Flags: W
LayerCount: 2
Back
SplineSet
94.5 0 m 1,0,-1
 94.5 349 l 1,1,-1
 1486.5 349 l 1,2,-1
 1486.5 952 l 1,3,-1
 94.5 952 l 1,4,-1
 94.5 1300 l 1,5,-1
 790.5 1300 l 1,6,-1
 790.5 2253 l 1,7,-1
 1138.5 2253 l 1,8,-1
 1138.5 1300 l 1,9,-1
 1835.5 1300 l 1,10,-1
 1835.5 1007 l 1,11,-1
 1835.5 952 l 1,12,-1
 1835.5 349 l 1,13,-1
 1835.5 0 l 1,14,-1
 1486.5 0 l 1,15,-1
 94.5 0 l 1,0,-1
EndSplineSet
Fore
SplineSet
150 225.299804688 m 1,0,-1
 150 503.700195312 l 1,1,-1
 1264.40039062 503.700195312 l 1,2,-1
 1264.40039062 986.900390625 l 1,3,-1
 150 986.900390625 l 1,4,-1
 150 1265.29980469 l 1,5,-1
 706.80078125 1265.29980469 l 1,6,-1
 706.80078125 2027.70019531 l 1,7,-1
 985.200195312 2027.70019531 l 1,8,-1
 985.200195312 1265.29980469 l 1,9,-1
 1542.80078125 1265.29980469 l 1,10,-1
 1542.80078125 1031.70019531 l 1,11,-1
 1542.80078125 986.900390625 l 1,12,-1
 1542.80078125 503.700195312 l 1,13,-1
 1542.80078125 225.299804688 l 1,14,-1
 1264.40039062 225.299804688 l 1,15,-1
 150 225.299804688 l 1,0,-1
EndSplineSet
EndChar

StartChar: c
Encoding: 99 99 65
Width: 1651
VWidth: 1863
GlyphClass: 1
Flags: W
LayerCount: 2
Fore
SplineSet
416.400390625 1404.5 m 1,0,-1
 973.200195312 1404.5 l 1,1,-1
 973.200195312 503.700195312 l 1,2,-1
 1530 503.700195312 l 1,3,-1
 1530 225.299804688 l 1,4,-1
 694.799804688 225.299804688 l 1,5,-1
 694.799804688 1126.09960938 l 1,6,-1
 138 1126.09960938 l 1,7,-1
 138 2027.70019531 l 1,8,-1
 973.200195312 2027.70019531 l 1,9,-1
 973.200195312 1749.29980469 l 1,10,-1
 416.400390625 1749.29980469 l 1,11,-1
 416.400390625 1404.5 l 1,0,-1
EndSplineSet
EndChar

StartChar: d
Encoding: 100 100 66
Width: 1689
VWidth: 1863
GlyphClass: 1
Flags: W
LayerCount: 2
Back
SplineSet
1835.5 0 m 1,0,-1
 443.5 0 l 1,1,-1
 94.5 0 l 1,2,-1
 94.5 349 l 1,3,-1
 94.5 952 l 1,4,-1
 94.5 1007 l 1,5,-1
 94.5 1300 l 1,6,-1
 790.5 1300 l 1,7,-1
 790.5 2253 l 1,8,-1
 1138.5 2253 l 1,9,-1
 1138.5 1300 l 1,10,-1
 1835.5 1300 l 1,11,-1
 1835.5 952 l 1,12,-1
 443.5 952 l 1,13,-1
 443.5 349 l 1,14,-1
 1835.5 349 l 1,15,-1
 1835.5 0 l 1,0,-1
EndSplineSet
Fore
SplineSet
1543.80078125 225.299804688 m 1,0,-1
 429.400390625 225.299804688 l 1,1,-1
 151 225.299804688 l 1,2,-1
 151 503.700195312 l 1,3,-1
 151 986.900390625 l 1,4,-1
 151 1031.70019531 l 1,5,-1
 151 1265.29980469 l 1,6,-1
 707.80078125 1265.29980469 l 1,7,-1
 707.80078125 2027.70019531 l 1,8,-1
 986.200195312 2027.70019531 l 1,9,-1
 986.200195312 1265.29980469 l 1,10,-1
 1543.80078125 1265.29980469 l 1,11,-1
 1543.80078125 986.900390625 l 1,12,-1
 429.400390625 986.900390625 l 1,13,-1
 429.400390625 503.700195312 l 1,14,-1
 1543.80078125 503.700195312 l 1,15,-1
 1543.80078125 225.299804688 l 1,0,-1
EndSplineSet
EndChar

StartChar: e
Encoding: 101 101 67
Width: 1696
VWidth: 1863
GlyphClass: 1
Flags: W
LayerCount: 2
Back
SplineSet
94.5 0 m 1,0,-1
 94.5 349 l 1,1,-1
 94.5 1904 l 1,2,-1
 94.5 2253 l 1,3,-1
 443.5 2253 l 1,4,-1
 1835.5 2253 l 1,5,-1
 1835.5 1904 l 1,6,-1
 443.5 1904 l 1,7,-1
 443.5 349 l 1,8,-1
 1835.5 349 l 1,9,-1
 1835.5 0 l 1,10,-1
 443.5 0 l 1,11,-1
 94.5 0 l 1,0,-1
EndSplineSet
Fore
SplineSet
154 225.299804688 m 1,0,-1
 154 503.700195312 l 1,1,-1
 154 1749.29980469 l 1,2,-1
 154 2027.70019531 l 1,3,-1
 432.400390625 2027.70019531 l 1,4,-1
 1546.80078125 2027.70019531 l 1,5,-1
 1546.80078125 1749.29980469 l 1,6,-1
 432.400390625 1749.29980469 l 1,7,-1
 432.400390625 503.700195312 l 1,8,-1
 1546.80078125 503.700195312 l 1,9,-1
 1546.80078125 225.299804688 l 1,10,-1
 432.400390625 225.299804688 l 1,11,-1
 154 225.299804688 l 1,0,-1
EndSplineSet
EndChar

StartChar: f
Encoding: 102 102 68
Width: 1687
VWidth: 1863
GlyphClass: 1
Flags: W
LayerCount: 2
Fore
SplineSet
1533.80078125 1126.09960938 m 1,0,-1
 1533.80078125 986.900390625 l 1,1,-1
 1533.80078125 225.299804688 l 1,2,-1
 1255.40039062 225.299804688 l 1,3,-1
 1255.40039062 986.900390625 l 1,4,-1
 141 986.900390625 l 1,5,-1
 141 1265.29980469 l 1,6,-1
 1533.80078125 1265.29980469 l 1,7,-1
 1533.80078125 1126.09960938 l 1,0,-1
141 1749.29980469 m 1,8,-1
 141 2027.70019531 l 1,9,-1
 1533.80078125 2027.70019531 l 1,10,-1
 1533.80078125 1749.29980469 l 1,11,-1
 141 1749.29980469 l 1,8,-1
EndSplineSet
EndChar

StartChar: g
Encoding: 103 103 69
Width: 1700
VWidth: 1863
GlyphClass: 1
Flags: W
LayerCount: 2
Back
SplineSet
1835.5 1904 m 1,0,-1
 94.5 1904 l 1,1,-1
 94.5 2253 l 1,2,-1
 1835.5 2253 l 1,3,-1
 1835.5 1904 l 1,0,-1
1835.5 1126 m 1,4,-1
 1835.5 952 l 1,5,-1
 1835.5 349 l 1,6,-1
 1835.5 0 l 1,7,-1
 1486.5 0 l 1,8,-1
 443.5 0 l 1,9,-1
 94.5 0 l 1,10,-1
 94.5 349 l 1,11,-1
 94.5 952 l 1,12,-1
 94.5 1126 l 1,13,-1
 94.5 1300 l 1,14,-1
 1835.5 1300 l 1,15,-1
 1835.5 1126 l 1,4,-1
1486.5 349 m 1,16,-1
 1486.5 952 l 1,17,-1
 443.5 952 l 1,18,-1
 443.5 349 l 1,19,-1
 1486.5 349 l 1,16,-1
EndSplineSet
Fore
SplineSet
1546.80078125 1749.29980469 m 1,0,-1
 154 1749.29980469 l 1,1,-1
 154 2027.70019531 l 1,2,-1
 1546.80078125 2027.70019531 l 1,3,-1
 1546.80078125 1749.29980469 l 1,0,-1
1546.80078125 1126.09960938 m 1,4,-1
 1546.80078125 986.900390625 l 1,5,-1
 1546.80078125 503.700195312 l 1,6,-1
 1546.80078125 225.299804688 l 1,7,-1
 1268.40039062 225.299804688 l 1,8,-1
 432.400390625 225.299804688 l 1,9,-1
 154 225.299804688 l 1,10,-1
 154 503.700195312 l 1,11,-1
 154 986.900390625 l 1,12,-1
 154 1126.09960938 l 1,13,-1
 154 1265.29980469 l 1,14,-1
 1546.80078125 1265.29980469 l 1,15,-1
 1546.80078125 1126.09960938 l 1,4,-1
1268.40039062 503.700195312 m 1,16,-1
 1268.40039062 986.900390625 l 1,17,-1
 432.400390625 986.900390625 l 1,18,-1
 432.400390625 503.700195312 l 1,19,-1
 1268.40039062 503.700195312 l 1,16,-1
EndSplineSet
EndChar

StartChar: h
Encoding: 104 104 70
Width: 1664
VWidth: 1863
GlyphClass: 1
Flags: W
LayerCount: 2
Fore
SplineSet
1232.40039062 2027.70019531 m 1,0,-1
 1510.80078125 2027.70019531 l 1,1,-1
 1510.80078125 1265.29980469 l 1,2,-1
 1510.80078125 986.900390625 l 1,3,-1
 1510.80078125 225.299804688 l 1,4,-1
 1232.40039062 225.299804688 l 1,5,-1
 1232.40039062 986.900390625 l 1,6,-1
 118 986.900390625 l 1,7,-1
 118 1265.29980469 l 1,8,-1
 1232.40039062 1265.29980469 l 1,9,-1
 1232.40039062 2027.70019531 l 1,0,-1
EndSplineSet
EndChar

StartChar: i
Encoding: 105 105 71
Width: 1696
VWidth: 1863
GlyphClass: 1
Flags: W
LayerCount: 2
Back
SplineSet
1835.5 2253 m 1,0,-1
 1835.5 1904 l 1,1,-1
 1835.5 349 l 1,2,-1
 1835.5 0 l 1,3,-1
 1486.5 0 l 1,4,-1
 94.5 0 l 1,5,-1
 94.5 349 l 1,6,-1
 1486.5 349 l 1,7,-1
 1486.5 1904 l 1,8,-1
 94.5 1904 l 1,9,-1
 94.5 2253 l 1,10,-1
 1486.5 2253 l 1,11,-1
 1835.5 2253 l 1,0,-1
EndSplineSet
Fore
SplineSet
1542.80078125 2027.70019531 m 1,0,-1
 1542.80078125 1749.29980469 l 1,1,-1
 1542.80078125 503.700195312 l 1,2,-1
 1542.80078125 225.299804688 l 1,3,-1
 1264.40039062 225.299804688 l 1,4,-1
 150 225.299804688 l 1,5,-1
 150 503.700195312 l 1,6,-1
 1264.40039062 503.700195312 l 1,7,-1
 1264.40039062 1749.29980469 l 1,8,-1
 150 1749.29980469 l 1,9,-1
 150 2027.70019531 l 1,10,-1
 1264.40039062 2027.70019531 l 1,11,-1
 1542.80078125 2027.70019531 l 1,0,-1
EndSplineSet
EndChar

StartChar: j
Encoding: 106 106 72
Width: 1682
VWidth: 1863
GlyphClass: 1
Flags: W
LayerCount: 2
Back
SplineSet
98.5 0 m 1,0,-1
 98.5 349 l 1,1,-1
 1490.5 349 l 1,2,-1
 1490.5 2253 l 1,3,-1
 1839.5 2253 l 1,4,-1
 1839.5 349 l 1,5,-1
 1839.5 0 l 1,6,-1
 1490.5 0 l 1,7,-1
 98.5 0 l 1,0,-1
EndSplineSet
Fore
SplineSet
136 225.299804688 m 1,0,-1
 136 503.700195312 l 1,1,-1
 1250.40039062 503.700195312 l 1,2,-1
 1250.40039062 2027.70019531 l 1,3,-1
 1528.80078125 2027.70019531 l 1,4,-1
 1528.80078125 503.700195312 l 1,5,-1
 1528.80078125 225.299804688 l 1,6,-1
 1250.40039062 225.299804688 l 1,7,-1
 136 225.299804688 l 1,0,-1
EndSplineSet
EndChar

StartChar: k
Encoding: 107 107 73
Width: 1632
VWidth: 1863
GlyphClass: 1
Flags: W
LayerCount: 2
Fore
SplineSet
118 1749.29980469 m 1,0,-1
 118 2027.70019531 l 1,1,-1
 674.80078125 2027.70019531 l 1,2,-1
 924.400390625 2027.70019531 l 1,3,-1
 953.200195312 2027.70019531 l 1,4,-1
 953.200195312 503.700195312 l 1,5,-1
 1510.80078125 503.700195312 l 1,6,-1
 1510.80078125 225.299804688 l 1,7,-1
 953.200195312 225.299804688 l 1,8,-1
 704.400390625 225.299804688 l 1,9,-1
 674.80078125 225.299804688 l 1,10,-1
 674.80078125 1749.29980469 l 1,11,-1
 118 1749.29980469 l 1,0,-1
EndSplineSet
EndChar

StartChar: l
Encoding: 108 108 74
Width: 1671
VWidth: 1863
GlyphClass: 1
Flags: W
LayerCount: 2
Back
SplineSet
1835.5 0 m 1,0,-1
 443.5 0 l 1,1,-1
 94.5 0 l 1,2,-1
 94.5 349 l 1,3,-1
 94.5 2253 l 1,4,-1
 443.5 2253 l 1,5,-1
 443.5 349 l 1,6,-1
 1835.5 349 l 1,7,-1
 1835.5 0 l 1,0,-1
EndSplineSet
Fore
SplineSet
1546.80078125 225.299804688 m 1,0,-1
 432.400390625 225.299804688 l 1,1,-1
 154 225.299804688 l 1,2,-1
 154 503.700195312 l 1,3,-1
 154 2027.70019531 l 1,4,-1
 432.400390625 2027.70019531 l 1,5,-1
 432.400390625 503.700195312 l 1,6,-1
 1546.80078125 503.700195312 l 1,7,-1
 1546.80078125 225.299804688 l 1,0,-1
EndSplineSet
EndChar

StartChar: m
Encoding: 109 109 75
Width: 1629
VWidth: 1863
GlyphClass: 1
Flags: W
LayerCount: 2
Fore
SplineSet
117 1749.29980469 m 1,0,-1
 117 2027.70019531 l 1,1,-1
 673.80078125 2027.70019531 l 1,2,-1
 923.400390625 2027.70019531 l 1,3,-1
 952.200195312 2027.70019531 l 1,4,-1
 952.200195312 1265.29980469 l 1,5,-1
 1242.60058594 1265.29980469 l 1,6,-1
 1242.60058594 986.900390625 l 1,7,-1
 952.200195312 986.900390625 l 1,8,-1
 952.200195312 503.700195312 l 1,9,-1
 1509.80078125 503.700195312 l 1,10,-1
 1509.80078125 225.299804688 l 1,11,-1
 952.200195312 225.299804688 l 1,12,-1
 703.400390625 225.299804688 l 1,13,-1
 673.80078125 225.299804688 l 1,14,-1
 673.80078125 986.900390625 l 1,15,-1
 384.200195312 986.900390625 l 1,16,-1
 384.200195312 1265.29980469 l 1,17,-1
 673.80078125 1265.29980469 l 1,18,-1
 673.80078125 1749.29980469 l 1,19,-1
 117 1749.29980469 l 1,0,-1
EndSplineSet
EndChar

StartChar: n
Encoding: 110 110 76
Width: 1644
VWidth: 1863
GlyphClass: 1
Flags: W
LayerCount: 2
Fore
SplineSet
1522.80078125 1749.29980469 m 1,0,-1
 965.200195312 1749.29980469 l 1,1,-1
 965.200195312 1265.29980469 l 1,2,-1
 1255.60058594 1265.29980469 l 1,3,-1
 1255.60058594 986.900390625 l 1,4,-1
 965.200195312 986.900390625 l 1,5,-1
 965.200195312 225.299804688 l 1,6,-1
 936.400390625 225.299804688 l 1,7,-1
 686.80078125 225.299804688 l 1,8,-1
 130 225.299804688 l 1,9,-1
 130 503.700195312 l 1,10,-1
 686.80078125 503.700195312 l 1,11,-1
 686.80078125 986.900390625 l 1,12,-1
 397.200195312 986.900390625 l 1,13,-1
 397.200195312 1265.29980469 l 1,14,-1
 686.80078125 1265.29980469 l 1,15,-1
 686.80078125 2027.70019531 l 1,16,-1
 716.400390625 2027.70019531 l 1,17,-1
 965.200195312 2027.70019531 l 1,18,-1
 1522.80078125 2027.70019531 l 1,19,-1
 1522.80078125 1749.29980469 l 1,0,-1
EndSplineSet
EndChar

StartChar: o
Encoding: 111 111 77
Width: 1700
VWidth: 1863
GlyphClass: 1
Flags: W
LayerCount: 2
Back
SplineSet
1835.5 2253 m 1,0,-1
 1835.5 1904 l 1,1,-1
 1835.5 349 l 1,2,-1
 1835.5 0 l 1,3,-1
 1486.5 0 l 1,4,-1
 443.5 0 l 1,5,-1
 94.5 0 l 1,6,-1
 94.5 349 l 1,7,-1
 94.5 1904 l 1,8,-1
 94.5 2253 l 1,9,-1
 443.5 2253 l 1,10,-1
 1486.5 2253 l 1,11,-1
 1835.5 2253 l 1,0,-1
443.5 349 m 1,12,-1
 1486.5 349 l 1,13,-1
 1486.5 1904 l 1,14,-1
 443.5 1904 l 1,15,-1
 443.5 349 l 1,12,-1
EndSplineSet
Fore
SplineSet
1546.80078125 2027.70019531 m 1,0,-1
 1546.80078125 1749.29980469 l 1,1,-1
 1546.80078125 503.700195312 l 1,2,-1
 1546.80078125 225.299804688 l 1,3,-1
 1268.40039062 225.299804688 l 1,4,-1
 432.400390625 225.299804688 l 1,5,-1
 154 225.299804688 l 1,6,-1
 154 503.700195312 l 1,7,-1
 154 1749.29980469 l 1,8,-1
 154 2027.70019531 l 1,9,-1
 432.400390625 2027.70019531 l 1,10,-1
 1268.40039062 2027.70019531 l 1,11,-1
 1546.80078125 2027.70019531 l 1,0,-1
432.400390625 503.700195312 m 1,12,-1
 1268.40039062 503.700195312 l 1,13,-1
 1268.40039062 1749.29980469 l 1,14,-1
 432.400390625 1749.29980469 l 1,15,-1
 432.400390625 503.700195312 l 1,12,-1
EndSplineSet
EndChar

StartChar: p
Encoding: 112 112 78
Width: 1673
VWidth: 1863
GlyphClass: 1
Flags: W
LayerCount: 2
Back
SplineSet
1835.5 2253 m 1,0,-1
 1835.5 1904 l 1,1,-1
 443.5 1904 l 1,2,-1
 443.5 1300 l 1,3,-1
 1835.5 1300 l 1,4,-1
 1835.5 952 l 1,5,-1
 1138.5 952 l 1,6,-1
 1138.5 0 l 1,7,-1
 790.5 0 l 1,8,-1
 790.5 952 l 1,9,-1
 94.5 952 l 1,10,-1
 94.5 1246 l 1,11,-1
 94.5 1300 l 1,12,-1
 94.5 1904 l 1,13,-1
 94.5 2253 l 1,14,-1
 443.5 2253 l 1,15,-1
 1835.5 2253 l 1,0,-1
EndSplineSet
Fore
SplineSet
1532.80078125 2027.70019531 m 1,0,-1
 1532.80078125 1749.29980469 l 1,1,-1
 418.400390625 1749.29980469 l 1,2,-1
 418.400390625 1265.29980469 l 1,3,-1
 1532.80078125 1265.29980469 l 1,4,-1
 1532.80078125 986.900390625 l 1,5,-1
 975.200195312 986.900390625 l 1,6,-1
 975.200195312 225.299804688 l 1,7,-1
 696.80078125 225.299804688 l 1,8,-1
 696.80078125 986.900390625 l 1,9,-1
 140 986.900390625 l 1,10,-1
 140 1221.29980469 l 1,11,-1
 140 1265.29980469 l 1,12,-1
 140 1749.29980469 l 1,13,-1
 140 2027.70019531 l 1,14,-1
 418.400390625 2027.70019531 l 1,15,-1
 1532.80078125 2027.70019531 l 1,0,-1
EndSplineSet
EndChar

StartChar: r
Encoding: 114 114 79
Width: 1672
VWidth: 1863
GlyphClass: 1
Flags: W
LayerCount: 2
Back
SplineSet
94.5 2253 m 1,0,-1
 1486.5 2253 l 1,1,-1
 1835.5 2253 l 1,2,-1
 1835.5 1904 l 1,3,-1
 1835.5 1300 l 1,4,-1
 1835.5 1246 l 1,5,-1
 1835.5 952 l 1,6,-1
 1138.5 952 l 1,7,-1
 1138.5 0 l 1,8,-1
 790.5 0 l 1,9,-1
 790.5 952 l 1,10,-1
 94.5 952 l 1,11,-1
 94.5 1300 l 1,12,-1
 1486.5 1300 l 1,13,-1
 1486.5 1904 l 1,14,-1
 94.5 1904 l 1,15,-1
 94.5 2253 l 1,0,-1
EndSplineSet
Fore
SplineSet
138 2027.70019531 m 1,0,-1
 1252.40039062 2027.70019531 l 1,1,-1
 1530.80078125 2027.70019531 l 1,2,-1
 1530.80078125 1749.29980469 l 1,3,-1
 1530.80078125 1265.29980469 l 1,4,-1
 1530.80078125 1221.29980469 l 1,5,-1
 1530.80078125 986.900390625 l 1,6,-1
 973.200195312 986.900390625 l 1,7,-1
 973.200195312 225.299804688 l 1,8,-1
 694.80078125 225.299804688 l 1,9,-1
 694.80078125 986.900390625 l 1,10,-1
 138 986.900390625 l 1,11,-1
 138 1265.29980469 l 1,12,-1
 1252.40039062 1265.29980469 l 1,13,-1
 1252.40039062 1749.29980469 l 1,14,-1
 138 1749.29980469 l 1,15,-1
 138 2027.70019531 l 1,0,-1
EndSplineSet
EndChar

StartChar: s
Encoding: 115 115 80
Width: 1700
VWidth: 1863
GlyphClass: 1
Flags: W
LayerCount: 2
Back
SplineSet
1835.5 1904 m 1,0,-1
 94.5 1904 l 1,1,-1
 94.5 2253 l 1,2,-1
 1835.5 2253 l 1,3,-1
 1835.5 1904 l 1,0,-1
1835.5 0 m 1,4,-1
 443.5 0 l 1,5,-1
 94.5 0 l 1,6,-1
 94.5 349 l 1,7,-1
 94.5 952 l 1,8,-1
 94.5 1126 l 1,9,-1
 94.5 1300 l 1,10,-1
 1835.5 1300 l 1,11,-1
 1835.5 952 l 1,12,-1
 443.5 952 l 1,13,-1
 443.5 349 l 1,14,-1
 1835.5 349 l 1,15,-1
 1835.5 0 l 1,4,-1
EndSplineSet
Fore
SplineSet
1546.80078125 1749.29980469 m 1,0,-1
 154 1749.29980469 l 1,1,-1
 154 2027.70019531 l 1,2,-1
 1546.80078125 2027.70019531 l 1,3,-1
 1546.80078125 1749.29980469 l 1,0,-1
1546.80078125 225.299804688 m 1,4,-1
 432.400390625 225.299804688 l 1,5,-1
 154 225.299804688 l 1,6,-1
 154 503.700195312 l 1,7,-1
 154 986.900390625 l 1,8,-1
 154 1126.09960938 l 1,9,-1
 154 1265.29980469 l 1,10,-1
 1546.80078125 1265.29980469 l 1,11,-1
 1546.80078125 986.900390625 l 1,12,-1
 432.400390625 986.900390625 l 1,13,-1
 432.400390625 503.700195312 l 1,14,-1
 1546.80078125 503.700195312 l 1,15,-1
 1546.80078125 225.299804688 l 1,4,-1
EndSplineSet
EndChar

StartChar: t
Encoding: 116 116 81
Width: 1646
VWidth: 1863
GlyphClass: 1
Flags: W
LayerCount: 2
Fore
SplineSet
132 225.299804688 m 1,0,-1
 132 503.700195312 l 1,1,-1
 688.80078125 503.700195312 l 1,2,-1
 688.80078125 2027.70019531 l 1,3,-1
 967.200195312 2027.70019531 l 1,4,-1
 967.200195312 503.700195312 l 1,5,-1
 1524.80078125 503.700195312 l 1,6,-1
 1524.80078125 225.299804688 l 1,7,-1
 967.200195312 225.299804688 l 1,8,-1
 688.80078125 225.299804688 l 1,9,-1
 132 225.299804688 l 1,0,-1
EndSplineSet
EndChar

StartChar: u
Encoding: 117 117 82
Width: 1700
VWidth: 1863
GlyphClass: 1
Flags: W
LayerCount: 2
Back
SplineSet
1486.5 0 m 1,0,-1
 443.5 0 l 1,1,-1
 94.5 0 l 1,2,-1
 94.5 349 l 1,3,-1
 94.5 2253 l 1,4,-1
 443.5 2253 l 1,5,-1
 443.5 349 l 1,6,-1
 1486.5 349 l 1,7,-1
 1486.5 2253 l 1,8,-1
 1835.5 2253 l 1,9,-1
 1835.5 349 l 1,10,-1
 1835.5 0 l 1,11,-1
 1486.5 0 l 1,0,-1
EndSplineSet
Fore
SplineSet
1268.40039062 225.299804688 m 1,0,-1
 432.400390625 225.299804688 l 1,1,-1
 154 225.299804688 l 1,2,-1
 154 503.700195312 l 1,3,-1
 154 2027.70019531 l 1,4,-1
 432.400390625 2027.70019531 l 1,5,-1
 432.400390625 503.700195312 l 1,6,-1
 1268.40039062 503.700195312 l 1,7,-1
 1268.40039062 2027.70019531 l 1,8,-1
 1546.80078125 2027.70019531 l 1,9,-1
 1546.80078125 503.700195312 l 1,10,-1
 1546.80078125 225.299804688 l 1,11,-1
 1268.40039062 225.299804688 l 1,0,-1
EndSplineSet
EndChar

StartChar: v
Encoding: 118 118 83
Width: 1688
VWidth: 1863
GlyphClass: 1
Flags: W
LayerCount: 2
Back
SplineSet
1835.5 1126 m 1,0,-1
 1835.5 888 l 1,1,-1
 1835.5 349 l 1,2,-1
 1835.5 0 l 1,3,-1
 1486.5 0 l 1,4,-1
 443.5 0 l 1,5,-1
 94.5 0 l 1,6,-1
 94.5 349 l 1,7,-1
 94.5 888 l 1,8,-1
 94.5 1126 l 1,9,-1
 94.5 1236 l 1,10,-1
 790.5 1236 l 1,11,-1
 790.5 2253 l 1,12,-1
 1138.5 2253 l 1,13,-1
 1138.5 1236 l 1,14,-1
 1835.5 1236 l 1,15,-1
 1835.5 1126 l 1,0,-1
1486.5 349 m 1,16,-1
 1486.5 888 l 1,17,-1
 443.5 888 l 1,18,-1
 443.5 349 l 1,19,-1
 1486.5 349 l 1,16,-1
EndSplineSet
Fore
SplineSet
1542.80078125 1126.09960938 m 1,0,-1
 1542.80078125 936.5 l 1,1,-1
 1542.80078125 503.700195312 l 1,2,-1
 1542.80078125 225.299804688 l 1,3,-1
 1264.40039062 225.299804688 l 1,4,-1
 428.400390625 225.299804688 l 1,5,-1
 150 225.299804688 l 1,6,-1
 150 503.700195312 l 1,7,-1
 150 936.5 l 1,8,-1
 150 1126.09960938 l 1,9,-1
 150 1214.90039062 l 1,10,-1
 706.80078125 1214.90039062 l 1,11,-1
 706.80078125 2027.70019531 l 1,12,-1
 985.200195312 2027.70019531 l 1,13,-1
 985.200195312 1214.90039062 l 1,14,-1
 1542.80078125 1214.90039062 l 1,15,-1
 1542.80078125 1126.09960938 l 1,0,-1
1264.40039062 503.700195312 m 1,16,-1
 1264.40039062 936.5 l 1,17,-1
 428.400390625 936.5 l 1,18,-1
 428.400390625 503.700195312 l 1,19,-1
 1264.40039062 503.700195312 l 1,16,-1
EndSplineSet
EndChar

StartChar: w
Encoding: 119 119 84
Width: 1674
VWidth: 1863
GlyphClass: 1
Flags: W
LayerCount: 2
Back
SplineSet
1835.5 1126 m 1,0,-1
 1835.5 1016 l 1,1,-1
 1138.5 1016 l 1,2,-1
 1138.5 0 l 1,3,-1
 790.5 0 l 1,4,-1
 790.5 1016 l 1,5,-1
 94.5 1016 l 1,6,-1
 94.5 1126 l 1,7,-1
 94.5 1365 l 1,8,-1
 94.5 1904 l 1,9,-1
 94.5 2253 l 1,10,-1
 443.5 2253 l 1,11,-1
 1486.5 2253 l 1,12,-1
 1835.5 2253 l 1,13,-1
 1835.5 1904 l 1,14,-1
 1835.5 1365 l 1,15,-1
 1835.5 1126 l 1,0,-1
1486.5 1904 m 1,16,-1
 443.5 1904 l 1,17,-1
 443.5 1365 l 1,18,-1
 1486.5 1365 l 1,19,-1
 1486.5 1904 l 1,16,-1
EndSplineSet
Fore
SplineSet
1532.80078125 1126.09960938 m 1,0,-1
 1532.80078125 1038.09960938 l 1,1,-1
 975.200195312 1038.09960938 l 1,2,-1
 975.200195312 225.299804688 l 1,3,-1
 696.80078125 225.299804688 l 1,4,-1
 696.80078125 1038.09960938 l 1,5,-1
 140 1038.09960938 l 1,6,-1
 140 1126.09960938 l 1,7,-1
 140 1318.09960938 l 1,8,-1
 140 1749.29980469 l 1,9,-1
 140 2027.70019531 l 1,10,-1
 418.400390625 2027.70019531 l 1,11,-1
 1254.40039062 2027.70019531 l 1,12,-1
 1532.80078125 2027.70019531 l 1,13,-1
 1532.80078125 1749.29980469 l 1,14,-1
 1532.80078125 1318.09960938 l 1,15,-1
 1532.80078125 1126.09960938 l 1,0,-1
1254.40039062 1749.29980469 m 1,16,-1
 418.400390625 1749.29980469 l 1,17,-1
 418.400390625 1318.09960938 l 1,18,-1
 1254.40039062 1318.09960938 l 1,19,-1
 1254.40039062 1749.29980469 l 1,16,-1
EndSplineSet
EndChar

StartChar: x
Encoding: 120 120 85
Width: 1685
VWidth: 1863
GlyphClass: 1
Flags: W
LayerCount: 2
Fore
SplineSet
1540 1401.29980469 m 1,0,-1
 983.200195312 1401.29980469 l 1,1,-1
 983.200195312 1053.29980469 l 1,2,-1
 1540 1053.29980469 l 1,3,-1
 1540 225.299804688 l 1,4,-1
 1261.59960938 225.299804688 l 1,5,-1
 1261.59960938 774.900390625 l 1,6,-1
 426.400390625 774.900390625 l 1,7,-1
 426.400390625 225.299804688 l 1,8,-1
 148 225.299804688 l 1,9,-1
 148 1053.29980469 l 1,10,-1
 704.799804688 1053.29980469 l 1,11,-1
 704.799804688 1401.29980469 l 1,12,-1
 148 1401.29980469 l 1,13,-1
 148 1679.70019531 l 1,14,-1
 704.799804688 1679.70019531 l 1,15,-1
 704.799804688 2027.70019531 l 1,16,-1
 983.200195312 2027.70019531 l 1,17,-1
 983.200195312 1679.70019531 l 1,18,-1
 1540 1679.70019531 l 1,19,-1
 1540 1401.29980469 l 1,0,-1
EndSplineSet
EndChar

StartChar: y
Encoding: 121 121 86
Width: 1687
VWidth: 1863
GlyphClass: 1
Flags: W
LayerCount: 2
Fore
SplineSet
1533.80078125 1126.09960938 m 1,0,-1
 1533.80078125 986.900390625 l 1,1,-1
 1533.80078125 225.299804688 l 1,2,-1
 1255.40039062 225.299804688 l 1,3,-1
 1255.40039062 986.900390625 l 1,4,-1
 141 986.900390625 l 1,5,-1
 141 1126.09960938 l 1,6,-1
 141 1265.29980469 l 1,7,-1
 141 2027.70019531 l 1,8,-1
 419.400390625 2027.70019531 l 1,9,-1
 419.400390625 1265.29980469 l 1,10,-1
 1255.40039062 1265.29980469 l 1,11,-1
 1255.40039062 2027.70019531 l 1,12,-1
 1533.80078125 2027.70019531 l 1,13,-1
 1533.80078125 1265.29980469 l 1,14,-1
 1533.80078125 1221.29980469 l 1,15,-1
 1533.80078125 1126.09960938 l 1,0,-1
EndSplineSet
EndChar

StartChar: z
Encoding: 122 122 87
Width: 1681
VWidth: 1863
GlyphClass: 1
Flags: W
LayerCount: 2
Fore
SplineSet
1533.80078125 1126.09960938 m 1,0,-1
 1533.80078125 986.900390625 l 1,1,-1
 1533.80078125 225.299804688 l 1,2,-1
 1255.40039062 225.299804688 l 1,3,-1
 1255.40039062 986.900390625 l 1,4,-1
 141 986.900390625 l 1,5,-1
 141 1126.09960938 l 1,6,-1
 141 1265.29980469 l 1,7,-1
 141 2027.70019531 l 1,8,-1
 419.400390625 2027.70019531 l 1,9,-1
 419.400390625 1265.29980469 l 1,10,-1
 1533.80078125 1265.29980469 l 1,11,-1
 1533.80078125 1126.09960938 l 1,0,-1
EndSplineSet
EndChar

StartChar: braceleft
Encoding: 123 123 88
Width: 3401
VWidth: 1848
GlyphClass: 1
Flags: W
LayerCount: 2
Fore
SplineSet
1695.59960938 2108.70019531 m 256,0,1
 1611.59960938 2108.70019531 1611.59960938 2108.70019531 1552.39941406 2168.70019531 c 0,2,3
 1492.39941406 2228.70019531 1492.39941406 2228.70019531 1492.39941406 2312.70019531 c 256,4,5
 1492.39941406 2396.70019531 1492.39941406 2396.70019531 1552.39941406 2456.70019531 c 0,6,7
 1611.59960938 2515.90039062 1611.59960938 2515.90039062 1695.59960938 2515.90039062 c 0,8,9
 1778.79980469 2515.90039062 1778.79980469 2515.90039062 1839.59960938 2456.70019531 c 0,10,11
 1899.59960938 2396.70019531 1899.59960938 2396.70019531 1899.59960938 2312.70019531 c 256,12,13
 1899.59960938 2228.70019531 1899.59960938 2228.70019531 1839.59960938 2168.70019531 c 128,-1,14
 1779.59960938 2108.70019531 1779.59960938 2108.70019531 1695.59960938 2108.70019531 c 256,0,1
2510.79980469 42.2998046875 m 1,15,-1
 2790 42.2998046875 l 1,16,-1
 2790 -412.900390625 l 1,17,-1
 2510.79980469 -412.900390625 l 1,18,-1
 2510.79980469 -412.099609375 l 1,19,-1
 883.599609375 -412.099609375 l 1,20,-1
 883.599609375 -412.900390625 l 1,21,-1
 604.399414062 -412.900390625 l 1,22,-1
 604.399414062 42.2998046875 l 1,23,-1
 883.599609375 42.2998046875 l 1,24,-1
 883.599609375 -133.700195312 l 1,25,-1
 2510.79980469 -133.700195312 l 1,26,-1
 2510.79980469 42.2998046875 l 1,15,-1
2972.39941406 2035.90039062 m 1,27,-1
 3251.59960938 2035.90039062 l 1,28,-1
 3251.59960938 1756.70019531 l 1,29,-1
 3251.59960938 233.5 l 1,30,-1
 2972.39941406 233.5 l 1,31,-1
 2972.39941406 1756.70019531 l 1,32,-1
 2137.20019531 1756.70019531 l 1,33,-1
 2137.20019531 233.5 l 1,34,-1
 1858.79980469 233.5 l 1,35,-1
 1858.79980469 1756.70019531 l 1,36,-1
 1858.79980469 2035.90039062 l 1,37,-1
 2137.20019531 2035.90039062 l 1,38,-1
 2972.39941406 2035.90039062 l 1,27,-1
1542 2035.90039062 m 1,39,-1
 1542 1756.70019531 l 1,40,-1
 1542 512.700195312 l 1,41,-1
 1542 233.5 l 1,42,-1
 1263.59960938 233.5 l 1,43,-1
 429.200195312 233.5 l 1,44,-1
 150 233.5 l 1,45,-1
 150 512.700195312 l 1,46,-1
 150 1756.70019531 l 1,47,-1
 150 2035.90039062 l 1,48,-1
 429.200195312 2035.90039062 l 1,49,-1
 1263.59960938 2035.90039062 l 1,50,-1
 1542 2035.90039062 l 1,39,-1
429.200195312 512.700195312 m 1,51,-1
 1263.59960938 512.700195312 l 1,52,-1
 1263.59960938 1756.70019531 l 1,53,-1
 429.200195312 1756.70019531 l 1,54,-1
 429.200195312 512.700195312 l 1,51,-1
EndSplineSet
EndChar

StartChar: periodcentered
Encoding: 183 183 89
Width: 1690
VWidth: 1926
GlyphClass: 1
Flags: W
LayerCount: 2
Fore
SplineSet
1262.60058594 2090.59960938 m 1,0,-1
 1541.80078125 2090.59960938 l 1,1,-1
 1541.80078125 1811.40039062 l 1,2,-1
 1541.80078125 288.200195312 l 1,3,-1
 1262.60058594 288.200195312 l 1,4,-1
 1262.60058594 1811.40039062 l 1,5,-1
 428.200195312 1811.40039062 l 1,6,-1
 428.200195312 288.200195312 l 1,7,-1
 149 288.200195312 l 1,8,-1
 149 1811.40039062 l 1,9,-1
 149 2090.59960938 l 1,10,-1
 428.200195312 2090.59960938 l 1,11,-1
 1262.60058594 2090.59960938 l 1,0,-1
845 2186.59960938 m 256,12,13
 761 2186.59960938 761 2186.59960938 701 2246.59960938 c 0,14,15
 641.80078125 2307.40039062 641.80078125 2307.40039062 641.80078125 2390.59960938 c 128,-1,16
 641.80078125 2473.79980469 641.80078125 2473.79980469 701 2534.59960938 c 0,17,18
 761.80078125 2593.79980469 761.80078125 2593.79980469 845 2593.79980469 c 128,-1,19
 928.200195312 2593.79980469 928.200195312 2593.79980469 989 2534.59960938 c 0,20,21
 1049 2474.59960938 1049 2474.59960938 1049 2390.59960938 c 256,22,23
 1049 2306.59960938 1049 2306.59960938 989 2246.59960938 c 128,-1,24
 929 2186.59960938 929 2186.59960938 845 2186.59960938 c 256,12,13
EndSplineSet
EndChar

StartChar: Agrave
Encoding: 192 192 90
Width: 1700
VWidth: 1926
GlyphClass: 1
Flags: W
LayerCount: 2
Fore
SplineSet
1267.60058594 2090.59960938 m 1,0,-1
 1546.80078125 2090.59960938 l 1,1,-1
 1546.80078125 1811.40039062 l 1,2,-1
 1546.80078125 288.200195312 l 1,3,-1
 1267.60058594 288.200195312 l 1,4,-1
 1267.60058594 1811.40039062 l 1,5,-1
 433.200195312 1811.40039062 l 1,6,-1
 433.200195312 288.200195312 l 1,7,-1
 154 288.200195312 l 1,8,-1
 154 1811.40039062 l 1,9,-1
 154 2090.59960938 l 1,10,-1
 433.200195312 2090.59960938 l 1,11,-1
 1267.60058594 2090.59960938 l 1,0,-1
850 985.799804688 m 256,12,13
 766 985.799804688 766 985.799804688 706.400390625 1045.40039062 c 128,-1,14
 646.80078125 1105 646.80078125 1105 646.80078125 1189 c 256,15,16
 646.80078125 1273 646.80078125 1273 706.400390625 1333 c 128,-1,17
 766 1393 766 1393 850 1393 c 256,18,19
 934 1393 934 1393 994 1333 c 128,-1,20
 1054 1273 1054 1273 1054 1189 c 256,21,22
 1054 1105 1054 1105 994 1045.40039062 c 128,-1,23
 934 985.799804688 934 985.799804688 850 985.799804688 c 256,12,13
850 2186.59960938 m 256,24,25
 766 2186.59960938 766 2186.59960938 706.400390625 2246.59960938 c 128,-1,26
 646.80078125 2306.59960938 646.80078125 2306.59960938 646.80078125 2390.59960938 c 256,27,28
 646.80078125 2474.59960938 646.80078125 2474.59960938 706.400390625 2534.20019531 c 128,-1,29
 766 2593.79980469 766 2593.79980469 850 2593.79980469 c 256,30,31
 934 2593.79980469 934 2593.79980469 994 2534.20019531 c 128,-1,32
 1054 2474.59960938 1054 2474.59960938 1054 2390.59960938 c 256,33,34
 1054 2306.59960938 1054 2306.59960938 994 2246.59960938 c 128,-1,35
 934 2186.59960938 934 2186.59960938 850 2186.59960938 c 256,24,25
EndSplineSet
EndChar

StartChar: Aacute
Encoding: 193 193 91
Width: 1700
VWidth: 1926
GlyphClass: 1
Flags: W
LayerCount: 2
Fore
SplineSet
1267.60058594 2090.59960938 m 1,0,-1
 1546.80078125 2090.59960938 l 1,1,-1
 1546.80078125 1811.40039062 l 1,2,-1
 1546.80078125 288.200195312 l 1,3,-1
 1267.60058594 288.200195312 l 1,4,-1
 1267.60058594 1811.40039062 l 1,5,-1
 433.200195312 1811.40039062 l 1,6,-1
 433.200195312 288.200195312 l 1,7,-1
 154 288.200195312 l 1,8,-1
 154 1811.40039062 l 1,9,-1
 154 2090.59960938 l 1,10,-1
 433.200195312 2090.59960938 l 1,11,-1
 1267.60058594 2090.59960938 l 1,0,-1
850 2186.59960938 m 256,12,13
 766 2186.59960938 766 2186.59960938 706.400390625 2246.59960938 c 128,-1,14
 646.80078125 2306.59960938 646.80078125 2306.59960938 646.80078125 2390.59960938 c 256,15,16
 646.80078125 2474.59960938 646.80078125 2474.59960938 706.400390625 2534.20019531 c 128,-1,17
 766 2593.79980469 766 2593.79980469 850 2593.79980469 c 256,18,19
 934 2593.79980469 934 2593.79980469 994 2534.20019531 c 128,-1,20
 1054 2474.59960938 1054 2474.59960938 1054 2390.59960938 c 256,21,22
 1054 2306.59960938 1054 2306.59960938 994 2246.59960938 c 128,-1,23
 934 2186.59960938 934 2186.59960938 850 2186.59960938 c 256,12,13
EndSplineSet
EndChar

StartChar: Acircumflex
Encoding: 194 194 92
Width: 3401
VWidth: 1848
GlyphClass: 1
Flags: W
LayerCount: 2
Fore
SplineSet
1730.79980469 2131.90039062 m 256,0,1
 1646.79980469 2131.90039062 1646.79980469 2131.90039062 1587.20019531 2191.90039062 c 128,-1,2
 1527.59960938 2251.90039062 1527.59960938 2251.90039062 1527.59960938 2335.90039062 c 256,3,4
 1527.59960938 2419.90039062 1527.59960938 2419.90039062 1587.20019531 2479.5 c 128,-1,5
 1646.79980469 2539.09960938 1646.79980469 2539.09960938 1730.79980469 2539.09960938 c 256,6,7
 1814.79980469 2539.09960938 1814.79980469 2539.09960938 1874.79980469 2479.5 c 128,-1,8
 1934.79980469 2419.90039062 1934.79980469 2419.90039062 1934.79980469 2335.90039062 c 256,9,10
 1934.79980469 2251.90039062 1934.79980469 2251.90039062 1874.79980469 2191.90039062 c 128,-1,11
 1814.79980469 2131.90039062 1814.79980469 2131.90039062 1730.79980469 2131.90039062 c 256,0,1
2514.79980469 19.099609375 m 1,12,-1
 2794 19.099609375 l 1,13,-1
 2794 -436.099609375 l 1,14,-1
 2514.79980469 -436.099609375 l 1,15,-1
 2514.79980469 -435.299804688 l 1,16,-1
 887.599609375 -435.299804688 l 1,17,-1
 887.599609375 -436.099609375 l 1,18,-1
 608.399414062 -436.099609375 l 1,19,-1
 608.399414062 19.099609375 l 1,20,-1
 887.599609375 19.099609375 l 1,21,-1
 887.599609375 -156.900390625 l 1,22,-1
 2514.79980469 -156.900390625 l 1,23,-1
 2514.79980469 19.099609375 l 1,12,-1
1267.59960938 2012.70019531 m 1,24,-1
 1546 2012.70019531 l 1,25,-1
 1546 1733.5 l 1,26,-1
 1546 210.299804688 l 1,27,-1
 1267.59960938 210.299804688 l 1,28,-1
 1267.59960938 1733.5 l 1,29,-1
 433.200195312 1733.5 l 1,30,-1
 433.200195312 210.299804688 l 1,31,-1
 154 210.299804688 l 1,32,-1
 154 1733.5 l 1,33,-1
 154 2012.70019531 l 1,34,-1
 433.200195312 2012.70019531 l 1,35,-1
 1267.59960938 2012.70019531 l 1,24,-1
2969.20019531 210.299804688 m 1,36,-1
 2134 210.299804688 l 1,37,-1
 1855.59960938 210.299804688 l 1,38,-1
 1855.59960938 489.5 l 1,39,-1
 1855.59960938 2012.70019531 l 1,40,-1
 2134 2012.70019531 l 1,41,-1
 2134 489.5 l 1,42,-1
 2969.20019531 489.5 l 1,43,-1
 2969.20019531 2012.70019531 l 1,44,-1
 3247.59960938 2012.70019531 l 1,45,-1
 3247.59960938 489.5 l 1,46,-1
 3247.59960938 210.299804688 l 1,47,-1
 2969.20019531 210.299804688 l 1,36,-1
EndSplineSet
EndChar

StartChar: Atilde
Encoding: 195 195 93
Width: 3401
VWidth: 1851
GlyphClass: 1
Flags: W
LayerCount: 2
Back
SplineSet
827.5 2373 m 256,0,1
 722.5 2373 722.5 2373 648 2448 c 128,-1,2
 573.5 2523 573.5 2523 573.5 2628 c 256,3,4
 573.5 2733 573.5 2733 648 2807.5 c 128,-1,5
 722.5 2882 722.5 2882 827.5 2882 c 256,6,7
 932.5 2882 932.5 2882 1007.5 2807.5 c 128,-1,8
 1082.5 2733 1082.5 2733 1082.5 2628 c 256,9,10
 1082.5 2523 1082.5 2523 1007.5 2448 c 128,-1,11
 932.5 2373 932.5 2373 827.5 2373 c 256,0,1
1698.5 2253 m 1,12,-1
 1698.5 1904 l 1,13,-1
 1698.5 349 l 1,14,-1
 1698.5 0 l 1,15,-1
 1349.5 0 l 1,16,-1
 -42.5 0 l 1,17,-1
 -42.5 349 l 1,18,-1
 1349.5 349 l 1,19,-1
 1349.5 1904 l 1,20,-1
 -42.5 1904 l 1,21,-1
 -42.5 2253 l 1,22,-1
 1349.5 2253 l 1,23,-1
 1698.5 2253 l 1,12,-1
827.5 872 m 256,24,25
 722.5 872 722.5 872 648 946.5 c 128,-1,26
 573.5 1021 573.5 1021 573.5 1126 c 256,27,28
 573.5 1231 573.5 1231 648 1306 c 128,-1,29
 722.5 1381 722.5 1381 827.5 1381 c 256,30,31
 932.5 1381 932.5 1381 1007.5 1306 c 128,-1,32
 1082.5 1231 1082.5 1231 1082.5 1126 c 256,33,34
 1082.5 1021 1082.5 1021 1007.5 946.5 c 128,-1,35
 932.5 872 932.5 872 827.5 872 c 256,24,25
EndSplineSet
Fore
SplineSet
1700.39941406 2134.79980469 m 256,0,1
 1616.39941406 2134.79980469 1616.39941406 2134.79980469 1556.79980469 2194.79980469 c 128,-1,2
 1497.20019531 2254.79980469 1497.20019531 2254.79980469 1497.20019531 2338.79980469 c 256,3,4
 1497.20019531 2422.79980469 1497.20019531 2422.79980469 1556.79980469 2482.40039062 c 128,-1,5
 1616.39941406 2542 1616.39941406 2542 1700.39941406 2542 c 256,6,7
 1784.39941406 2542 1784.39941406 2542 1844.39941406 2482.40039062 c 128,-1,8
 1904.39941406 2422.79980469 1904.39941406 2422.79980469 1904.39941406 2338.79980469 c 256,9,10
 1904.39941406 2254.79980469 1904.39941406 2254.79980469 1844.39941406 2194.79980469 c 128,-1,11
 1784.39941406 2134.79980469 1784.39941406 2134.79980469 1700.39941406 2134.79980469 c 256,0,1
2514.79980469 45.2001953125 m 1,12,-1
 2794 45.2001953125 l 1,13,-1
 2794 -410 l 1,14,-1
 2514.79980469 -410 l 1,15,-1
 2514.79980469 -409.200195312 l 1,16,-1
 887.599609375 -409.200195312 l 1,17,-1
 887.599609375 -410 l 1,18,-1
 608.399414062 -410 l 1,19,-1
 608.399414062 45.2001953125 l 1,20,-1
 887.599609375 45.2001953125 l 1,21,-1
 887.599609375 -130.799804688 l 1,22,-1
 2514.79980469 -130.799804688 l 1,23,-1
 2514.79980469 45.2001953125 l 1,12,-1
1267.59960938 2038.79980469 m 1,24,-1
 1546 2038.79980469 l 1,25,-1
 1546 1759.59960938 l 1,26,-1
 1546 236.400390625 l 1,27,-1
 1267.59960938 236.400390625 l 1,28,-1
 1267.59960938 1759.59960938 l 1,29,-1
 433.200195312 1759.59960938 l 1,30,-1
 433.200195312 236.400390625 l 1,31,-1
 154 236.400390625 l 1,32,-1
 154 1759.59960938 l 1,33,-1
 154 2038.79980469 l 1,34,-1
 433.200195312 2038.79980469 l 1,35,-1
 1267.59960938 2038.79980469 l 1,24,-1
3247.59960938 2038.79980469 m 1,36,-1
 3247.59960938 1759.59960938 l 1,37,-1
 3247.59960938 515.599609375 l 1,38,-1
 3247.59960938 236.400390625 l 1,39,-1
 2969.20019531 236.400390625 l 1,40,-1
 1855.59960938 236.400390625 l 1,41,-1
 1855.59960938 515.599609375 l 1,42,-1
 2969.20019531 515.599609375 l 1,43,-1
 2969.20019531 1759.59960938 l 1,44,-1
 1855.59960938 1759.59960938 l 1,45,-1
 1855.59960938 2038.79980469 l 1,46,-1
 2969.20019531 2038.79980469 l 1,47,-1
 3247.59960938 2038.79980469 l 1,36,-1
EndSplineSet
EndChar

StartChar: Adieresis
Encoding: 196 196 94
Width: 1700
VWidth: 1863
GlyphClass: 1
Flags: W
LayerCount: 2
Fore
SplineSet
850 922.900390625 m 0,0,1
 765.200195312 922.900390625 765.200195312 922.900390625 706 982.099609375 c 128,-1,2
 646.80078125 1041.29980469 646.80078125 1041.29980469 646.80078125 1126.09960938 c 0,3,4
 646.80078125 1211.70019531 646.80078125 1211.70019531 706 1270.90039062 c 0,5,6
 764.400390625 1329.29980469 764.400390625 1329.29980469 850 1329.29980469 c 0,7,8
 936.400390625 1329.29980469 936.400390625 1329.29980469 994.80078125 1270.90039062 c 128,-1,9
 1053.20019531 1212.5 1053.20019531 1212.5 1053.20019531 1126.09960938 c 0,10,11
 1053.20019531 1040.5 1053.20019531 1040.5 994.80078125 982.099609375 c 0,12,13
 935.600585938 922.900390625 935.600585938 922.900390625 850 922.900390625 c 0,0,1
1268.40039062 2027.70019531 m 1,14,-1
 1546.80078125 2027.70019531 l 1,15,-1
 1546.80078125 1749.29980469 l 1,16,-1
 1546.80078125 225.299804688 l 1,17,-1
 1268.40039062 225.299804688 l 1,18,-1
 1268.40039062 1749.29980469 l 1,19,-1
 432.400390625 1749.29980469 l 1,20,-1
 432.400390625 225.299804688 l 1,21,-1
 154 225.299804688 l 1,22,-1
 154 1749.29980469 l 1,23,-1
 154 2027.70019531 l 1,24,-1
 432.400390625 2027.70019531 l 1,25,-1
 1268.40039062 2027.70019531 l 1,14,-1
EndSplineSet
EndChar

StartChar: Egrave
Encoding: 200 200 95
Width: 1694
VWidth: 1926
GlyphClass: 1
Flags: W
LayerCount: 2
Back
SplineSet
966 2373 m 256,0,1
 861 2373 861 2373 786.5 2448 c 128,-1,2
 712 2523 712 2523 712 2628 c 256,3,4
 712 2733 712 2733 786.5 2807.5 c 128,-1,5
 861 2882 861 2882 966 2882 c 256,6,7
 1071 2882 1071 2882 1146 2807.5 c 128,-1,8
 1221 2733 1221 2733 1221 2628 c 256,9,10
 1221 2523 1221 2523 1146 2448 c 128,-1,11
 1071 2373 1071 2373 966 2373 c 256,0,1
96 0 m 1,12,-1
 96 349 l 1,13,-1
 96 1904 l 1,14,-1
 96 2253 l 1,15,-1
 445 2253 l 1,16,-1
 1837 2253 l 1,17,-1
 1837 1904 l 1,18,-1
 445 1904 l 1,19,-1
 445 349 l 1,20,-1
 1837 349 l 1,21,-1
 1837 0 l 1,22,-1
 445 0 l 1,23,-1
 96 0 l 1,12,-1
EndSplineSet
Fore
SplineSet
850 2186.59960938 m 256,0,1
 766 2186.59960938 766 2186.59960938 706.400390625 2246.59960938 c 128,-1,2
 646.80078125 2306.59960938 646.80078125 2306.59960938 646.80078125 2390.59960938 c 256,3,4
 646.80078125 2474.59960938 646.80078125 2474.59960938 706.400390625 2534.20019531 c 128,-1,5
 766 2593.79980469 766 2593.79980469 850 2593.79980469 c 256,6,7
 934 2593.79980469 934 2593.79980469 994 2534.20019531 c 128,-1,8
 1054 2474.59960938 1054 2474.59960938 1054 2390.59960938 c 256,9,10
 1054 2306.59960938 1054 2306.59960938 994 2246.59960938 c 128,-1,11
 934 2186.59960938 934 2186.59960938 850 2186.59960938 c 256,0,1
850 985.799804688 m 256,12,13
 766 985.799804688 766 985.799804688 706.400390625 1045.40039062 c 128,-1,14
 646.80078125 1105 646.80078125 1105 646.80078125 1189 c 256,15,16
 646.80078125 1273 646.80078125 1273 706.400390625 1333 c 128,-1,17
 766 1393 766 1393 850 1393 c 256,18,19
 934 1393 934 1393 994 1333 c 128,-1,20
 1054 1273 1054 1273 1054 1189 c 256,21,22
 1054 1105 1054 1105 994 1045.40039062 c 128,-1,23
 934 985.799804688 934 985.799804688 850 985.799804688 c 256,12,13
154 288.200195312 m 1,24,-1
 154 567.400390625 l 1,25,-1
 154 1811.40039062 l 1,26,-1
 154 2090.59960938 l 1,27,-1
 433.200195312 2090.59960938 l 1,28,-1
 1546.80078125 2090.59960938 l 1,29,-1
 1546.80078125 1811.40039062 l 1,30,-1
 433.200195312 1811.40039062 l 1,31,-1
 433.200195312 567.400390625 l 1,32,-1
 1546.80078125 567.400390625 l 1,33,-1
 1546.80078125 288.200195312 l 1,34,-1
 433.200195312 288.200195312 l 1,35,-1
 154 288.200195312 l 1,24,-1
EndSplineSet
EndChar

StartChar: Eacute
Encoding: 201 201 96
Width: 1695
VWidth: 1926
GlyphClass: 1
Flags: W
LayerCount: 2
Fore
SplineSet
850 2186.59960938 m 256,0,1
 766 2186.59960938 766 2186.59960938 706.400390625 2246.59960938 c 128,-1,2
 646.80078125 2306.59960938 646.80078125 2306.59960938 646.80078125 2390.59960938 c 256,3,4
 646.80078125 2474.59960938 646.80078125 2474.59960938 706.400390625 2534.20019531 c 128,-1,5
 766 2593.79980469 766 2593.79980469 850 2593.79980469 c 256,6,7
 934 2593.79980469 934 2593.79980469 994 2534.20019531 c 128,-1,8
 1054 2474.59960938 1054 2474.59960938 1054 2390.59960938 c 256,9,10
 1054 2306.59960938 1054 2306.59960938 994 2246.59960938 c 128,-1,11
 934 2186.59960938 934 2186.59960938 850 2186.59960938 c 256,0,1
154 288.200195312 m 1,12,-1
 154 567.400390625 l 1,13,-1
 154 1811.40039062 l 1,14,-1
 154 2090.59960938 l 1,15,-1
 433.200195312 2090.59960938 l 1,16,-1
 1546.80078125 2090.59960938 l 1,17,-1
 1546.80078125 1811.40039062 l 1,18,-1
 433.200195312 1811.40039062 l 1,19,-1
 433.200195312 567.400390625 l 1,20,-1
 1546.80078125 567.400390625 l 1,21,-1
 1546.80078125 288.200195312 l 1,22,-1
 433.200195312 288.200195312 l 1,23,-1
 154 288.200195312 l 1,12,-1
EndSplineSet
EndChar

StartChar: Edieresis
Encoding: 203 203 97
Width: 1695
VWidth: 1863
GlyphClass: 1
Flags: W
LayerCount: 2
Back
SplineSet
964.5 2373 m 256,0,1
 859.5 2373 859.5 2373 785 2448 c 128,-1,2
 710.5 2523 710.5 2523 710.5 2628 c 256,3,4
 710.5 2733 710.5 2733 785 2807.5 c 128,-1,5
 859.5 2882 859.5 2882 964.5 2882 c 256,6,7
 1069.5 2882 1069.5 2882 1144.5 2807.5 c 128,-1,8
 1219.5 2733 1219.5 2733 1219.5 2628 c 256,9,10
 1219.5 2523 1219.5 2523 1144.5 2448 c 128,-1,11
 1069.5 2373 1069.5 2373 964.5 2373 c 256,0,1
964.5 872 m 256,12,13
 859.5 872 859.5 872 785 946.5 c 128,-1,14
 710.5 1021 710.5 1021 710.5 1126 c 256,15,16
 710.5 1231 710.5 1231 785 1306 c 128,-1,17
 859.5 1381 859.5 1381 964.5 1381 c 256,18,19
 1069.5 1381 1069.5 1381 1144.5 1306 c 128,-1,20
 1219.5 1231 1219.5 1231 1219.5 1126 c 256,21,22
 1219.5 1021 1219.5 1021 1144.5 946.5 c 128,-1,23
 1069.5 872 1069.5 872 964.5 872 c 256,12,13
94.5 0 m 1,24,-1
 94.5 349 l 1,25,-1
 94.5 1904 l 1,26,-1
 94.5 2253 l 1,27,-1
 443.5 2253 l 1,28,-1
 1835.5 2253 l 1,29,-1
 1835.5 1904 l 1,30,-1
 443.5 1904 l 1,31,-1
 443.5 349 l 1,32,-1
 1835.5 349 l 1,33,-1
 1835.5 0 l 1,34,-1
 443.5 0 l 1,35,-1
 94.5 0 l 1,24,-1
EndSplineSet
Fore
SplineSet
850 922.900390625 m 0,0,1
 765.200195312 922.900390625 765.200195312 922.900390625 706 982.099609375 c 128,-1,2
 646.80078125 1041.29980469 646.80078125 1041.29980469 646.80078125 1126.09960938 c 0,3,4
 646.80078125 1211.70019531 646.80078125 1211.70019531 706 1270.90039062 c 0,5,6
 764.400390625 1329.29980469 764.400390625 1329.29980469 850 1329.29980469 c 0,7,8
 936.400390625 1329.29980469 936.400390625 1329.29980469 994.80078125 1270.90039062 c 128,-1,9
 1053.20019531 1212.5 1053.20019531 1212.5 1053.20019531 1126.09960938 c 0,10,11
 1053.20019531 1040.5 1053.20019531 1040.5 994.80078125 982.099609375 c 0,12,13
 935.600585938 922.900390625 935.600585938 922.900390625 850 922.900390625 c 0,0,1
154 225.299804688 m 1,14,-1
 154 503.700195312 l 1,15,-1
 154 1749.29980469 l 1,16,-1
 154 2027.70019531 l 1,17,-1
 432.400390625 2027.70019531 l 1,18,-1
 1546.80078125 2027.70019531 l 1,19,-1
 1546.80078125 1749.29980469 l 1,20,-1
 432.400390625 1749.29980469 l 1,21,-1
 432.400390625 503.700195312 l 1,22,-1
 1546.80078125 503.700195312 l 1,23,-1
 1546.80078125 225.299804688 l 1,24,-1
 432.400390625 225.299804688 l 1,25,-1
 154 225.299804688 l 1,14,-1
EndSplineSet
EndChar

StartChar: Igrave
Encoding: 204 204 98
Width: 1694
VWidth: 1926
GlyphClass: 1
Flags: W
LayerCount: 2
Fore
SplineSet
844 2186.59960938 m 256,0,1
 760 2186.59960938 760 2186.59960938 700.400390625 2246.59960938 c 128,-1,2
 640.80078125 2306.59960938 640.80078125 2306.59960938 640.80078125 2390.59960938 c 256,3,4
 640.80078125 2474.59960938 640.80078125 2474.59960938 700.400390625 2534.20019531 c 128,-1,5
 760 2593.79980469 760 2593.79980469 844 2593.79980469 c 256,6,7
 928 2593.79980469 928 2593.79980469 988 2534.20019531 c 128,-1,8
 1048 2474.59960938 1048 2474.59960938 1048 2390.59960938 c 256,9,10
 1048 2306.59960938 1048 2306.59960938 988 2246.59960938 c 128,-1,11
 928 2186.59960938 928 2186.59960938 844 2186.59960938 c 256,0,1
1540.80078125 2090.59960938 m 1,12,-1
 1540.80078125 1811.40039062 l 1,13,-1
 1540.80078125 567.400390625 l 1,14,-1
 1540.80078125 288.200195312 l 1,15,-1
 1261.60058594 288.200195312 l 1,16,-1
 148 288.200195312 l 1,17,-1
 148 567.400390625 l 1,18,-1
 1261.60058594 567.400390625 l 1,19,-1
 1261.60058594 1811.40039062 l 1,20,-1
 148 1811.40039062 l 1,21,-1
 148 2090.59960938 l 1,22,-1
 1261.60058594 2090.59960938 l 1,23,-1
 1540.80078125 2090.59960938 l 1,12,-1
844 985.799804688 m 256,24,25
 760 985.799804688 760 985.799804688 700.400390625 1045.40039062 c 128,-1,26
 640.80078125 1105 640.80078125 1105 640.80078125 1189 c 256,27,28
 640.80078125 1273 640.80078125 1273 700.400390625 1333 c 128,-1,29
 760 1393 760 1393 844 1393 c 256,30,31
 928 1393 928 1393 988 1333 c 128,-1,32
 1048 1273 1048 1273 1048 1189 c 256,33,34
 1048 1105 1048 1105 988 1045.40039062 c 128,-1,35
 928 985.799804688 928 985.799804688 844 985.799804688 c 256,24,25
EndSplineSet
EndChar

StartChar: Iacute
Encoding: 205 205 99
Width: 1695
VWidth: 1926
GlyphClass: 1
Flags: W
LayerCount: 2
Fore
SplineSet
845 2186.59960938 m 256,0,1
 761 2186.59960938 761 2186.59960938 701.400390625 2246.59960938 c 128,-1,2
 641.80078125 2306.59960938 641.80078125 2306.59960938 641.80078125 2390.59960938 c 256,3,4
 641.80078125 2474.59960938 641.80078125 2474.59960938 701.400390625 2534.20019531 c 128,-1,5
 761 2593.79980469 761 2593.79980469 845 2593.79980469 c 256,6,7
 929 2593.79980469 929 2593.79980469 989 2534.20019531 c 128,-1,8
 1049 2474.59960938 1049 2474.59960938 1049 2390.59960938 c 256,9,10
 1049 2306.59960938 1049 2306.59960938 989 2246.59960938 c 128,-1,11
 929 2186.59960938 929 2186.59960938 845 2186.59960938 c 256,0,1
1541.80078125 2090.59960938 m 1,12,-1
 1541.80078125 1811.40039062 l 1,13,-1
 1541.80078125 567.400390625 l 1,14,-1
 1541.80078125 288.200195312 l 1,15,-1
 1262.60058594 288.200195312 l 1,16,-1
 149 288.200195312 l 1,17,-1
 149 567.400390625 l 1,18,-1
 1262.60058594 567.400390625 l 1,19,-1
 1262.60058594 1811.40039062 l 1,20,-1
 149 1811.40039062 l 1,21,-1
 149 2090.59960938 l 1,22,-1
 1262.60058594 2090.59960938 l 1,23,-1
 1541.80078125 2090.59960938 l 1,12,-1
EndSplineSet
EndChar

StartChar: Icircumflex
Encoding: 206 206 100
Width: 3396
VWidth: 1848
GlyphClass: 1
Flags: W
LayerCount: 2
Fore
SplineSet
1695.40039062 2120.79980469 m 256,0,1
 1611.40039062 2120.79980469 1611.40039062 2120.79980469 1551.79980469 2180.79980469 c 128,-1,2
 1492.20019531 2240.79980469 1492.20019531 2240.79980469 1492.20019531 2324.79980469 c 256,3,4
 1492.20019531 2408.79980469 1492.20019531 2408.79980469 1551.79980469 2468.40039062 c 128,-1,5
 1611.40039062 2528 1611.40039062 2528 1695.40039062 2528 c 256,6,7
 1779.40039062 2528 1779.40039062 2528 1839.40039062 2468.40039062 c 128,-1,8
 1899.40039062 2408.79980469 1899.40039062 2408.79980469 1899.40039062 2324.79980469 c 256,9,10
 1899.40039062 2240.79980469 1899.40039062 2240.79980469 1839.40039062 2180.79980469 c 128,-1,11
 1779.40039062 2120.79980469 1779.40039062 2120.79980469 1695.40039062 2120.79980469 c 256,0,1
2509.79980469 31.2001953125 m 1,12,-1
 2789 31.2001953125 l 1,13,-1
 2789 -424 l 1,14,-1
 2509.79980469 -424 l 1,15,-1
 2509.79980469 -423.200195312 l 1,16,-1
 882.600585938 -423.200195312 l 1,17,-1
 882.600585938 -424 l 1,18,-1
 603.400390625 -424 l 1,19,-1
 603.400390625 31.2001953125 l 1,20,-1
 882.600585938 31.2001953125 l 1,21,-1
 882.600585938 -144.799804688 l 1,22,-1
 2509.79980469 -144.799804688 l 1,23,-1
 2509.79980469 31.2001953125 l 1,12,-1
2964.20019531 222.400390625 m 1,24,-1
 2129 222.400390625 l 1,25,-1
 1850.60058594 222.400390625 l 1,26,-1
 1850.60058594 501.599609375 l 1,27,-1
 1850.60058594 2024.79980469 l 1,28,-1
 2129 2024.79980469 l 1,29,-1
 2129 501.599609375 l 1,30,-1
 2964.20019531 501.599609375 l 1,31,-1
 2964.20019531 2024.79980469 l 1,32,-1
 3243.40039062 2024.79980469 l 1,33,-1
 3243.40039062 501.599609375 l 1,34,-1
 3243.40039062 222.400390625 l 1,35,-1
 2964.20019531 222.400390625 l 1,24,-1
1541 2024.79980469 m 1,36,-1
 1541 1745.59960938 l 1,37,-1
 1541 501.599609375 l 1,38,-1
 1541 222.400390625 l 1,39,-1
 1262.60058594 222.400390625 l 1,40,-1
 149 222.400390625 l 1,41,-1
 149 501.599609375 l 1,42,-1
 1262.60058594 501.599609375 l 1,43,-1
 1262.60058594 1745.59960938 l 1,44,-1
 149 1745.59960938 l 1,45,-1
 149 2024.79980469 l 1,46,-1
 1262.60058594 2024.79980469 l 1,47,-1
 1541 2024.79980469 l 1,36,-1
EndSplineSet
EndChar

StartChar: Idieresis
Encoding: 207 207 101
Width: 1695
VWidth: 1863
GlyphClass: 1
Flags: W
LayerCount: 2
Fore
SplineSet
1541.80078125 2027.70019531 m 1,0,-1
 1541.80078125 1749.29980469 l 1,1,-1
 1541.80078125 503.700195312 l 1,2,-1
 1541.80078125 225.299804688 l 1,3,-1
 1263.40039062 225.299804688 l 1,4,-1
 149 225.299804688 l 1,5,-1
 149 503.700195312 l 1,6,-1
 1263.40039062 503.700195312 l 1,7,-1
 1263.40039062 1749.29980469 l 1,8,-1
 149 1749.29980469 l 1,9,-1
 149 2027.70019531 l 1,10,-1
 1263.40039062 2027.70019531 l 1,11,-1
 1541.80078125 2027.70019531 l 1,0,-1
845 922.900390625 m 0,12,13
 760.200195312 922.900390625 760.200195312 922.900390625 701 982.099609375 c 128,-1,14
 641.80078125 1041.29980469 641.80078125 1041.29980469 641.80078125 1126.09960938 c 0,15,16
 641.80078125 1211.70019531 641.80078125 1211.70019531 701 1270.90039062 c 0,17,18
 759.400390625 1329.29980469 759.400390625 1329.29980469 845 1329.29980469 c 0,19,20
 931.400390625 1329.29980469 931.400390625 1329.29980469 989.80078125 1270.90039062 c 128,-1,21
 1048.20019531 1212.5 1048.20019531 1212.5 1048.20019531 1126.09960938 c 0,22,23
 1048.20019531 1040.5 1048.20019531 1040.5 989.80078125 982.099609375 c 0,24,25
 930.600585938 922.900390625 930.600585938 922.900390625 845 922.900390625 c 0,12,13
EndSplineSet
EndChar

StartChar: Ocircumflex
Encoding: 212 212 102
Width: 3401
VWidth: 1851
GlyphClass: 1
Flags: W
LayerCount: 2
Fore
SplineSet
1700.39941406 2134.79980469 m 256,0,1
 1616.39941406 2134.79980469 1616.39941406 2134.79980469 1556.79980469 2194.79980469 c 128,-1,2
 1497.20019531 2254.79980469 1497.20019531 2254.79980469 1497.20019531 2338.79980469 c 256,3,4
 1497.20019531 2422.79980469 1497.20019531 2422.79980469 1556.79980469 2482.40039062 c 128,-1,5
 1616.39941406 2542 1616.39941406 2542 1700.39941406 2542 c 256,6,7
 1784.39941406 2542 1784.39941406 2542 1844.39941406 2482.40039062 c 128,-1,8
 1904.39941406 2422.79980469 1904.39941406 2422.79980469 1904.39941406 2338.79980469 c 256,9,10
 1904.39941406 2254.79980469 1904.39941406 2254.79980469 1844.39941406 2194.79980469 c 128,-1,11
 1784.39941406 2134.79980469 1784.39941406 2134.79980469 1700.39941406 2134.79980469 c 256,0,1
2514.79980469 45.2001953125 m 1,12,-1
 2794 45.2001953125 l 1,13,-1
 2794 -410 l 1,14,-1
 2514.79980469 -410 l 1,15,-1
 2514.79980469 -409.200195312 l 1,16,-1
 887.599609375 -409.200195312 l 1,17,-1
 887.599609375 -410 l 1,18,-1
 608.399414062 -410 l 1,19,-1
 608.399414062 45.2001953125 l 1,20,-1
 887.599609375 45.2001953125 l 1,21,-1
 887.599609375 -130.799804688 l 1,22,-1
 2514.79980469 -130.799804688 l 1,23,-1
 2514.79980469 45.2001953125 l 1,12,-1
3247.59960938 2038.79980469 m 1,24,-1
 3247.59960938 1759.59960938 l 1,25,-1
 3247.59960938 515.599609375 l 1,26,-1
 3247.59960938 236.400390625 l 1,27,-1
 2969.20019531 236.400390625 l 1,28,-1
 1855.59960938 236.400390625 l 1,29,-1
 1855.59960938 515.599609375 l 1,30,-1
 2969.20019531 515.599609375 l 1,31,-1
 2969.20019531 1759.59960938 l 1,32,-1
 1855.59960938 1759.59960938 l 1,33,-1
 1855.59960938 2038.79980469 l 1,34,-1
 2969.20019531 2038.79980469 l 1,35,-1
 3247.59960938 2038.79980469 l 1,24,-1
1546 2038.79980469 m 1,36,-1
 1546 1759.59960938 l 1,37,-1
 1546 515.599609375 l 1,38,-1
 1546 236.400390625 l 1,39,-1
 1267.59960938 236.400390625 l 1,40,-1
 433.200195312 236.400390625 l 1,41,-1
 154 236.400390625 l 1,42,-1
 154 515.599609375 l 1,43,-1
 154 1759.59960938 l 1,44,-1
 154 2038.79980469 l 1,45,-1
 433.200195312 2038.79980469 l 1,46,-1
 1267.59960938 2038.79980469 l 1,47,-1
 1546 2038.79980469 l 1,36,-1
433.200195312 515.599609375 m 1,48,-1
 1267.59960938 515.599609375 l 1,49,-1
 1267.59960938 1759.59960938 l 1,50,-1
 433.200195312 1759.59960938 l 1,51,-1
 433.200195312 515.599609375 l 1,48,-1
EndSplineSet
EndChar

StartChar: Otilde
Encoding: 213 213 103
Width: 3409
VWidth: 1848
GlyphClass: 1
Flags: W
LayerCount: 2
Back
SplineSet
830.5 2373 m 256,0,1
 725.5 2373 725.5 2373 651 2448 c 128,-1,2
 576.5 2523 576.5 2523 576.5 2628 c 256,3,4
 576.5 2733 576.5 2733 651 2807.5 c 128,-1,5
 725.5 2882 725.5 2882 830.5 2882 c 256,6,7
 935.5 2882 935.5 2882 1010.5 2807.5 c 128,-1,8
 1085.5 2733 1085.5 2733 1085.5 2628 c 256,9,10
 1085.5 2523 1085.5 2523 1010.5 2448 c 128,-1,11
 935.5 2373 935.5 2373 830.5 2373 c 256,0,1
1701.5 2253 m 1,12,-1
 1701.5 1904 l 1,13,-1
 1701.5 349 l 1,14,-1
 1701.5 0 l 1,15,-1
 1352.5 0 l 1,16,-1
 -39.5 0 l 1,17,-1
 -39.5 349 l 1,18,-1
 1352.5 349 l 1,19,-1
 1352.5 1904 l 1,20,-1
 -39.5 1904 l 1,21,-1
 -39.5 2253 l 1,22,-1
 1352.5 2253 l 1,23,-1
 1701.5 2253 l 1,12,-1
EndSplineSet
Fore
SplineSet
1700.39941406 2120.79980469 m 256,0,1
 1616.39941406 2120.79980469 1616.39941406 2120.79980469 1556.79980469 2180.79980469 c 128,-1,2
 1497.20019531 2240.79980469 1497.20019531 2240.79980469 1497.20019531 2324.79980469 c 256,3,4
 1497.20019531 2408.79980469 1497.20019531 2408.79980469 1556.79980469 2468.40039062 c 128,-1,5
 1616.39941406 2528 1616.39941406 2528 1700.39941406 2528 c 256,6,7
 1784.39941406 2528 1784.39941406 2528 1844.39941406 2468.40039062 c 128,-1,8
 1904.39941406 2408.79980469 1904.39941406 2408.79980469 1904.39941406 2324.79980469 c 256,9,10
 1904.39941406 2240.79980469 1904.39941406 2240.79980469 1844.39941406 2180.79980469 c 128,-1,11
 1784.39941406 2120.79980469 1784.39941406 2120.79980469 1700.39941406 2120.79980469 c 256,0,1
2514.79980469 31.2001953125 m 1,12,-1
 2794 31.2001953125 l 1,13,-1
 2794 -424 l 1,14,-1
 2514.79980469 -424 l 1,15,-1
 2514.79980469 -423.200195312 l 1,16,-1
 887.599609375 -423.200195312 l 1,17,-1
 887.599609375 -424 l 1,18,-1
 608.399414062 -424 l 1,19,-1
 608.399414062 31.2001953125 l 1,20,-1
 887.599609375 31.2001953125 l 1,21,-1
 887.599609375 -144.799804688 l 1,22,-1
 2514.79980469 -144.799804688 l 1,23,-1
 2514.79980469 31.2001953125 l 1,12,-1
2976.39941406 2024.79980469 m 1,24,-1
 3255.59960938 2024.79980469 l 1,25,-1
 3255.59960938 1745.59960938 l 1,26,-1
 3255.59960938 222.400390625 l 1,27,-1
 2976.39941406 222.400390625 l 1,28,-1
 2976.39941406 1745.59960938 l 1,29,-1
 2141.20019531 1745.59960938 l 1,30,-1
 2141.20019531 222.400390625 l 1,31,-1
 1862.79980469 222.400390625 l 1,32,-1
 1862.79980469 1745.59960938 l 1,33,-1
 1862.79980469 2024.79980469 l 1,34,-1
 2141.20019531 2024.79980469 l 1,35,-1
 2976.39941406 2024.79980469 l 1,24,-1
1546 2024.79980469 m 1,36,-1
 1546 1745.59960938 l 1,37,-1
 1546 501.599609375 l 1,38,-1
 1546 222.400390625 l 1,39,-1
 1267.59960938 222.400390625 l 1,40,-1
 433.200195312 222.400390625 l 1,41,-1
 154 222.400390625 l 1,42,-1
 154 501.599609375 l 1,43,-1
 154 1745.59960938 l 1,44,-1
 154 2024.79980469 l 1,45,-1
 433.200195312 2024.79980469 l 1,46,-1
 1267.59960938 2024.79980469 l 1,47,-1
 1546 2024.79980469 l 1,36,-1
433.200195312 501.599609375 m 1,48,-1
 1267.59960938 501.599609375 l 1,49,-1
 1267.59960938 1745.59960938 l 1,50,-1
 433.200195312 1745.59960938 l 1,51,-1
 433.200195312 501.599609375 l 1,48,-1
EndSplineSet
EndChar

StartChar: Ugrave
Encoding: 217 217 104
Width: 1700
VWidth: 1926
GlyphClass: 1
Flags: W
LayerCount: 2
Back
SplineSet
3096 -210 m 1,0,-1
 3445 -210 l 1,1,-1
 3445 -779 l 1,2,-1
 3096 -779 l 1,3,-1
 3096 -778 l 1,4,-1
 1062 -778 l 1,5,-1
 1062 -779 l 1,6,-1
 713 -779 l 1,7,-1
 713 -210 l 1,8,-1
 1062 -210 l 1,9,-1
 1062 -430 l 1,10,-1
 3096 -430 l 1,11,-1
 3096 -210 l 1,0,-1
3673 2282 m 1,12,-1
 4022 2282 l 1,13,-1
 4022 1933 l 1,14,-1
 4022 29 l 1,15,-1
 3673 29 l 1,16,-1
 3673 1933 l 1,17,-1
 2629 1933 l 1,18,-1
 2629 29 l 1,19,-1
 2281 29 l 1,20,-1
 2281 1933 l 1,21,-1
 2281 2282 l 1,22,-1
 2629 2282 l 1,23,-1
 3673 2282 l 1,12,-1
1885 2282 m 1,24,-1
 1885 1933 l 1,25,-1
 1885 378 l 1,26,-1
 1885 29 l 1,27,-1
 1537 29 l 1,28,-1
 494 29 l 1,29,-1
 145 29 l 1,30,-1
 145 378 l 1,31,-1
 145 1933 l 1,32,-1
 145 2282 l 1,33,-1
 494 2282 l 1,34,-1
 1537 2282 l 1,35,-1
 1885 2282 l 1,24,-1
494 378 m 1,36,-1
 1537 378 l 1,37,-1
 1537 1933 l 1,38,-1
 494 1933 l 1,39,-1
 494 378 l 1,36,-1
EndSplineSet
Fore
SplineSet
850 2186.59960938 m 256,0,1
 766 2186.59960938 766 2186.59960938 706.400390625 2246.59960938 c 128,-1,2
 646.80078125 2306.59960938 646.80078125 2306.59960938 646.80078125 2390.59960938 c 256,3,4
 646.80078125 2474.59960938 646.80078125 2474.59960938 706.400390625 2534.20019531 c 128,-1,5
 766 2593.79980469 766 2593.79980469 850 2593.79980469 c 256,6,7
 934 2593.79980469 934 2593.79980469 994 2534.20019531 c 128,-1,8
 1054 2474.59960938 1054 2474.59960938 1054 2390.59960938 c 256,9,10
 1054 2306.59960938 1054 2306.59960938 994 2246.59960938 c 128,-1,11
 934 2186.59960938 934 2186.59960938 850 2186.59960938 c 256,0,1
850 985.799804688 m 256,12,13
 766 985.799804688 766 985.799804688 706.400390625 1045.40039062 c 128,-1,14
 646.80078125 1105 646.80078125 1105 646.80078125 1189 c 256,15,16
 646.80078125 1273 646.80078125 1273 706.400390625 1333 c 128,-1,17
 766 1393 766 1393 850 1393 c 256,18,19
 934 1393 934 1393 994 1333 c 128,-1,20
 1054 1273 1054 1273 1054 1189 c 256,21,22
 1054 1105 1054 1105 994 1045.40039062 c 128,-1,23
 934 985.799804688 934 985.799804688 850 985.799804688 c 256,12,13
1267.60058594 288.200195312 m 1,24,-1
 433.200195312 288.200195312 l 1,25,-1
 154 288.200195312 l 1,26,-1
 154 567.400390625 l 1,27,-1
 154 2090.59960938 l 1,28,-1
 433.200195312 2090.59960938 l 1,29,-1
 433.200195312 567.400390625 l 1,30,-1
 1267.60058594 567.400390625 l 1,31,-1
 1267.60058594 2090.59960938 l 1,32,-1
 1546.80078125 2090.59960938 l 1,33,-1
 1546.80078125 567.400390625 l 1,34,-1
 1546.80078125 288.200195312 l 1,35,-1
 1267.60058594 288.200195312 l 1,24,-1
EndSplineSet
EndChar

StartChar: Uacute
Encoding: 218 218 105
Width: 1700
VWidth: 1926
GlyphClass: 1
Flags: W
LayerCount: 2
Fore
SplineSet
850 2186.59960938 m 256,0,1
 766 2186.59960938 766 2186.59960938 706.400390625 2246.59960938 c 128,-1,2
 646.80078125 2306.59960938 646.80078125 2306.59960938 646.80078125 2390.59960938 c 256,3,4
 646.80078125 2474.59960938 646.80078125 2474.59960938 706.400390625 2534.20019531 c 128,-1,5
 766 2593.79980469 766 2593.79980469 850 2593.79980469 c 256,6,7
 934 2593.79980469 934 2593.79980469 994 2534.20019531 c 128,-1,8
 1054 2474.59960938 1054 2474.59960938 1054 2390.59960938 c 256,9,10
 1054 2306.59960938 1054 2306.59960938 994 2246.59960938 c 128,-1,11
 934 2186.59960938 934 2186.59960938 850 2186.59960938 c 256,0,1
1267.60058594 288.200195312 m 1,12,-1
 433.200195312 288.200195312 l 1,13,-1
 154 288.200195312 l 1,14,-1
 154 567.400390625 l 1,15,-1
 154 2090.59960938 l 1,16,-1
 433.200195312 2090.59960938 l 1,17,-1
 433.200195312 567.400390625 l 1,18,-1
 1267.60058594 567.400390625 l 1,19,-1
 1267.60058594 2090.59960938 l 1,20,-1
 1546.80078125 2090.59960938 l 1,21,-1
 1546.80078125 567.400390625 l 1,22,-1
 1546.80078125 288.200195312 l 1,23,-1
 1267.60058594 288.200195312 l 1,12,-1
EndSplineSet
EndChar

StartChar: Ucircumflex
Encoding: 219 219 106
Width: 1644
VWidth: 1926
GlyphClass: 1
Flags: W
LayerCount: 2
Fore
SplineSet
719.799804688 2186.59960938 m 260,0,1
 635.799804688 2186.59960938 635.799804688 2186.59960938 576.200195312 2246.59960938 c 132,-1,2
 516.599609375 2306.59960938 516.599609375 2306.59960938 516.599609375 2390.59960938 c 260,3,4
 516.599609375 2474.59960938 516.599609375 2474.59960938 576.200195312 2534.20019531 c 132,-1,5
 635.799804688 2593.79980469 635.799804688 2593.79980469 719.799804688 2593.79980469 c 260,6,7
 803.799804688 2593.79980469 803.799804688 2593.79980469 863.799804688 2534.20019531 c 132,-1,8
 923.799804688 2474.59960938 923.799804688 2474.59960938 923.799804688 2390.59960938 c 260,9,10
 923.799804688 2306.59960938 923.799804688 2306.59960938 863.799804688 2246.59960938 c 132,-1,11
 803.799804688 2186.59960938 803.799804688 2186.59960938 719.799804688 2186.59960938 c 260,0,1
982.200195312 1329 m 1,12,-1
 1539 1329 l 1,13,-1
 1539 1049.79980469 l 1,14,-1
 982.200195312 1049.79980469 l 1,15,-1
 982.200195312 288.200195312 l 1,16,-1
 147 288.200195312 l 1,17,-1
 147 566.599609375 l 1,18,-1
 703.799804688 566.599609375 l 1,19,-1
 703.799804688 1812.20019531 l 1,20,-1
 147 1812.20019531 l 1,21,-1
 147 2090.59960938 l 1,22,-1
 982.200195312 2090.59960938 l 1,23,-1
 982.200195312 1329 l 1,12,-1
EndSplineSet
EndChar

StartChar: Udieresis
Encoding: 220 220 107
Width: 1700
VWidth: 1863
GlyphClass: 1
Flags: W
LayerCount: 2
Fore
SplineSet
850 922.900390625 m 0,0,1
 765.200195312 922.900390625 765.200195312 922.900390625 706 982.099609375 c 128,-1,2
 646.80078125 1041.29980469 646.80078125 1041.29980469 646.80078125 1126.09960938 c 0,3,4
 646.80078125 1211.70019531 646.80078125 1211.70019531 706 1270.90039062 c 0,5,6
 764.400390625 1329.29980469 764.400390625 1329.29980469 850 1329.29980469 c 0,7,8
 936.400390625 1329.29980469 936.400390625 1329.29980469 994.80078125 1270.90039062 c 128,-1,9
 1053.20019531 1212.5 1053.20019531 1212.5 1053.20019531 1126.09960938 c 0,10,11
 1053.20019531 1040.5 1053.20019531 1040.5 994.80078125 982.099609375 c 0,12,13
 935.600585938 922.900390625 935.600585938 922.900390625 850 922.900390625 c 0,0,1
1268.40039062 225.299804688 m 1,14,-1
 432.400390625 225.299804688 l 1,15,-1
 154 225.299804688 l 1,16,-1
 154 503.700195312 l 1,17,-1
 154 2027.70019531 l 1,18,-1
 432.400390625 2027.70019531 l 1,19,-1
 432.400390625 503.700195312 l 1,20,-1
 1268.40039062 503.700195312 l 1,21,-1
 1268.40039062 2027.70019531 l 1,22,-1
 1546.80078125 2027.70019531 l 1,23,-1
 1546.80078125 503.700195312 l 1,24,-1
 1546.80078125 225.299804688 l 1,25,-1
 1268.40039062 225.299804688 l 1,14,-1
EndSplineSet
EndChar

StartChar: agrave
Encoding: 224 224 108
Width: 1700
VWidth: 1926
GlyphClass: 1
Flags: W
LayerCount: 2
Fore
SplineSet
1267.60058594 2090.59960938 m 1,0,-1
 1546.80078125 2090.59960938 l 1,1,-1
 1546.80078125 1811.40039062 l 1,2,-1
 1546.80078125 288.200195312 l 1,3,-1
 1267.60058594 288.200195312 l 1,4,-1
 1267.60058594 1811.40039062 l 1,5,-1
 433.200195312 1811.40039062 l 1,6,-1
 433.200195312 288.200195312 l 1,7,-1
 154 288.200195312 l 1,8,-1
 154 1811.40039062 l 1,9,-1
 154 2090.59960938 l 1,10,-1
 433.200195312 2090.59960938 l 1,11,-1
 1267.60058594 2090.59960938 l 1,0,-1
850 985.799804688 m 256,12,13
 766 985.799804688 766 985.799804688 706.400390625 1045.40039062 c 128,-1,14
 646.80078125 1105 646.80078125 1105 646.80078125 1189 c 256,15,16
 646.80078125 1273 646.80078125 1273 706.400390625 1333 c 128,-1,17
 766 1393 766 1393 850 1393 c 256,18,19
 934 1393 934 1393 994 1333 c 128,-1,20
 1054 1273 1054 1273 1054 1189 c 256,21,22
 1054 1105 1054 1105 994 1045.40039062 c 128,-1,23
 934 985.799804688 934 985.799804688 850 985.799804688 c 256,12,13
850 2186.59960938 m 256,24,25
 766 2186.59960938 766 2186.59960938 706.400390625 2246.59960938 c 128,-1,26
 646.80078125 2306.59960938 646.80078125 2306.59960938 646.80078125 2390.59960938 c 256,27,28
 646.80078125 2474.59960938 646.80078125 2474.59960938 706.400390625 2534.20019531 c 128,-1,29
 766 2593.79980469 766 2593.79980469 850 2593.79980469 c 256,30,31
 934 2593.79980469 934 2593.79980469 994 2534.20019531 c 128,-1,32
 1054 2474.59960938 1054 2474.59960938 1054 2390.59960938 c 256,33,34
 1054 2306.59960938 1054 2306.59960938 994 2246.59960938 c 128,-1,35
 934 2186.59960938 934 2186.59960938 850 2186.59960938 c 256,24,25
EndSplineSet
EndChar

StartChar: aacute
Encoding: 225 225 109
Width: 1700
VWidth: 1926
GlyphClass: 1
Flags: W
LayerCount: 2
Fore
SplineSet
1267.60058594 2090.59960938 m 1,0,-1
 1546.80078125 2090.59960938 l 1,1,-1
 1546.80078125 1811.40039062 l 1,2,-1
 1546.80078125 288.200195312 l 1,3,-1
 1267.60058594 288.200195312 l 1,4,-1
 1267.60058594 1811.40039062 l 1,5,-1
 433.200195312 1811.40039062 l 1,6,-1
 433.200195312 288.200195312 l 1,7,-1
 154 288.200195312 l 1,8,-1
 154 1811.40039062 l 1,9,-1
 154 2090.59960938 l 1,10,-1
 433.200195312 2090.59960938 l 1,11,-1
 1267.60058594 2090.59960938 l 1,0,-1
850 2186.59960938 m 256,12,13
 766 2186.59960938 766 2186.59960938 706.400390625 2246.59960938 c 128,-1,14
 646.80078125 2306.59960938 646.80078125 2306.59960938 646.80078125 2390.59960938 c 256,15,16
 646.80078125 2474.59960938 646.80078125 2474.59960938 706.400390625 2534.20019531 c 128,-1,17
 766 2593.79980469 766 2593.79980469 850 2593.79980469 c 256,18,19
 934 2593.79980469 934 2593.79980469 994 2534.20019531 c 128,-1,20
 1054 2474.59960938 1054 2474.59960938 1054 2390.59960938 c 256,21,22
 1054 2306.59960938 1054 2306.59960938 994 2246.59960938 c 128,-1,23
 934 2186.59960938 934 2186.59960938 850 2186.59960938 c 256,12,13
EndSplineSet
EndChar

StartChar: acircumflex
Encoding: 226 226 110
Width: 3401
VWidth: 1782
GlyphClass: 1
Flags: W
LayerCount: 2
Fore
SplineSet
2514.79980469 -46.7001953125 m 1,0,-1
 2794 -46.7001953125 l 1,1,-1
 2794 -501.900390625 l 1,2,-1
 2514.79980469 -501.900390625 l 1,3,-1
 2514.79980469 -501.099609375 l 1,4,-1
 887.599609375 -501.099609375 l 1,5,-1
 887.599609375 -501.900390625 l 1,6,-1
 608.399414062 -501.900390625 l 1,7,-1
 608.399414062 -46.7001953125 l 1,8,-1
 887.599609375 -46.7001953125 l 1,9,-1
 887.599609375 -222.700195312 l 1,10,-1
 2514.79980469 -222.700195312 l 1,11,-1
 2514.79980469 -46.7001953125 l 1,0,-1
1267.59960938 1946.90039062 m 1,12,-1
 1546 1946.90039062 l 1,13,-1
 1546 1667.70019531 l 1,14,-1
 1546 144.5 l 1,15,-1
 1267.59960938 144.5 l 1,16,-1
 1267.59960938 1667.70019531 l 1,17,-1
 433.200195312 1667.70019531 l 1,18,-1
 433.200195312 144.5 l 1,19,-1
 154 144.5 l 1,20,-1
 154 1667.70019531 l 1,21,-1
 154 1946.90039062 l 1,22,-1
 433.200195312 1946.90039062 l 1,23,-1
 1267.59960938 1946.90039062 l 1,12,-1
2969.20019531 144.5 m 1,24,-1
 2134 144.5 l 1,25,-1
 1855.59960938 144.5 l 1,26,-1
 1855.59960938 423.700195312 l 1,27,-1
 1855.59960938 1946.90039062 l 1,28,-1
 2134 1946.90039062 l 1,29,-1
 2134 423.700195312 l 1,30,-1
 2969.20019531 423.700195312 l 1,31,-1
 2969.20019531 1946.90039062 l 1,32,-1
 3247.59960938 1946.90039062 l 1,33,-1
 3247.59960938 423.700195312 l 1,34,-1
 3247.59960938 144.5 l 1,35,-1
 2969.20019531 144.5 l 1,24,-1
EndSplineSet
EndChar

StartChar: atilde
Encoding: 227 227 111
Width: 3401
VWidth: 1788
GlyphClass: 1
Flags: W
LayerCount: 2
Fore
SplineSet
2514.79980469 -17.7001953125 m 1,0,-1
 2794 -17.7001953125 l 1,1,-1
 2794 -472.900390625 l 1,2,-1
 2514.79980469 -472.900390625 l 1,3,-1
 2514.79980469 -472.099609375 l 1,4,-1
 887.599609375 -472.099609375 l 1,5,-1
 887.599609375 -472.900390625 l 1,6,-1
 608.399414062 -472.900390625 l 1,7,-1
 608.399414062 -17.7001953125 l 1,8,-1
 887.599609375 -17.7001953125 l 1,9,-1
 887.599609375 -193.700195312 l 1,10,-1
 2514.79980469 -193.700195312 l 1,11,-1
 2514.79980469 -17.7001953125 l 1,0,-1
1267.59960938 1975.90039062 m 1,12,-1
 1546 1975.90039062 l 1,13,-1
 1546 1696.70019531 l 1,14,-1
 1546 173.5 l 1,15,-1
 1267.59960938 173.5 l 1,16,-1
 1267.59960938 1696.70019531 l 1,17,-1
 433.200195312 1696.70019531 l 1,18,-1
 433.200195312 173.5 l 1,19,-1
 154 173.5 l 1,20,-1
 154 1696.70019531 l 1,21,-1
 154 1975.90039062 l 1,22,-1
 433.200195312 1975.90039062 l 1,23,-1
 1267.59960938 1975.90039062 l 1,12,-1
3247.59960938 1975.90039062 m 1,24,-1
 3247.59960938 1696.70019531 l 1,25,-1
 3247.59960938 452.700195312 l 1,26,-1
 3247.59960938 173.5 l 1,27,-1
 2969.20019531 173.5 l 1,28,-1
 1855.59960938 173.5 l 1,29,-1
 1855.59960938 452.700195312 l 1,30,-1
 2969.20019531 452.700195312 l 1,31,-1
 2969.20019531 1696.70019531 l 1,32,-1
 1855.59960938 1696.70019531 l 1,33,-1
 1855.59960938 1975.90039062 l 1,34,-1
 2969.20019531 1975.90039062 l 1,35,-1
 3247.59960938 1975.90039062 l 1,24,-1
EndSplineSet
EndChar

StartChar: adieresis
Encoding: 228 228 112
Width: 1700
VWidth: 1863
GlyphClass: 1
Flags: W
LayerCount: 2
Fore
SplineSet
850 922.900390625 m 0,0,1
 765.200195312 922.900390625 765.200195312 922.900390625 706 982.099609375 c 128,-1,2
 646.80078125 1041.29980469 646.80078125 1041.29980469 646.80078125 1126.09960938 c 0,3,4
 646.80078125 1211.70019531 646.80078125 1211.70019531 706 1270.90039062 c 0,5,6
 764.400390625 1329.29980469 764.400390625 1329.29980469 850 1329.29980469 c 0,7,8
 936.400390625 1329.29980469 936.400390625 1329.29980469 994.80078125 1270.90039062 c 128,-1,9
 1053.20019531 1212.5 1053.20019531 1212.5 1053.20019531 1126.09960938 c 0,10,11
 1053.20019531 1040.5 1053.20019531 1040.5 994.80078125 982.099609375 c 0,12,13
 935.600585938 922.900390625 935.600585938 922.900390625 850 922.900390625 c 0,0,1
1268.40039062 2027.70019531 m 1,14,-1
 1546.80078125 2027.70019531 l 1,15,-1
 1546.80078125 1749.29980469 l 1,16,-1
 1546.80078125 225.299804688 l 1,17,-1
 1268.40039062 225.299804688 l 1,18,-1
 1268.40039062 1749.29980469 l 1,19,-1
 432.400390625 1749.29980469 l 1,20,-1
 432.400390625 225.299804688 l 1,21,-1
 154 225.299804688 l 1,22,-1
 154 1749.29980469 l 1,23,-1
 154 2027.70019531 l 1,24,-1
 432.400390625 2027.70019531 l 1,25,-1
 1268.40039062 2027.70019531 l 1,14,-1
EndSplineSet
EndChar

StartChar: ntilde
Encoding: 241 241 113
Width: 1689
VWidth: 1863
GlyphClass: 1
Flags: W
LayerCount: 2
Fore
SplineSet
149 2027.70019531 m 1,0,-1
 1541 2027.70019531 l 1,1,-1
 1541 1749.29980469 l 1,2,-1
 984.200195312 1749.29980469 l 1,3,-1
 984.200195312 1265.29980469 l 1,4,-1
 705.799804688 1265.29980469 l 1,5,-1
 705.799804688 1749.29980469 l 1,6,-1
 149 1749.29980469 l 1,7,-1
 149 2027.70019531 l 1,0,-1
984.200195312 503.700195312 m 1,8,-1
 1541 503.700195312 l 1,9,-1
 1541 225.299804688 l 1,10,-1
 149 225.299804688 l 1,11,-1
 149 503.700195312 l 1,12,-1
 705.799804688 503.700195312 l 1,13,-1
 705.799804688 986.900390625 l 1,14,-1
 984.200195312 986.900390625 l 1,15,-1
 984.200195312 503.700195312 l 1,8,-1
EndSplineSet
EndChar

StartChar: ocircumflex
Encoding: 244 244 114
Width: 3402
VWidth: 1791
GlyphClass: 1
Flags: W
LayerCount: 2
Fore
SplineSet
2514.79980469 -4.599609375 m 1,0,-1
 2794.79980469 -4.599609375 l 1,1,-1
 2794.79980469 -459.799804688 l 1,2,-1
 2514.79980469 -459.799804688 l 1,3,-1
 2514.79980469 -458.200195312 l 1,4,-1
 888.399414062 -458.200195312 l 1,5,-1
 888.399414062 -459.799804688 l 1,6,-1
 609.19921875 -459.799804688 l 1,7,-1
 609.19921875 -4.599609375 l 1,8,-1
 888.399414062 -4.599609375 l 1,9,-1
 888.399414062 -179.799804688 l 1,10,-1
 2514.79980469 -179.799804688 l 1,11,-1
 2514.79980469 -4.599609375 l 1,0,-1
3249.19921875 1989.79980469 m 1,12,-1
 3249.19921875 1711.40039062 l 1,13,-1
 3249.19921875 465.799804688 l 1,14,-1
 3249.19921875 187.400390625 l 1,15,-1
 2970.79980469 187.400390625 l 1,16,-1
 1856.39941406 187.400390625 l 1,17,-1
 1856.39941406 465.799804688 l 1,18,-1
 2970.79980469 465.799804688 l 1,19,-1
 2970.79980469 1711.40039062 l 1,20,-1
 1856.39941406 1711.40039062 l 1,21,-1
 1856.39941406 1989.79980469 l 1,22,-1
 2970.79980469 1989.79980469 l 1,23,-1
 3249.19921875 1989.79980469 l 1,12,-1
1546.79980469 1989.79980469 m 1,24,-1
 1546.79980469 1711.40039062 l 1,25,-1
 1546.79980469 465.799804688 l 1,26,-1
 1546.79980469 187.400390625 l 1,27,-1
 1268.39941406 187.400390625 l 1,28,-1
 434 187.400390625 l 1,29,-1
 154 187.400390625 l 1,30,-1
 154 465.799804688 l 1,31,-1
 154 1711.40039062 l 1,32,-1
 154 1989.79980469 l 1,33,-1
 434 1989.79980469 l 1,34,-1
 1268.39941406 1989.79980469 l 1,35,-1
 1546.79980469 1989.79980469 l 1,24,-1
434 465.799804688 m 1,36,-1
 1268.39941406 465.799804688 l 1,37,-1
 1268.39941406 1711.40039062 l 1,38,-1
 434 1711.40039062 l 1,39,-1
 434 465.799804688 l 1,36,-1
EndSplineSet
EndChar

StartChar: otilde
Encoding: 245 245 115
Width: 3409
VWidth: 1848
GlyphClass: 1
Flags: W
LayerCount: 2
Fore
SplineSet
1699.59960938 2108.70019531 m 256,0,1
 1615.59960938 2108.70019531 1615.59960938 2108.70019531 1556.39941406 2168.70019531 c 0,2,3
 1496.39941406 2228.70019531 1496.39941406 2228.70019531 1496.39941406 2312.70019531 c 256,4,5
 1496.39941406 2396.70019531 1496.39941406 2396.70019531 1556.39941406 2456.70019531 c 0,6,7
 1615.59960938 2515.90039062 1615.59960938 2515.90039062 1699.59960938 2515.90039062 c 0,8,9
 1782.79980469 2515.90039062 1782.79980469 2515.90039062 1843.59960938 2456.70019531 c 0,10,11
 1903.59960938 2396.70019531 1903.59960938 2396.70019531 1903.59960938 2312.70019531 c 256,12,13
 1903.59960938 2228.70019531 1903.59960938 2228.70019531 1843.59960938 2168.70019531 c 128,-1,14
 1783.59960938 2108.70019531 1783.59960938 2108.70019531 1699.59960938 2108.70019531 c 256,0,1
2514.79980469 42.2998046875 m 1,15,-1
 2794 42.2998046875 l 1,16,-1
 2794 -412.900390625 l 1,17,-1
 2514.79980469 -412.900390625 l 1,18,-1
 2514.79980469 -412.099609375 l 1,19,-1
 887.599609375 -412.099609375 l 1,20,-1
 887.599609375 -412.900390625 l 1,21,-1
 608.399414062 -412.900390625 l 1,22,-1
 608.399414062 42.2998046875 l 1,23,-1
 887.599609375 42.2998046875 l 1,24,-1
 887.599609375 -133.700195312 l 1,25,-1
 2514.79980469 -133.700195312 l 1,26,-1
 2514.79980469 42.2998046875 l 1,15,-1
2976.39941406 2035.90039062 m 1,27,-1
 3255.59960938 2035.90039062 l 1,28,-1
 3255.59960938 1756.70019531 l 1,29,-1
 3255.59960938 233.5 l 1,30,-1
 2976.39941406 233.5 l 1,31,-1
 2976.39941406 1756.70019531 l 1,32,-1
 2141.20019531 1756.70019531 l 1,33,-1
 2141.20019531 233.5 l 1,34,-1
 1862.79980469 233.5 l 1,35,-1
 1862.79980469 1756.70019531 l 1,36,-1
 1862.79980469 2035.90039062 l 1,37,-1
 2141.20019531 2035.90039062 l 1,38,-1
 2976.39941406 2035.90039062 l 1,27,-1
1546 2035.90039062 m 1,39,-1
 1546 1756.70019531 l 1,40,-1
 1546 512.700195312 l 1,41,-1
 1546 233.5 l 1,42,-1
 1267.59960938 233.5 l 1,43,-1
 433.200195312 233.5 l 1,44,-1
 154 233.5 l 1,45,-1
 154 512.700195312 l 1,46,-1
 154 1756.70019531 l 1,47,-1
 154 2035.90039062 l 1,48,-1
 433.200195312 2035.90039062 l 1,49,-1
 1267.59960938 2035.90039062 l 1,50,-1
 1546 2035.90039062 l 1,39,-1
433.200195312 512.700195312 m 1,51,-1
 1267.59960938 512.700195312 l 1,52,-1
 1267.59960938 1756.70019531 l 1,53,-1
 433.200195312 1756.70019531 l 1,54,-1
 433.200195312 512.700195312 l 1,51,-1
EndSplineSet
EndChar

StartChar: ugrave
Encoding: 249 249 116
Width: 1700
VWidth: 1926
GlyphClass: 1
Flags: W
LayerCount: 2
Fore
SplineSet
850 2186.59960938 m 256,0,1
 766 2186.59960938 766 2186.59960938 706.400390625 2246.59960938 c 128,-1,2
 646.80078125 2306.59960938 646.80078125 2306.59960938 646.80078125 2390.59960938 c 256,3,4
 646.80078125 2474.59960938 646.80078125 2474.59960938 706.400390625 2534.20019531 c 128,-1,5
 766 2593.79980469 766 2593.79980469 850 2593.79980469 c 256,6,7
 934 2593.79980469 934 2593.79980469 994 2534.20019531 c 128,-1,8
 1054 2474.59960938 1054 2474.59960938 1054 2390.59960938 c 256,9,10
 1054 2306.59960938 1054 2306.59960938 994 2246.59960938 c 128,-1,11
 934 2186.59960938 934 2186.59960938 850 2186.59960938 c 256,0,1
850 985.799804688 m 256,12,13
 766 985.799804688 766 985.799804688 706.400390625 1045.40039062 c 128,-1,14
 646.80078125 1105 646.80078125 1105 646.80078125 1189 c 256,15,16
 646.80078125 1273 646.80078125 1273 706.400390625 1333 c 128,-1,17
 766 1393 766 1393 850 1393 c 256,18,19
 934 1393 934 1393 994 1333 c 128,-1,20
 1054 1273 1054 1273 1054 1189 c 256,21,22
 1054 1105 1054 1105 994 1045.40039062 c 128,-1,23
 934 985.799804688 934 985.799804688 850 985.799804688 c 256,12,13
1267.60058594 288.200195312 m 1,24,-1
 433.200195312 288.200195312 l 1,25,-1
 154 288.200195312 l 1,26,-1
 154 567.400390625 l 1,27,-1
 154 2090.59960938 l 1,28,-1
 433.200195312 2090.59960938 l 1,29,-1
 433.200195312 567.400390625 l 1,30,-1
 1267.60058594 567.400390625 l 1,31,-1
 1267.60058594 2090.59960938 l 1,32,-1
 1546.80078125 2090.59960938 l 1,33,-1
 1546.80078125 567.400390625 l 1,34,-1
 1546.80078125 288.200195312 l 1,35,-1
 1267.60058594 288.200195312 l 1,24,-1
EndSplineSet
EndChar

StartChar: uacute
Encoding: 250 250 117
Width: 1700
VWidth: 1926
GlyphClass: 1
Flags: W
LayerCount: 2
Fore
SplineSet
850 2186.59960938 m 256,0,1
 766 2186.59960938 766 2186.59960938 706.400390625 2246.59960938 c 128,-1,2
 646.80078125 2306.59960938 646.80078125 2306.59960938 646.80078125 2390.59960938 c 256,3,4
 646.80078125 2474.59960938 646.80078125 2474.59960938 706.400390625 2534.20019531 c 128,-1,5
 766 2593.79980469 766 2593.79980469 850 2593.79980469 c 256,6,7
 934 2593.79980469 934 2593.79980469 994 2534.20019531 c 128,-1,8
 1054 2474.59960938 1054 2474.59960938 1054 2390.59960938 c 256,9,10
 1054 2306.59960938 1054 2306.59960938 994 2246.59960938 c 128,-1,11
 934 2186.59960938 934 2186.59960938 850 2186.59960938 c 256,0,1
1267.60058594 288.200195312 m 1,12,-1
 433.200195312 288.200195312 l 1,13,-1
 154 288.200195312 l 1,14,-1
 154 567.400390625 l 1,15,-1
 154 2090.59960938 l 1,16,-1
 433.200195312 2090.59960938 l 1,17,-1
 433.200195312 567.400390625 l 1,18,-1
 1267.60058594 567.400390625 l 1,19,-1
 1267.60058594 2090.59960938 l 1,20,-1
 1546.80078125 2090.59960938 l 1,21,-1
 1546.80078125 567.400390625 l 1,22,-1
 1546.80078125 288.200195312 l 1,23,-1
 1267.60058594 288.200195312 l 1,12,-1
EndSplineSet
EndChar

StartChar: udieresis
Encoding: 252 252 118
Width: 1700
VWidth: 1863
GlyphClass: 1
Flags: W
LayerCount: 2
Fore
SplineSet
850 922.900390625 m 0,0,1
 765.200195312 922.900390625 765.200195312 922.900390625 706 982.099609375 c 128,-1,2
 646.80078125 1041.29980469 646.80078125 1041.29980469 646.80078125 1126.09960938 c 0,3,4
 646.80078125 1211.70019531 646.80078125 1211.70019531 706 1270.90039062 c 0,5,6
 764.400390625 1329.29980469 764.400390625 1329.29980469 850 1329.29980469 c 0,7,8
 936.400390625 1329.29980469 936.400390625 1329.29980469 994.80078125 1270.90039062 c 128,-1,9
 1053.20019531 1212.5 1053.20019531 1212.5 1053.20019531 1126.09960938 c 0,10,11
 1053.20019531 1040.5 1053.20019531 1040.5 994.80078125 982.099609375 c 0,12,13
 935.600585938 922.900390625 935.600585938 922.900390625 850 922.900390625 c 0,0,1
1268.40039062 225.299804688 m 1,14,-1
 432.400390625 225.299804688 l 1,15,-1
 154 225.299804688 l 1,16,-1
 154 503.700195312 l 1,17,-1
 154 2027.70019531 l 1,18,-1
 432.400390625 2027.70019531 l 1,19,-1
 432.400390625 503.700195312 l 1,20,-1
 1268.40039062 503.700195312 l 1,21,-1
 1268.40039062 2027.70019531 l 1,22,-1
 1546.80078125 2027.70019531 l 1,23,-1
 1546.80078125 503.700195312 l 1,24,-1
 1546.80078125 225.299804688 l 1,25,-1
 1268.40039062 225.299804688 l 1,14,-1
EndSplineSet
EndChar

StartChar: OE
Encoding: 338 338 119
Width: 3396
VWidth: 1848
GlyphClass: 1
Flags: W
LayerCount: 2
Fore
SplineSet
1695.40039062 2120.79980469 m 256,0,1
 1611.40039062 2120.79980469 1611.40039062 2120.79980469 1552.20019531 2180.79980469 c 0,2,3
 1492.20019531 2240.79980469 1492.20019531 2240.79980469 1492.20019531 2324.79980469 c 256,4,5
 1492.20019531 2408.79980469 1492.20019531 2408.79980469 1552.20019531 2468 c 0,6,7
 1611.40039062 2528 1611.40039062 2528 1695.40039062 2528 c 128,-1,8
 1779.40039062 2528 1779.40039062 2528 1839.40039062 2468 c 0,9,10
 1899.40039062 2408.79980469 1899.40039062 2408.79980469 1899.40039062 2324.79980469 c 128,-1,11
 1899.40039062 2240.79980469 1899.40039062 2240.79980469 1839.40039062 2180.79980469 c 128,-1,12
 1779.40039062 2120.79980469 1779.40039062 2120.79980469 1695.40039062 2120.79980469 c 256,0,1
2509.79980469 31.2001953125 m 1,13,-1
 2789 31.2001953125 l 1,14,-1
 2789 -424 l 1,15,-1
 2509.79980469 -424 l 1,16,-1
 2509.79980469 -423.200195312 l 1,17,-1
 882.600585938 -423.200195312 l 1,18,-1
 882.600585938 -424 l 1,19,-1
 603.400390625 -424 l 1,20,-1
 603.400390625 31.2001953125 l 1,21,-1
 882.600585938 31.2001953125 l 1,22,-1
 882.600585938 -144.799804688 l 1,23,-1
 2509.79980469 -144.799804688 l 1,24,-1
 2509.79980469 31.2001953125 l 1,13,-1
2964.20019531 222.400390625 m 1,25,-1
 2129 222.400390625 l 1,26,-1
 1850.60058594 222.400390625 l 1,27,-1
 1850.60058594 501.599609375 l 1,28,-1
 1850.60058594 2024.79980469 l 1,29,-1
 2129 2024.79980469 l 1,30,-1
 2129 501.599609375 l 1,31,-1
 2964.20019531 501.599609375 l 1,32,-1
 2964.20019531 2024.79980469 l 1,33,-1
 3243.40039062 2024.79980469 l 1,34,-1
 3243.40039062 501.599609375 l 1,35,-1
 3243.40039062 222.400390625 l 1,36,-1
 2964.20019531 222.400390625 l 1,25,-1
1541 2024.79980469 m 1,37,-1
 1541 1745.59960938 l 1,38,-1
 1541 501.599609375 l 1,39,-1
 1541 222.400390625 l 1,40,-1
 1262.60058594 222.400390625 l 1,41,-1
 149 222.400390625 l 1,42,-1
 149 501.599609375 l 1,43,-1
 1262.60058594 501.599609375 l 1,44,-1
 1262.60058594 1745.59960938 l 1,45,-1
 149 1745.59960938 l 1,46,-1
 149 2024.79980469 l 1,47,-1
 1262.60058594 2024.79980469 l 1,48,-1
 1541 2024.79980469 l 1,37,-1
EndSplineSet
EndChar

StartChar: quoteleft
Encoding: 8216 8216 120
Width: 3401
VWidth: 1848
GlyphClass: 1
Flags: W
LayerCount: 2
Fore
SplineSet
1696.39941406 2120.79980469 m 256,0,1
 1612.39941406 2120.79980469 1612.39941406 2120.79980469 1553.20019531 2180.79980469 c 0,2,3
 1493.20019531 2240.79980469 1493.20019531 2240.79980469 1493.20019531 2324.79980469 c 256,4,5
 1493.20019531 2408.79980469 1493.20019531 2408.79980469 1553.20019531 2468 c 0,6,7
 1612.39941406 2528 1612.39941406 2528 1696.39941406 2528 c 128,-1,8
 1780.39941406 2528 1780.39941406 2528 1840.39941406 2468 c 0,9,10
 1900.39941406 2408.79980469 1900.39941406 2408.79980469 1900.39941406 2324.79980469 c 128,-1,11
 1900.39941406 2240.79980469 1900.39941406 2240.79980469 1840.39941406 2180.79980469 c 128,-1,12
 1780.39941406 2120.79980469 1780.39941406 2120.79980469 1696.39941406 2120.79980469 c 256,0,1
2510.79980469 31.2001953125 m 1,13,-1
 2790 31.2001953125 l 1,14,-1
 2790 -424 l 1,15,-1
 2510.79980469 -424 l 1,16,-1
 2510.79980469 -423.200195312 l 1,17,-1
 883.599609375 -423.200195312 l 1,18,-1
 883.599609375 -424 l 1,19,-1
 604.399414062 -424 l 1,20,-1
 604.399414062 31.2001953125 l 1,21,-1
 883.599609375 31.2001953125 l 1,22,-1
 883.599609375 -144.799804688 l 1,23,-1
 2510.79980469 -144.799804688 l 1,24,-1
 2510.79980469 31.2001953125 l 1,13,-1
2972.39941406 2024.79980469 m 1,25,-1
 3251.59960938 2024.79980469 l 1,26,-1
 3251.59960938 1745.59960938 l 1,27,-1
 3251.59960938 222.400390625 l 1,28,-1
 2972.39941406 222.400390625 l 1,29,-1
 2972.39941406 1745.59960938 l 1,30,-1
 2137.20019531 1745.59960938 l 1,31,-1
 2137.20019531 222.400390625 l 1,32,-1
 1858.79980469 222.400390625 l 1,33,-1
 1858.79980469 1745.59960938 l 1,34,-1
 1858.79980469 2024.79980469 l 1,35,-1
 2137.20019531 2024.79980469 l 1,36,-1
 2972.39941406 2024.79980469 l 1,25,-1
1542 2024.79980469 m 1,37,-1
 1542 1745.59960938 l 1,38,-1
 1542 501.599609375 l 1,39,-1
 1542 222.400390625 l 1,40,-1
 1263.59960938 222.400390625 l 1,41,-1
 429.200195312 222.400390625 l 1,42,-1
 150 222.400390625 l 1,43,-1
 150 501.599609375 l 1,44,-1
 150 1745.59960938 l 1,45,-1
 150 2024.79980469 l 1,46,-1
 429.200195312 2024.79980469 l 1,47,-1
 1263.59960938 2024.79980469 l 1,48,-1
 1542 2024.79980469 l 1,37,-1
429.200195312 501.599609375 m 1,49,-1
 1263.59960938 501.599609375 l 1,50,-1
 1263.59960938 1745.59960938 l 1,51,-1
 429.200195312 1745.59960938 l 1,52,-1
 429.200195312 501.599609375 l 1,49,-1
EndSplineSet
EndChar

StartChar: quoteright
Encoding: 8217 8217 121
Width: 3393
VWidth: 1851
GlyphClass: 1
Flags: W
LayerCount: 2
Fore
SplineSet
1696.39941406 2134.79980469 m 256,0,1
 1612.39941406 2134.79980469 1612.39941406 2134.79980469 1553.20019531 2194.79980469 c 0,2,3
 1493.20019531 2254.79980469 1493.20019531 2254.79980469 1493.20019531 2338.79980469 c 256,4,5
 1493.20019531 2422.79980469 1493.20019531 2422.79980469 1553.20019531 2482 c 0,6,7
 1612.39941406 2542 1612.39941406 2542 1696.39941406 2542 c 128,-1,8
 1780.39941406 2542 1780.39941406 2542 1840.39941406 2482 c 0,9,10
 1900.39941406 2422.79980469 1900.39941406 2422.79980469 1900.39941406 2338.79980469 c 128,-1,11
 1900.39941406 2254.79980469 1900.39941406 2254.79980469 1840.39941406 2194.79980469 c 128,-1,12
 1780.39941406 2134.79980469 1780.39941406 2134.79980469 1696.39941406 2134.79980469 c 256,0,1
2510.79980469 45.2001953125 m 1,13,-1
 2790 45.2001953125 l 1,14,-1
 2790 -410 l 1,15,-1
 2510.79980469 -410 l 1,16,-1
 2510.79980469 -409.200195312 l 1,17,-1
 883.599609375 -409.200195312 l 1,18,-1
 883.599609375 -410 l 1,19,-1
 604.399414062 -410 l 1,20,-1
 604.399414062 45.2001953125 l 1,21,-1
 883.599609375 45.2001953125 l 1,22,-1
 883.599609375 -130.799804688 l 1,23,-1
 2510.79980469 -130.799804688 l 1,24,-1
 2510.79980469 45.2001953125 l 1,13,-1
3243.59960938 2038.79980469 m 1,25,-1
 3243.59960938 1759.59960938 l 1,26,-1
 3243.59960938 515.599609375 l 1,27,-1
 3243.59960938 236.400390625 l 1,28,-1
 2965.20019531 236.400390625 l 1,29,-1
 1851.59960938 236.400390625 l 1,30,-1
 1851.59960938 515.599609375 l 1,31,-1
 2965.20019531 515.599609375 l 1,32,-1
 2965.20019531 1759.59960938 l 1,33,-1
 1851.59960938 1759.59960938 l 1,34,-1
 1851.59960938 2038.79980469 l 1,35,-1
 2965.20019531 2038.79980469 l 1,36,-1
 3243.59960938 2038.79980469 l 1,25,-1
1542 2038.79980469 m 1,37,-1
 1542 1759.59960938 l 1,38,-1
 1542 515.599609375 l 1,39,-1
 1542 236.400390625 l 1,40,-1
 1263.59960938 236.400390625 l 1,41,-1
 429.200195312 236.400390625 l 1,42,-1
 150 236.400390625 l 1,43,-1
 150 515.599609375 l 1,44,-1
 150 1759.59960938 l 1,45,-1
 150 2038.79980469 l 1,46,-1
 429.200195312 2038.79980469 l 1,47,-1
 1263.59960938 2038.79980469 l 1,48,-1
 1542 2038.79980469 l 1,37,-1
429.200195312 515.599609375 m 1,49,-1
 1263.59960938 515.599609375 l 1,50,-1
 1263.59960938 1759.59960938 l 1,51,-1
 429.200195312 1759.59960938 l 1,52,-1
 429.200195312 515.599609375 l 1,49,-1
EndSplineSet
EndChar

StartChar: quotesinglbase
Encoding: 8218 8218 122
Width: 3399
VWidth: 1782
GlyphClass: 1
Flags: W
LayerCount: 2
Fore
SplineSet
2513.79980469 -46.7001953125 m 1,0,-1
 2793 -46.7001953125 l 1,1,-1
 2793 -501.900390625 l 1,2,-1
 2513.79980469 -501.900390625 l 1,3,-1
 2513.79980469 -501.099609375 l 1,4,-1
 886.599609375 -501.099609375 l 1,5,-1
 886.599609375 -501.900390625 l 1,6,-1
 607.399414062 -501.900390625 l 1,7,-1
 607.399414062 -46.7001953125 l 1,8,-1
 886.599609375 -46.7001953125 l 1,9,-1
 886.599609375 -222.700195312 l 1,10,-1
 2513.79980469 -222.700195312 l 1,11,-1
 2513.79980469 -46.7001953125 l 1,0,-1
1266.59960938 1946.90039062 m 1,12,-1
 1545 1946.90039062 l 1,13,-1
 1545 1667.70019531 l 1,14,-1
 1545 144.5 l 1,15,-1
 1266.59960938 144.5 l 1,16,-1
 1266.59960938 1667.70019531 l 1,17,-1
 432.200195312 1667.70019531 l 1,18,-1
 432.200195312 144.5 l 1,19,-1
 153 144.5 l 1,20,-1
 153 1667.70019531 l 1,21,-1
 153 1946.90039062 l 1,22,-1
 432.200195312 1946.90039062 l 1,23,-1
 1266.59960938 1946.90039062 l 1,12,-1
2968.20019531 144.5 m 1,24,-1
 2133 144.5 l 1,25,-1
 1854.59960938 144.5 l 1,26,-1
 1854.59960938 423.700195312 l 1,27,-1
 1854.59960938 1946.90039062 l 1,28,-1
 2133 1946.90039062 l 1,29,-1
 2133 423.700195312 l 1,30,-1
 2968.20019531 423.700195312 l 1,31,-1
 2968.20019531 1946.90039062 l 1,32,-1
 3246.59960938 1946.90039062 l 1,33,-1
 3246.59960938 423.700195312 l 1,34,-1
 3246.59960938 144.5 l 1,35,-1
 2968.20019531 144.5 l 1,24,-1
EndSplineSet
EndChar

StartChar: quotedblbase
Encoding: 8222 8222 123
Width: 1690
VWidth: 1926
GlyphClass: 1
Flags: W
LayerCount: 2
Back
SplineSet
3079 -210 m 1,0,-1
 3428 -210 l 1,1,-1
 3428 -779 l 1,2,-1
 3079 -779 l 1,3,-1
 3079 -778 l 1,4,-1
 1045 -778 l 1,5,-1
 1045 -779 l 1,6,-1
 696 -779 l 1,7,-1
 696 -210 l 1,8,-1
 1045 -210 l 1,9,-1
 1045 -430 l 1,10,-1
 3079 -430 l 1,11,-1
 3079 -210 l 1,0,-1
1520 2282 m 1,12,-1
 1868 2282 l 1,13,-1
 1868 1933 l 1,14,-1
 1868 29 l 1,15,-1
 1520 29 l 1,16,-1
 1520 1933 l 1,17,-1
 477 1933 l 1,18,-1
 477 29 l 1,19,-1
 128 29 l 1,20,-1
 128 1933 l 1,21,-1
 128 2282 l 1,22,-1
 477 2282 l 1,23,-1
 1520 2282 l 1,12,-1
3995 2282 m 1,24,-1
 3995 1933 l 1,25,-1
 3995 378 l 1,26,-1
 3995 29 l 1,27,-1
 3647 29 l 1,28,-1
 2255 29 l 1,29,-1
 2255 378 l 1,30,-1
 3647 378 l 1,31,-1
 3647 1933 l 1,32,-1
 2255 1933 l 1,33,-1
 2255 2282 l 1,34,-1
 3647 2282 l 1,35,-1
 3995 2282 l 1,24,-1
EndSplineSet
Fore
SplineSet
1262.60058594 2090.59960938 m 1,0,-1
 1541.80078125 2090.59960938 l 1,1,-1
 1541.80078125 1811.40039062 l 1,2,-1
 1541.80078125 288.200195312 l 1,3,-1
 1262.60058594 288.200195312 l 1,4,-1
 1262.60058594 1811.40039062 l 1,5,-1
 428.200195312 1811.40039062 l 1,6,-1
 428.200195312 288.200195312 l 1,7,-1
 149 288.200195312 l 1,8,-1
 149 1811.40039062 l 1,9,-1
 149 2090.59960938 l 1,10,-1
 428.200195312 2090.59960938 l 1,11,-1
 1262.60058594 2090.59960938 l 1,0,-1
845 985.799804688 m 256,12,13
 761.80078125 985.799804688 761.80078125 985.799804688 701 1045 c 0,14,15
 641.80078125 1105.79980469 641.80078125 1105.79980469 641.80078125 1189 c 128,-1,16
 641.80078125 1272.20019531 641.80078125 1272.20019531 701 1333 c 0,17,18
 761 1393 761 1393 845 1393 c 256,19,20
 929 1393 929 1393 989 1333 c 128,-1,21
 1049 1273 1049 1273 1049 1189 c 256,22,23
 1049 1105 1049 1105 989 1045 c 0,24,25
 928.200195312 985.799804688 928.200195312 985.799804688 845 985.799804688 c 256,12,13
845 2186.59960938 m 256,26,27
 761 2186.59960938 761 2186.59960938 701 2246.59960938 c 0,28,29
 641.80078125 2307.40039062 641.80078125 2307.40039062 641.80078125 2390.59960938 c 128,-1,30
 641.80078125 2473.79980469 641.80078125 2473.79980469 701 2534.59960938 c 0,31,32
 761.80078125 2593.79980469 761.80078125 2593.79980469 845 2593.79980469 c 128,-1,33
 928.200195312 2593.79980469 928.200195312 2593.79980469 989 2534.59960938 c 0,34,35
 1049 2474.59960938 1049 2474.59960938 1049 2390.59960938 c 256,36,37
 1049 2306.59960938 1049 2306.59960938 989 2246.59960938 c 128,-1,38
 929 2186.59960938 929 2186.59960938 845 2186.59960938 c 256,26,27
EndSplineSet
EndChar

StartChar: daggerdbl
Encoding: 8225 8225 124
Width: 1690
VWidth: 1926
GlyphClass: 1
Flags: W
LayerCount: 2
Fore
SplineSet
1262.60058594 2090.59960938 m 1,0,-1
 1541.80078125 2090.59960938 l 1,1,-1
 1541.80078125 1811.40039062 l 1,2,-1
 1541.80078125 288.200195312 l 1,3,-1
 1262.60058594 288.200195312 l 1,4,-1
 1262.60058594 1811.40039062 l 1,5,-1
 428.200195312 1811.40039062 l 1,6,-1
 428.200195312 288.200195312 l 1,7,-1
 149 288.200195312 l 1,8,-1
 149 1811.40039062 l 1,9,-1
 149 2090.59960938 l 1,10,-1
 428.200195312 2090.59960938 l 1,11,-1
 1262.60058594 2090.59960938 l 1,0,-1
845 985.799804688 m 256,12,13
 761.80078125 985.799804688 761.80078125 985.799804688 701 1045 c 0,14,15
 641.80078125 1105.79980469 641.80078125 1105.79980469 641.80078125 1189 c 128,-1,16
 641.80078125 1272.20019531 641.80078125 1272.20019531 701 1333 c 0,17,18
 761 1393 761 1393 845 1393 c 256,19,20
 929 1393 929 1393 989 1333 c 128,-1,21
 1049 1273 1049 1273 1049 1189 c 256,22,23
 1049 1105 1049 1105 989 1045 c 0,24,25
 928.200195312 985.799804688 928.200195312 985.799804688 845 985.799804688 c 256,12,13
845 2186.59960938 m 256,26,27
 761 2186.59960938 761 2186.59960938 701 2246.59960938 c 0,28,29
 641.80078125 2307.40039062 641.80078125 2307.40039062 641.80078125 2390.59960938 c 128,-1,30
 641.80078125 2473.79980469 641.80078125 2473.79980469 701 2534.59960938 c 0,31,32
 761.80078125 2593.79980469 761.80078125 2593.79980469 845 2593.79980469 c 128,-1,33
 928.200195312 2593.79980469 928.200195312 2593.79980469 989 2534.59960938 c 0,34,35
 1049 2474.59960938 1049 2474.59960938 1049 2390.59960938 c 256,36,37
 1049 2306.59960938 1049 2306.59960938 989 2246.59960938 c 128,-1,38
 929 2186.59960938 929 2186.59960938 845 2186.59960938 c 256,26,27
EndSplineSet
EndChar

StartChar: egrave
Encoding: 232 232 125
Width: 1694
VWidth: 1926
Flags: W
LayerCount: 2
Fore
SplineSet
850 2186.59960938 m 256,0,1
 766 2186.59960938 766 2186.59960938 706.400390625 2246.59960938 c 128,-1,2
 646.80078125 2306.59960938 646.80078125 2306.59960938 646.80078125 2390.59960938 c 256,3,4
 646.80078125 2474.59960938 646.80078125 2474.59960938 706.400390625 2534.20019531 c 128,-1,5
 766 2593.79980469 766 2593.79980469 850 2593.79980469 c 256,6,7
 934 2593.79980469 934 2593.79980469 994 2534.20019531 c 128,-1,8
 1054 2474.59960938 1054 2474.59960938 1054 2390.59960938 c 256,9,10
 1054 2306.59960938 1054 2306.59960938 994 2246.59960938 c 128,-1,11
 934 2186.59960938 934 2186.59960938 850 2186.59960938 c 256,0,1
850 985.799804688 m 256,12,13
 766 985.799804688 766 985.799804688 706.400390625 1045.40039062 c 128,-1,14
 646.80078125 1105 646.80078125 1105 646.80078125 1189 c 256,15,16
 646.80078125 1273 646.80078125 1273 706.400390625 1333 c 128,-1,17
 766 1393 766 1393 850 1393 c 256,18,19
 934 1393 934 1393 994 1333 c 128,-1,20
 1054 1273 1054 1273 1054 1189 c 256,21,22
 1054 1105 1054 1105 994 1045.40039062 c 128,-1,23
 934 985.799804688 934 985.799804688 850 985.799804688 c 256,12,13
154 288.200195312 m 1,24,-1
 154 567.400390625 l 1,25,-1
 154 1811.40039062 l 1,26,-1
 154 2090.59960938 l 1,27,-1
 433.200195312 2090.59960938 l 1,28,-1
 1546.80078125 2090.59960938 l 1,29,-1
 1546.80078125 1811.40039062 l 1,30,-1
 433.200195312 1811.40039062 l 1,31,-1
 433.200195312 567.400390625 l 1,32,-1
 1546.80078125 567.400390625 l 1,33,-1
 1546.80078125 288.200195312 l 1,34,-1
 433.200195312 288.200195312 l 1,35,-1
 154 288.200195312 l 1,24,-1
EndSplineSet
EndChar

StartChar: eacute
Encoding: 233 233 126
Width: 1695
VWidth: 1926
Flags: W
LayerCount: 2
Fore
SplineSet
850 2186.59960938 m 256,0,1
 766 2186.59960938 766 2186.59960938 706.400390625 2246.59960938 c 128,-1,2
 646.80078125 2306.59960938 646.80078125 2306.59960938 646.80078125 2390.59960938 c 256,3,4
 646.80078125 2474.59960938 646.80078125 2474.59960938 706.400390625 2534.20019531 c 128,-1,5
 766 2593.79980469 766 2593.79980469 850 2593.79980469 c 256,6,7
 934 2593.79980469 934 2593.79980469 994 2534.20019531 c 128,-1,8
 1054 2474.59960938 1054 2474.59960938 1054 2390.59960938 c 256,9,10
 1054 2306.59960938 1054 2306.59960938 994 2246.59960938 c 128,-1,11
 934 2186.59960938 934 2186.59960938 850 2186.59960938 c 256,0,1
154 288.200195312 m 1,12,-1
 154 567.400390625 l 1,13,-1
 154 1811.40039062 l 1,14,-1
 154 2090.59960938 l 1,15,-1
 433.200195312 2090.59960938 l 1,16,-1
 1546.80078125 2090.59960938 l 1,17,-1
 1546.80078125 1811.40039062 l 1,18,-1
 433.200195312 1811.40039062 l 1,19,-1
 433.200195312 567.400390625 l 1,20,-1
 1546.80078125 567.400390625 l 1,21,-1
 1546.80078125 288.200195312 l 1,22,-1
 433.200195312 288.200195312 l 1,23,-1
 154 288.200195312 l 1,12,-1
EndSplineSet
EndChar

StartChar: edieresis
Encoding: 235 235 127
Width: 1695
VWidth: 1863
Flags: W
LayerCount: 2
Fore
SplineSet
850 922.900390625 m 0,0,1
 765.200195312 922.900390625 765.200195312 922.900390625 706 982.099609375 c 128,-1,2
 646.80078125 1041.29980469 646.80078125 1041.29980469 646.80078125 1126.09960938 c 0,3,4
 646.80078125 1211.70019531 646.80078125 1211.70019531 706 1270.90039062 c 0,5,6
 764.400390625 1329.29980469 764.400390625 1329.29980469 850 1329.29980469 c 0,7,8
 936.400390625 1329.29980469 936.400390625 1329.29980469 994.80078125 1270.90039062 c 128,-1,9
 1053.20019531 1212.5 1053.20019531 1212.5 1053.20019531 1126.09960938 c 0,10,11
 1053.20019531 1040.5 1053.20019531 1040.5 994.80078125 982.099609375 c 0,12,13
 935.600585938 922.900390625 935.600585938 922.900390625 850 922.900390625 c 0,0,1
154 225.299804688 m 1,14,-1
 154 503.700195312 l 1,15,-1
 154 1749.29980469 l 1,16,-1
 154 2027.70019531 l 1,17,-1
 432.400390625 2027.70019531 l 1,18,-1
 1546.80078125 2027.70019531 l 1,19,-1
 1546.80078125 1749.29980469 l 1,20,-1
 432.400390625 1749.29980469 l 1,21,-1
 432.400390625 503.700195312 l 1,22,-1
 1546.80078125 503.700195312 l 1,23,-1
 1546.80078125 225.299804688 l 1,24,-1
 432.400390625 225.299804688 l 1,25,-1
 154 225.299804688 l 1,14,-1
EndSplineSet
EndChar

StartChar: igrave
Encoding: 236 236 128
Width: 1694
VWidth: 1926
Flags: W
LayerCount: 2
Fore
SplineSet
844 2186.59960938 m 260,0,1
 760 2186.59960938 760 2186.59960938 700.400390625 2246.59960938 c 132,-1,2
 640.80078125 2306.59960938 640.80078125 2306.59960938 640.80078125 2390.59960938 c 260,3,4
 640.80078125 2474.59960938 640.80078125 2474.59960938 700.400390625 2534.20019531 c 132,-1,5
 760 2593.79980469 760 2593.79980469 844 2593.79980469 c 260,6,7
 928 2593.79980469 928 2593.79980469 988 2534.20019531 c 132,-1,8
 1048 2474.59960938 1048 2474.59960938 1048 2390.59960938 c 260,9,10
 1048 2306.59960938 1048 2306.59960938 988 2246.59960938 c 132,-1,11
 928 2186.59960938 928 2186.59960938 844 2186.59960938 c 260,0,1
1540.80078125 2090.59960938 m 1,12,-1
 1540.80078125 1811.40039062 l 1,13,-1
 1540.80078125 567.400390625 l 1,14,-1
 1540.80078125 288.200195312 l 1,15,-1
 1261.60058594 288.200195312 l 1,16,-1
 148 288.200195312 l 1,17,-1
 148 567.400390625 l 1,18,-1
 1261.60058594 567.400390625 l 1,19,-1
 1261.60058594 1811.40039062 l 1,20,-1
 148 1811.40039062 l 1,21,-1
 148 2090.59960938 l 1,22,-1
 1261.60058594 2090.59960938 l 1,23,-1
 1540.80078125 2090.59960938 l 1,12,-1
844 985.799804688 m 256,24,25
 760 985.799804688 760 985.799804688 700.400390625 1045.40039062 c 128,-1,26
 640.80078125 1105 640.80078125 1105 640.80078125 1189 c 256,27,28
 640.80078125 1273 640.80078125 1273 700.400390625 1333 c 128,-1,29
 760 1393 760 1393 844 1393 c 256,30,31
 928 1393 928 1393 988 1333 c 128,-1,32
 1048 1273 1048 1273 1048 1189 c 256,33,34
 1048 1105 1048 1105 988 1045.40039062 c 128,-1,35
 928 985.799804688 928 985.799804688 844 985.799804688 c 256,24,25
EndSplineSet
EndChar

StartChar: iacute
Encoding: 237 237 129
Width: 1695
VWidth: 1926
Flags: W
LayerCount: 2
Fore
SplineSet
845 2186.59960938 m 256,0,1
 761 2186.59960938 761 2186.59960938 701.400390625 2246.59960938 c 128,-1,2
 641.80078125 2306.59960938 641.80078125 2306.59960938 641.80078125 2390.59960938 c 256,3,4
 641.80078125 2474.59960938 641.80078125 2474.59960938 701.400390625 2534.20019531 c 128,-1,5
 761 2593.79980469 761 2593.79980469 845 2593.79980469 c 256,6,7
 929 2593.79980469 929 2593.79980469 989 2534.20019531 c 128,-1,8
 1049 2474.59960938 1049 2474.59960938 1049 2390.59960938 c 256,9,10
 1049 2306.59960938 1049 2306.59960938 989 2246.59960938 c 128,-1,11
 929 2186.59960938 929 2186.59960938 845 2186.59960938 c 256,0,1
1541.80078125 2090.59960938 m 1,12,-1
 1541.80078125 1811.40039062 l 1,13,-1
 1541.80078125 567.400390625 l 1,14,-1
 1541.80078125 288.200195312 l 1,15,-1
 1262.60058594 288.200195312 l 1,16,-1
 149 288.200195312 l 1,17,-1
 149 567.400390625 l 1,18,-1
 1262.60058594 567.400390625 l 1,19,-1
 1262.60058594 1811.40039062 l 1,20,-1
 149 1811.40039062 l 1,21,-1
 149 2090.59960938 l 1,22,-1
 1262.60058594 2090.59960938 l 1,23,-1
 1541.80078125 2090.59960938 l 1,12,-1
EndSplineSet
EndChar

StartChar: idieresis
Encoding: 239 239 130
Width: 1695
VWidth: 1863
Flags: W
LayerCount: 2
Fore
SplineSet
1541.80078125 2027.70019531 m 1,0,-1
 1541.80078125 1749.29980469 l 1,1,-1
 1541.80078125 503.700195312 l 1,2,-1
 1541.80078125 225.299804688 l 1,3,-1
 1263.40039062 225.299804688 l 1,4,-1
 149 225.299804688 l 1,5,-1
 149 503.700195312 l 1,6,-1
 1263.40039062 503.700195312 l 1,7,-1
 1263.40039062 1749.29980469 l 1,8,-1
 149 1749.29980469 l 1,9,-1
 149 2027.70019531 l 1,10,-1
 1263.40039062 2027.70019531 l 1,11,-1
 1541.80078125 2027.70019531 l 1,0,-1
845 922.900390625 m 0,12,13
 760.200195312 922.900390625 760.200195312 922.900390625 701 982.099609375 c 128,-1,14
 641.80078125 1041.29980469 641.80078125 1041.29980469 641.80078125 1126.09960938 c 0,15,16
 641.80078125 1211.70019531 641.80078125 1211.70019531 701 1270.90039062 c 0,17,18
 759.400390625 1329.29980469 759.400390625 1329.29980469 845 1329.29980469 c 0,19,20
 931.400390625 1329.29980469 931.400390625 1329.29980469 989.80078125 1270.90039062 c 128,-1,21
 1048.20019531 1212.5 1048.20019531 1212.5 1048.20019531 1126.09960938 c 0,22,23
 1048.20019531 1040.5 1048.20019531 1040.5 989.80078125 982.099609375 c 0,24,25
 930.600585938 922.900390625 930.600585938 922.900390625 845 922.900390625 c 0,12,13
EndSplineSet
EndChar

StartChar: ucircumflex
Encoding: 251 251 131
Width: 1649
VWidth: 1863
Flags: W
LayerCount: 2
Fore
SplineSet
983.200195312 1266.09960938 m 1,0,-1
 1540 1266.09960938 l 1,1,-1
 1540 986.900390625 l 1,2,-1
 983.200195312 986.900390625 l 1,3,-1
 983.200195312 225.299804688 l 1,4,-1
 148 225.299804688 l 1,5,-1
 148 503.700195312 l 1,6,-1
 704.799804688 503.700195312 l 1,7,-1
 704.799804688 1749.29980469 l 1,8,-1
 148 1749.29980469 l 1,9,-1
 148 2027.70019531 l 1,10,-1
 983.200195312 2027.70019531 l 1,11,-1
 983.200195312 1266.09960938 l 1,0,-1
EndSplineSet
EndChar

StartChar: Ntilde
Encoding: 209 209 132
Width: 1689
VWidth: 1863
Flags: W
LayerCount: 2
Fore
SplineSet
149 2027.70019531 m 1,0,-1
 1541 2027.70019531 l 1,1,-1
 1541 1749.29980469 l 1,2,-1
 984.200195312 1749.29980469 l 1,3,-1
 984.200195312 1265.29980469 l 1,4,-1
 705.799804688 1265.29980469 l 1,5,-1
 705.799804688 1749.29980469 l 1,6,-1
 149 1749.29980469 l 1,7,-1
 149 2027.70019531 l 1,0,-1
984.200195312 503.700195312 m 1,8,-1
 1541 503.700195312 l 1,9,-1
 1541 225.299804688 l 1,10,-1
 149 225.299804688 l 1,11,-1
 149 503.700195312 l 1,12,-1
 705.799804688 503.700195312 l 1,13,-1
 705.799804688 986.900390625 l 1,14,-1
 984.200195312 986.900390625 l 1,15,-1
 984.200195312 503.700195312 l 1,8,-1
EndSplineSet
EndChar

StartChar: icircumflex
Encoding: 238 238 133
Width: 3396
VWidth: 1788
Flags: W
LayerCount: 2
Fore
SplineSet
2509.79980469 -17.7001953125 m 1,0,-1
 2789 -17.7001953125 l 1,1,-1
 2789 -472.900390625 l 1,2,-1
 2509.79980469 -472.900390625 l 1,3,-1
 2509.79980469 -472.099609375 l 1,4,-1
 882.600585938 -472.099609375 l 1,5,-1
 882.600585938 -472.900390625 l 1,6,-1
 603.400390625 -472.900390625 l 1,7,-1
 603.400390625 -17.7001953125 l 1,8,-1
 882.600585938 -17.7001953125 l 1,9,-1
 882.600585938 -193.700195312 l 1,10,-1
 2509.79980469 -193.700195312 l 1,11,-1
 2509.79980469 -17.7001953125 l 1,0,-1
2964.20019531 173.5 m 1,12,-1
 2129 173.5 l 1,13,-1
 1850.60058594 173.5 l 1,14,-1
 1850.60058594 452.700195312 l 1,15,-1
 1850.60058594 1975.90039062 l 1,16,-1
 2129 1975.90039062 l 1,17,-1
 2129 452.700195312 l 1,18,-1
 2964.20019531 452.700195312 l 1,19,-1
 2964.20019531 1975.90039062 l 1,20,-1
 3243.40039062 1975.90039062 l 1,21,-1
 3243.40039062 452.700195312 l 1,22,-1
 3243.40039062 173.5 l 1,23,-1
 2964.20019531 173.5 l 1,12,-1
1541 1975.90039062 m 1,24,-1
 1541 1696.70019531 l 1,25,-1
 1541 452.700195312 l 1,26,-1
 1541 173.5 l 1,27,-1
 1262.60058594 173.5 l 1,28,-1
 149 173.5 l 1,29,-1
 149 452.700195312 l 1,30,-1
 1262.60058594 452.700195312 l 1,31,-1
 1262.60058594 1696.70019531 l 1,32,-1
 149 1696.70019531 l 1,33,-1
 149 1975.90039062 l 1,34,-1
 1262.60058594 1975.90039062 l 1,35,-1
 1541 1975.90039062 l 1,24,-1
EndSplineSet
EndChar

StartChar: numbersign
Encoding: 35 35 134
Width: 3395
VWidth: 1848
Flags: W
LayerCount: 2
Fore
SplineSet
1727.79980469 2131.90039062 m 256,0,1
 1643.79980469 2131.90039062 1643.79980469 2131.90039062 1584.20019531 2191.90039062 c 128,-1,2
 1524.59960938 2251.90039062 1524.59960938 2251.90039062 1524.59960938 2335.90039062 c 256,3,4
 1524.59960938 2419.90039062 1524.59960938 2419.90039062 1584.20019531 2479.5 c 128,-1,5
 1643.79980469 2539.09960938 1643.79980469 2539.09960938 1727.79980469 2539.09960938 c 256,6,7
 1811.79980469 2539.09960938 1811.79980469 2539.09960938 1871.79980469 2479.5 c 128,-1,8
 1931.79980469 2419.90039062 1931.79980469 2419.90039062 1931.79980469 2335.90039062 c 256,9,10
 1931.79980469 2251.90039062 1931.79980469 2251.90039062 1871.79980469 2191.90039062 c 128,-1,11
 1811.79980469 2131.90039062 1811.79980469 2131.90039062 1727.79980469 2131.90039062 c 256,0,1
2511.79980469 19.099609375 m 1,12,-1
 2791 19.099609375 l 1,13,-1
 2791 -436.099609375 l 1,14,-1
 2511.79980469 -436.099609375 l 1,15,-1
 2511.79980469 -435.299804688 l 1,16,-1
 884.599609375 -435.299804688 l 1,17,-1
 884.599609375 -436.099609375 l 1,18,-1
 605.399414062 -436.099609375 l 1,19,-1
 605.399414062 19.099609375 l 1,20,-1
 884.599609375 19.099609375 l 1,21,-1
 884.599609375 -156.900390625 l 1,22,-1
 2511.79980469 -156.900390625 l 1,23,-1
 2511.79980469 19.099609375 l 1,12,-1
1264.59960938 2012.70019531 m 1,24,-1
 1543 2012.70019531 l 1,25,-1
 1543 1733.5 l 1,26,-1
 1543 210.299804688 l 1,27,-1
 1264.59960938 210.299804688 l 1,28,-1
 1264.59960938 1733.5 l 1,29,-1
 430.200195312 1733.5 l 1,30,-1
 430.200195312 210.299804688 l 1,31,-1
 151 210.299804688 l 1,32,-1
 151 1733.5 l 1,33,-1
 151 2012.70019531 l 1,34,-1
 430.200195312 2012.70019531 l 1,35,-1
 1264.59960938 2012.70019531 l 1,24,-1
2966.20019531 210.299804688 m 1,36,-1
 2131 210.299804688 l 1,37,-1
 1852.59960938 210.299804688 l 1,38,-1
 1852.59960938 489.5 l 1,39,-1
 1852.59960938 2012.70019531 l 1,40,-1
 2131 2012.70019531 l 1,41,-1
 2131 489.5 l 1,42,-1
 2966.20019531 489.5 l 1,43,-1
 2966.20019531 2012.70019531 l 1,44,-1
 3244.59960938 2012.70019531 l 1,45,-1
 3244.59960938 489.5 l 1,46,-1
 3244.59960938 210.299804688 l 1,47,-1
 2966.20019531 210.299804688 l 1,36,-1
EndSplineSet
EndChar

StartChar: ecircumflex
Encoding: 234 234 135
Width: 1694
VWidth: 1926
Flags: W
LayerCount: 2
Fore
SplineSet
850 2186.59960938 m 256,0,1
 766 2186.59960938 766 2186.59960938 706.400390625 2246.59960938 c 128,-1,2
 646.80078125 2306.59960938 646.80078125 2306.59960938 646.80078125 2390.59960938 c 256,3,4
 646.80078125 2474.59960938 646.80078125 2474.59960938 706.400390625 2534.20019531 c 128,-1,5
 766 2593.79980469 766 2593.79980469 850 2593.79980469 c 256,6,7
 934 2593.79980469 934 2593.79980469 994 2534.20019531 c 128,-1,8
 1054 2474.59960938 1054 2474.59960938 1054 2390.59960938 c 256,9,10
 1054 2306.59960938 1054 2306.59960938 994 2246.59960938 c 128,-1,11
 934 2186.59960938 934 2186.59960938 850 2186.59960938 c 256,0,1
850 985.799804688 m 256,12,13
 766 985.799804688 766 985.799804688 706.400390625 1045.40039062 c 128,-1,14
 646.80078125 1105 646.80078125 1105 646.80078125 1189 c 256,15,16
 646.80078125 1273 646.80078125 1273 706.400390625 1333 c 128,-1,17
 766 1393 766 1393 850 1393 c 256,18,19
 934 1393 934 1393 994 1333 c 128,-1,20
 1054 1273 1054 1273 1054 1189 c 256,21,22
 1054 1105 1054 1105 994 1045.40039062 c 128,-1,23
 934 985.799804688 934 985.799804688 850 985.799804688 c 256,12,13
154 288.200195312 m 1,24,-1
 154 567.400390625 l 1,25,-1
 154 1811.40039062 l 1,26,-1
 154 2090.59960938 l 1,27,-1
 433.200195312 2090.59960938 l 1,28,-1
 1546.80078125 2090.59960938 l 1,29,-1
 1546.80078125 1811.40039062 l 1,30,-1
 433.200195312 1811.40039062 l 1,31,-1
 433.200195312 567.400390625 l 1,32,-1
 1546.80078125 567.400390625 l 1,33,-1
 1546.80078125 288.200195312 l 1,34,-1
 433.200195312 288.200195312 l 1,35,-1
 154 288.200195312 l 1,24,-1
EndSplineSet
EndChar

StartChar: Ecircumflex
Encoding: 202 202 136
Width: 1694
VWidth: 1926
Flags: W
LayerCount: 2
Fore
SplineSet
850 2186.59960938 m 256,0,1
 766 2186.59960938 766 2186.59960938 706.400390625 2246.59960938 c 128,-1,2
 646.80078125 2306.59960938 646.80078125 2306.59960938 646.80078125 2390.59960938 c 256,3,4
 646.80078125 2474.59960938 646.80078125 2474.59960938 706.400390625 2534.20019531 c 128,-1,5
 766 2593.79980469 766 2593.79980469 850 2593.79980469 c 256,6,7
 934 2593.79980469 934 2593.79980469 994 2534.20019531 c 128,-1,8
 1054 2474.59960938 1054 2474.59960938 1054 2390.59960938 c 256,9,10
 1054 2306.59960938 1054 2306.59960938 994 2246.59960938 c 128,-1,11
 934 2186.59960938 934 2186.59960938 850 2186.59960938 c 256,0,1
850 985.799804688 m 256,12,13
 766 985.799804688 766 985.799804688 706.400390625 1045.40039062 c 128,-1,14
 646.80078125 1105 646.80078125 1105 646.80078125 1189 c 256,15,16
 646.80078125 1273 646.80078125 1273 706.400390625 1333 c 128,-1,17
 766 1393 766 1393 850 1393 c 256,18,19
 934 1393 934 1393 994 1333 c 128,-1,20
 1054 1273 1054 1273 1054 1189 c 256,21,22
 1054 1105 1054 1105 994 1045.40039062 c 128,-1,23
 934 985.799804688 934 985.799804688 850 985.799804688 c 256,12,13
154 288.200195312 m 1,24,-1
 154 567.400390625 l 1,25,-1
 154 1811.40039062 l 1,26,-1
 154 2090.59960938 l 1,27,-1
 433.200195312 2090.59960938 l 1,28,-1
 1546.80078125 2090.59960938 l 1,29,-1
 1546.80078125 1811.40039062 l 1,30,-1
 433.200195312 1811.40039062 l 1,31,-1
 433.200195312 567.400390625 l 1,32,-1
 1546.80078125 567.400390625 l 1,33,-1
 1546.80078125 288.200195312 l 1,34,-1
 433.200195312 288.200195312 l 1,35,-1
 154 288.200195312 l 1,24,-1
EndSplineSet
EndChar
